solid ascii
  facet normal 0.000000e+00 0.000000e+00 1.000000e+00
    outer loop
      vertex   -5.919048e+01 0.000000e+00 1.795238e+02
      vertex   -5.919048e+01 -1.250000e+01 1.795238e+02
      vertex   -5.819048e+01 -1.250000e+01 1.795238e+02
    endloop
  endfacet
  facet normal 0.000000e+00 -0.000000e+00 1.000000e+00
    outer loop
      vertex   -5.819048e+01 -1.250000e+01 1.795238e+02
      vertex   -5.819048e+01 0.000000e+00 1.795238e+02
      vertex   -5.919048e+01 0.000000e+00 1.795238e+02
    endloop
  endfacet
  facet normal 1.000000e+00 -4.440892e-15 1.387779e-15
    outer loop
      vertex   -5.819048e+01 0.000000e+00 1.795238e+02
      vertex   -5.819048e+01 -1.250000e+01 1.795238e+02
      vertex   -5.819048e+01 -1.250000e+01 1.495238e+02
    endloop
  endfacet
  facet normal 1.000000e+00 -2.220446e-15 4.625929e-16
    outer loop
      vertex   -5.819048e+01 -1.250000e+01 1.495238e+02
      vertex   -5.819048e+01 0.000000e+00 1.495238e+02
      vertex   -5.819048e+01 0.000000e+00 1.795238e+02
    endloop
  endfacet
  facet normal 2.351513e-01 -2.680323e-15 -9.719588e-01
    outer loop
      vertex   -5.819048e+01 0.000000e+00 1.495238e+02
      vertex   -5.819048e+01 -1.250000e+01 1.495238e+02
      vertex   -1.571905e+02 -1.250000e+01 1.255722e+02
    endloop
  endfacet
  facet normal 2.351513e-01 -1.044282e-15 -9.719588e-01
    outer loop
      vertex   -1.571905e+02 -1.250000e+01 1.255722e+02
      vertex   -1.571905e+02 0.000000e+00 1.255722e+02
      vertex   -5.819048e+01 0.000000e+00 1.495238e+02
    endloop
  endfacet
  facet normal 0.000000e+00 -1.000000e+00 0.000000e+00
    outer loop
      vertex   -5.919048e+01 -1.250000e+01 1.575127e+02
      vertex   -5.819048e+01 -1.250000e+01 1.495238e+02
      vertex   -5.819048e+01 -1.250000e+01 1.795238e+02
    endloop
  endfacet
  facet normal -0.000000e+00 -1.000000e+00 0.000000e+00
    outer loop
      vertex   -5.819048e+01 -1.250000e+01 1.795238e+02
      vertex   -5.919048e+01 -1.250000e+01 1.795238e+02
      vertex   -5.919048e+01 -1.250000e+01 1.575127e+02
    endloop
  endfacet
  facet normal -4.054090e-30 -1.000000e+00 -1.688411e-15
    outer loop
      vertex   -1.706311e+02 -1.250000e+01 1.305512e+02
      vertex   -1.821905e+02 -1.250000e+01 1.305512e+02
      vertex   -1.821905e+02 -1.250000e+01 1.295238e+02
    endloop
  endfacet
  facet normal 1.874513e-30 -1.000000e+00 -1.688411e-15
    outer loop
      vertex   -1.821905e+02 -1.250000e+01 1.295238e+02
      vertex   -1.571905e+02 -1.250000e+01 1.295238e+02
      vertex   -1.706311e+02 -1.250000e+01 1.305512e+02
    endloop
  endfacet
  facet normal 9.807727e-17 -1.000000e+00 -4.053861e-16
    outer loop
      vertex   -1.571905e+02 -1.250000e+01 1.295238e+02
      vertex   -5.919048e+01 -1.250000e+01 1.575127e+02
      vertex   -1.706311e+02 -1.250000e+01 1.305512e+02
    endloop
  endfacet
  facet normal -1.430775e-16 -1.000000e+00 4.389912e-16
    outer loop
      vertex   -5.919048e+01 -1.250000e+01 1.575127e+02
      vertex   -1.571905e+02 -1.250000e+01 1.295238e+02
      vertex   -1.571905e+02 -1.250000e+01 1.255722e+02
    endloop
  endfacet
  facet normal 0.000000e+00 -1.000000e+00 0.000000e+00
    outer loop
      vertex   -1.571905e+02 -1.250000e+01 1.255722e+02
      vertex   -5.819048e+01 -1.250000e+01 1.495238e+02
      vertex   -5.919048e+01 -1.250000e+01 1.575127e+02
    endloop
  endfacet
  facet normal 2.401127e-15 0.000000e+00 1.000000e+00
    outer loop
      vertex   -1.821905e+02 -1.250000e+01 1.305512e+02
      vertex   -1.706311e+02 -1.250000e+01 1.305512e+02
      vertex   -1.706311e+02 -1.000000e+01 1.305512e+02
    endloop
  endfacet
  facet normal 0.000000e+00 1.110223e-14 1.000000e+00
    outer loop
      vertex   -1.706311e+02 -1.000000e+01 1.305512e+02
      vertex   -1.821905e+02 -1.000000e+01 1.305512e+02
      vertex   -1.821905e+02 -1.250000e+01 1.305512e+02
    endloop
  endfacet
  facet normal -2.351513e-01 0.000000e+00 9.719588e-01
    outer loop
      vertex   -1.706311e+02 -1.000000e+01 1.305512e+02
      vertex   -1.706311e+02 -1.250000e+01 1.305512e+02
      vertex   -5.919048e+01 -1.250000e+01 1.575127e+02
    endloop
  endfacet
  facet normal -2.351513e-01 0.000000e+00 9.719588e-01
    outer loop
      vertex   -5.919048e+01 -1.250000e+01 1.575127e+02
      vertex   -5.919048e+01 -1.000000e+01 1.575127e+02
      vertex   -1.706311e+02 -1.000000e+01 1.305512e+02
    endloop
  endfacet
  facet normal 0.000000e+00 1.110223e-14 1.000000e+00
    outer loop
      vertex   -1.821905e+02 -1.250000e+01 1.295238e+02
      vertex   -1.821905e+02 -1.500000e+01 1.295238e+02
      vertex   -1.571905e+02 -1.500000e+01 1.295238e+02
    endloop
  endfacet
  facet normal -1.110223e-15 0.000000e+00 1.000000e+00
    outer loop
      vertex   -1.571905e+02 -1.500000e+01 1.295238e+02
      vertex   -1.571905e+02 -1.250000e+01 1.295238e+02
      vertex   -1.821905e+02 -1.250000e+01 1.295238e+02
    endloop
  endfacet
  facet normal -1.000000e+00 3.885781e-15 1.371927e-15
    outer loop
      vertex   -5.919048e+01 -1.250000e+01 1.795238e+02
      vertex   -5.919048e+01 0.000000e+00 1.795238e+02
      vertex   -5.919048e+01 0.000000e+00 1.592927e+02
    endloop
  endfacet
  facet normal -1.000000e+00 -2.220446e-14 -1.474822e-14
    outer loop
      vertex   -5.919048e+01 0.000000e+00 1.592927e+02
      vertex   -5.919048e+01 -2.500000e+00 1.592927e+02
      vertex   -5.919048e+01 -1.250000e+01 1.795238e+02
    endloop
  endfacet
  facet normal -1.000000e+00 -0.000000e+00 -1.891468e-15
    outer loop
      vertex   -5.919048e+01 -1.000000e+01 1.575127e+02
      vertex   -5.919048e+01 -1.250000e+01 1.575127e+02
      vertex   -5.919048e+01 -1.250000e+01 1.795238e+02
    endloop
  endfacet
  facet normal -1.000000e+00 4.941639e-15 -1.330203e-15
    outer loop
      vertex   -5.919048e+01 -1.250000e+01 1.795238e+02
      vertex   -5.919048e+01 -2.500000e+00 1.592927e+02
      vertex   -5.919048e+01 -1.000000e+01 1.575127e+02
    endloop
  endfacet
  facet normal -1.000000e+00 6.866902e-15 -9.442046e-15
    outer loop
      vertex   -5.919048e+01 -1.000000e+01 1.523684e+02
      vertex   -5.919048e+01 -1.000000e+01 1.575127e+02
      vertex   -5.919048e+01 -2.500000e+00 1.592927e+02
    endloop
  endfacet
  facet normal -1.000000e+00 2.684136e-31 -2.004216e-15
    outer loop
      vertex   -5.919048e+01 -2.500000e+00 1.592927e+02
      vertex   -5.919048e+01 -2.500000e+00 1.523684e+02
      vertex   -5.919048e+01 -1.000000e+01 1.523684e+02
    endloop
  endfacet
  facet normal -2.352323e-01 0.000000e+00 9.719392e-01
    outer loop
      vertex   -1.821905e+02 0.000000e+00 1.295238e+02
      vertex   -1.821905e+02 -2.500000e+00 1.295238e+02
      vertex   -5.919048e+01 -2.500000e+00 1.592927e+02
    endloop
  endfacet
  facet normal -2.352323e-01 -5.223207e-15 9.719392e-01
    outer loop
      vertex   -5.919048e+01 -2.500000e+00 1.592927e+02
      vertex   -5.919048e+01 0.000000e+00 1.592927e+02
      vertex   -1.821905e+02 0.000000e+00 1.295238e+02
    endloop
  endfacet
  facet normal -2.351513e-01 0.000000e+00 9.719588e-01
    outer loop
      vertex   -1.578959e+02 -2.500000e+00 1.284881e+02
      vertex   -1.578959e+02 -1.000000e+01 1.284881e+02
      vertex   -5.919048e+01 -1.000000e+01 1.523684e+02
    endloop
  endfacet
  facet normal -2.351513e-01 0.000000e+00 9.719588e-01
    outer loop
      vertex   -5.919048e+01 -1.000000e+01 1.523684e+02
      vertex   -5.919048e+01 -2.500000e+00 1.523684e+02
      vertex   -1.578959e+02 -2.500000e+00 1.284881e+02
    endloop
  endfacet
  facet normal -9.949367e-01 0.000000e+00 1.005031e-01
    outer loop
      vertex   -1.581905e+02 -2.500000e+00 1.255722e+02
      vertex   -1.581905e+02 -1.000000e+01 1.255722e+02
      vertex   -1.578959e+02 -1.000000e+01 1.284881e+02
    endloop
  endfacet
  facet normal -9.949367e-01 0.000000e+00 1.005031e-01
    outer loop
      vertex   -1.578959e+02 -1.000000e+01 1.284881e+02
      vertex   -1.578959e+02 -2.500000e+00 1.284881e+02
      vertex   -1.581905e+02 -2.500000e+00 1.255722e+02
    endloop
  endfacet
  facet normal -1.000000e+00 0.000000e+00 -1.237929e-15
    outer loop
      vertex   -1.581905e+02 -1.000000e+01 1.031512e+02
      vertex   -1.581905e+02 -1.000000e+01 1.255722e+02
      vertex   -1.581905e+02 -2.500000e+00 1.255722e+02
    endloop
  endfacet
  facet normal -1.000000e+00 -4.351747e-30 -1.237929e-15
    outer loop
      vertex   -1.581905e+02 -2.500000e+00 1.255722e+02
      vertex   -1.581905e+02 -2.500000e+00 1.031512e+02
      vertex   -1.581905e+02 -1.000000e+01 1.031512e+02
    endloop
  endfacet
  facet normal 0.000000e+00 1.000000e+00 0.000000e+00
    outer loop
      vertex   -1.781561e+02 0.000000e+00 1.271672e+02
      vertex   -1.821905e+02 0.000000e+00 1.275238e+02
      vertex   -1.821905e+02 0.000000e+00 1.295238e+02
    endloop
  endfacet
  facet normal 0.000000e+00 1.000000e+00 0.000000e+00
    outer loop
      vertex   -1.742469e+02 0.000000e+00 1.261085e+02
      vertex   -1.781561e+02 0.000000e+00 1.271672e+02
      vertex   -1.821905e+02 0.000000e+00 1.295238e+02
    endloop
  endfacet
  facet normal 0.000000e+00 1.000000e+00 0.000000e+00
    outer loop
      vertex   -1.571905e+02 0.000000e+00 1.021512e+02
      vertex   -1.591934e+02 0.000000e+00 1.041542e+02
      vertex   -1.594852e+02 0.000000e+00 1.081938e+02
    endloop
  endfacet
  facet normal -0.000000e+00 1.000000e+00 0.000000e+00
    outer loop
      vertex   -1.594852e+02 0.000000e+00 1.081938e+02
      vertex   -1.571905e+02 0.000000e+00 1.255722e+02
      vertex   -1.571905e+02 0.000000e+00 1.021512e+02
    endloop
  endfacet
  facet normal 0.000000e+00 1.000000e+00 0.000000e+00
    outer loop
      vertex   -1.571905e+02 0.000000e+00 1.255722e+02
      vertex   -1.594852e+02 0.000000e+00 1.081938e+02
      vertex   -1.604809e+02 0.000000e+00 1.121195e+02
    endloop
  endfacet
  facet normal 0.000000e+00 1.000000e+00 -0.000000e+00
    outer loop
      vertex   -1.604809e+02 0.000000e+00 1.121195e+02
      vertex   -1.621498e+02 0.000000e+00 1.158097e+02
      vertex   -1.571905e+02 0.000000e+00 1.255722e+02
    endloop
  endfacet
  facet normal 0.000000e+00 1.000000e+00 0.000000e+00
    outer loop
      vertex   -1.571905e+02 0.000000e+00 1.255722e+02
      vertex   -1.621498e+02 0.000000e+00 1.158097e+02
      vertex   -1.644402e+02 0.000000e+00 1.191500e+02
    endloop
  endfacet
  facet normal 0.000000e+00 1.000000e+00 0.000000e+00
    outer loop
      vertex   -1.571905e+02 0.000000e+00 1.255722e+02
      vertex   -1.644402e+02 0.000000e+00 1.191500e+02
      vertex   -1.672809e+02 0.000000e+00 1.220368e+02
    endloop
  endfacet
  facet normal 0.000000e+00 1.000000e+00 -0.000000e+00
    outer loop
      vertex   -1.672809e+02 0.000000e+00 1.220368e+02
      vertex   -1.705839e+02 0.000000e+00 1.243805e+02
      vertex   -1.571905e+02 0.000000e+00 1.255722e+02
    endloop
  endfacet
  facet normal 0.000000e+00 1.000000e+00 0.000000e+00
    outer loop
      vertex   -1.571905e+02 0.000000e+00 1.255722e+02
      vertex   -1.705839e+02 0.000000e+00 1.243805e+02
      vertex   -1.742469e+02 0.000000e+00 1.261085e+02
    endloop
  endfacet
  facet normal 0.000000e+00 1.000000e+00 0.000000e+00
    outer loop
      vertex   -1.821905e+02 0.000000e+00 1.295238e+02
      vertex   -1.571905e+02 0.000000e+00 1.255722e+02
      vertex   -1.742469e+02 0.000000e+00 1.261085e+02
    endloop
  endfacet
  facet normal 0.000000e+00 1.000000e+00 0.000000e+00
    outer loop
      vertex   -5.819048e+01 0.000000e+00 1.495238e+02
      vertex   -1.571905e+02 0.000000e+00 1.255722e+02
      vertex   -1.821905e+02 0.000000e+00 1.295238e+02
    endloop
  endfacet
  facet normal 0.000000e+00 1.000000e+00 0.000000e+00
    outer loop
      vertex   -1.821905e+02 0.000000e+00 1.295238e+02
      vertex   -5.919048e+01 0.000000e+00 1.592927e+02
      vertex   -5.819048e+01 0.000000e+00 1.495238e+02
    endloop
  endfacet
  facet normal 0.000000e+00 1.000000e+00 0.000000e+00
    outer loop
      vertex   -5.819048e+01 0.000000e+00 1.795238e+02
      vertex   -5.819048e+01 0.000000e+00 1.495238e+02
      vertex   -5.919048e+01 0.000000e+00 1.592927e+02
    endloop
  endfacet
  facet normal 0.000000e+00 1.000000e+00 0.000000e+00
    outer loop
      vertex   -5.919048e+01 0.000000e+00 1.592927e+02
      vertex   -5.919048e+01 0.000000e+00 1.795238e+02
      vertex   -5.819048e+01 0.000000e+00 1.795238e+02
    endloop
  endfacet
  facet normal 8.626209e-17 -1.000000e+00 3.185195e-16
    outer loop
      vertex   -1.781561e+02 -2.500000e+00 1.271672e+02
      vertex   -1.742469e+02 -2.500000e+00 1.261085e+02
      vertex   -1.578959e+02 -2.500000e+00 1.284881e+02
    endloop
  endfacet
  facet normal 9.583089e-17 -1.000000e+00 1.084202e-15
    outer loop
      vertex   -1.821905e+02 -2.500000e+00 1.295238e+02
      vertex   -1.821905e+02 -2.500000e+00 1.275238e+02
      vertex   -1.781561e+02 -2.500000e+00 1.271672e+02
    endloop
  endfacet
  facet normal 4.231651e-17 -1.000000e+00 9.925886e-16
    outer loop
      vertex   -1.578959e+02 -2.500000e+00 1.284881e+02
      vertex   -1.821905e+02 -2.500000e+00 1.295238e+02
      vertex   -1.781561e+02 -2.500000e+00 1.271672e+02
    endloop
  endfacet
  facet normal 0.000000e+00 -1.000000e+00 0.000000e+00
    outer loop
      vertex   -5.919048e+01 -2.500000e+00 1.592927e+02
      vertex   -1.821905e+02 -2.500000e+00 1.295238e+02
      vertex   -1.578959e+02 -2.500000e+00 1.284881e+02
    endloop
  endfacet
  facet normal 0.000000e+00 -1.000000e+00 0.000000e+00
    outer loop
      vertex   -1.578959e+02 -2.500000e+00 1.284881e+02
      vertex   -5.919048e+01 -2.500000e+00 1.523684e+02
      vertex   -5.919048e+01 -2.500000e+00 1.592927e+02
    endloop
  endfacet
  facet normal 1.013509e-16 -1.000000e+00 2.148384e-16
    outer loop
      vertex   -1.742469e+02 -2.500000e+00 1.261085e+02
      vertex   -1.705839e+02 -2.500000e+00 1.243805e+02
      vertex   -1.578959e+02 -2.500000e+00 1.284881e+02
    endloop
  endfacet
  facet normal 1.173577e-16 -1.000000e+00 1.653944e-16
    outer loop
      vertex   -1.578959e+02 -2.500000e+00 1.284881e+02
      vertex   -1.705839e+02 -2.500000e+00 1.243805e+02
      vertex   -1.672809e+02 -2.500000e+00 1.220368e+02
    endloop
  endfacet
  facet normal 2.482918e-16 -1.000000e+00 -2.508110e-17
    outer loop
      vertex   -1.581905e+02 -2.500000e+00 1.255722e+02
      vertex   -1.578959e+02 -2.500000e+00 1.284881e+02
      vertex   -1.672809e+02 -2.500000e+00 1.220368e+02
    endloop
  endfacet
  facet normal 1.725137e-16 -1.000000e+00 1.697633e-16
    outer loop
      vertex   -1.672809e+02 -2.500000e+00 1.220368e+02
      vertex   -1.644402e+02 -2.500000e+00 1.191500e+02
      vertex   -1.581905e+02 -2.500000e+00 1.255722e+02
    endloop
  endfacet
  facet normal 2.035453e-16 -1.000000e+00 1.395651e-16
    outer loop
      vertex   -1.581905e+02 -2.500000e+00 1.255722e+02
      vertex   -1.644402e+02 -2.500000e+00 1.191500e+02
      vertex   -1.621498e+02 -2.500000e+00 1.158097e+02
    endloop
  endfacet
  facet normal 2.589311e-16 -1.000000e+00 1.171023e-16
    outer loop
      vertex   -1.581905e+02 -2.500000e+00 1.255722e+02
      vertex   -1.621498e+02 -2.500000e+00 1.158097e+02
      vertex   -1.604809e+02 -2.500000e+00 1.121195e+02
    endloop
  endfacet
  facet normal 3.802450e-16 -1.000000e+00 9.644755e-17
    outer loop
      vertex   -1.581905e+02 -2.500000e+00 1.255722e+02
      vertex   -1.604809e+02 -2.500000e+00 1.121195e+02
      vertex   -1.594852e+02 -2.500000e+00 1.081938e+02
    endloop
  endfacet
  facet normal 1.934491e-15 -1.000000e+00 -1.934265e-17
    outer loop
      vertex   -1.594852e+02 -2.500000e+00 1.081938e+02
      vertex   -1.581905e+02 -2.500000e+00 1.031512e+02
      vertex   -1.581905e+02 -2.500000e+00 1.255722e+02
    endloop
  endfacet
  facet normal -1.125216e-16 -1.000000e+00 -5.449182e-16
    outer loop
      vertex   -1.594852e+02 -2.500000e+00 1.081938e+02
      vertex   -1.591934e+02 -2.500000e+00 1.041542e+02
      vertex   -1.581905e+02 -2.500000e+00 1.031512e+02
    endloop
  endfacet
  facet normal -9.974028e-01 3.831001e-16 -7.202604e-02
    outer loop
      vertex   -1.594852e+02 0.000000e+00 1.081938e+02
      vertex   -1.591934e+02 0.000000e+00 1.041542e+02
      vertex   -1.591934e+02 -2.500000e+00 1.041542e+02
    endloop
  endfacet
  facet normal -9.974028e-01 -1.321035e-17 -7.202604e-02
    outer loop
      vertex   -1.591934e+02 -2.500000e+00 1.041542e+02
      vertex   -1.594852e+02 -2.500000e+00 1.081938e+02
      vertex   -1.594852e+02 0.000000e+00 1.081938e+02
    endloop
  endfacet
  facet normal -9.693053e-01 0.000000e+00 -2.458602e-01
    outer loop
      vertex   -1.604809e+02 0.000000e+00 1.121195e+02
      vertex   -1.594852e+02 0.000000e+00 1.081938e+02
      vertex   -1.594852e+02 -2.500000e+00 1.081938e+02
    endloop
  endfacet
  facet normal -9.693053e-01 0.000000e+00 -2.458602e-01
    outer loop
      vertex   -1.594852e+02 -2.500000e+00 1.081938e+02
      vertex   -1.604809e+02 -2.500000e+00 1.121195e+02
      vertex   -1.604809e+02 0.000000e+00 1.121195e+02
    endloop
  endfacet
  facet normal -9.111518e-01 -1.056828e-16 -4.120708e-01
    outer loop
      vertex   -1.621498e+02 0.000000e+00 1.158097e+02
      vertex   -1.604809e+02 0.000000e+00 1.121195e+02
      vertex   -1.604809e+02 -2.500000e+00 1.121195e+02
    endloop
  endfacet
  facet normal -9.111518e-01 -1.056828e-16 -4.120708e-01
    outer loop
      vertex   -1.604809e+02 -2.500000e+00 1.121195e+02
      vertex   -1.621498e+02 -2.500000e+00 1.158097e+02
      vertex   -1.621498e+02 0.000000e+00 1.158097e+02
    endloop
  endfacet
  facet normal -8.247456e-01 0.000000e+00 -5.655040e-01
    outer loop
      vertex   -1.644402e+02 0.000000e+00 1.191500e+02
      vertex   -1.621498e+02 0.000000e+00 1.158097e+02
      vertex   -1.621498e+02 -2.500000e+00 1.158097e+02
    endloop
  endfacet
  facet normal -8.247456e-01 0.000000e+00 -5.655040e-01
    outer loop
      vertex   -1.621498e+02 -2.500000e+00 1.158097e+02
      vertex   -1.644402e+02 -2.500000e+00 1.191500e+02
      vertex   -1.644402e+02 0.000000e+00 1.191500e+02
    endloop
  endfacet
  facet normal -7.127658e-01 0.000000e+00 -7.014021e-01
    outer loop
      vertex   -1.672809e+02 0.000000e+00 1.220368e+02
      vertex   -1.644402e+02 0.000000e+00 1.191500e+02
      vertex   -1.644402e+02 -2.500000e+00 1.191500e+02
    endloop
  endfacet
  facet normal -7.127658e-01 0.000000e+00 -7.014021e-01
    outer loop
      vertex   -1.644402e+02 -2.500000e+00 1.191500e+02
      vertex   -1.672809e+02 -2.500000e+00 1.220368e+02
      vertex   -1.672809e+02 0.000000e+00 1.220368e+02
    endloop
  endfacet
  facet normal -5.786847e-01 0.000000e+00 -8.155514e-01
    outer loop
      vertex   -1.705839e+02 0.000000e+00 1.243805e+02
      vertex   -1.672809e+02 0.000000e+00 1.220368e+02
      vertex   -1.672809e+02 -2.500000e+00 1.220368e+02
    endloop
  endfacet
  facet normal -5.786847e-01 0.000000e+00 -8.155514e-01
    outer loop
      vertex   -1.672809e+02 -2.500000e+00 1.220368e+02
      vertex   -1.705839e+02 -2.500000e+00 1.243805e+02
      vertex   -1.705839e+02 0.000000e+00 1.243805e+02
    endloop
  endfacet
  facet normal -4.266599e-01 1.056828e-16 -9.044121e-01
    outer loop
      vertex   -1.742469e+02 0.000000e+00 1.261085e+02
      vertex   -1.705839e+02 0.000000e+00 1.243805e+02
      vertex   -1.705839e+02 -2.500000e+00 1.243805e+02
    endloop
  endfacet
  facet normal -4.266599e-01 1.056828e-16 -9.044121e-01
    outer loop
      vertex   -1.705839e+02 -2.500000e+00 1.243805e+02
      vertex   -1.742469e+02 -2.500000e+00 1.261085e+02
      vertex   -1.742469e+02 0.000000e+00 1.261085e+02
    endloop
  endfacet
  facet normal -2.614053e-01 0.000000e+00 -9.652291e-01
    outer loop
      vertex   -1.781561e+02 0.000000e+00 1.271672e+02
      vertex   -1.742469e+02 0.000000e+00 1.261085e+02
      vertex   -1.742469e+02 -2.500000e+00 1.261085e+02
    endloop
  endfacet
  facet normal -2.614053e-01 0.000000e+00 -9.652291e-01
    outer loop
      vertex   -1.742469e+02 -2.500000e+00 1.261085e+02
      vertex   -1.781561e+02 -2.500000e+00 1.271672e+02
      vertex   -1.781561e+02 0.000000e+00 1.271672e+02
    endloop
  endfacet
  facet normal -8.804513e-02 0.000000e+00 -9.961165e-01
    outer loop
      vertex   -1.821905e+02 0.000000e+00 1.275238e+02
      vertex   -1.781561e+02 0.000000e+00 1.271672e+02
      vertex   -1.781561e+02 -2.500000e+00 1.271672e+02
    endloop
  endfacet
  facet normal -8.804513e-02 1.981552e-15 -9.961165e-01
    outer loop
      vertex   -1.781561e+02 -2.500000e+00 1.271672e+02
      vertex   -1.821905e+02 -2.500000e+00 1.275238e+02
      vertex   -1.821905e+02 0.000000e+00 1.275238e+02
    endloop
  endfacet
  facet normal -1.000000e+00 2.220446e-14 -2.775558e-14
    outer loop
      vertex   -1.821905e+02 0.000000e+00 1.295238e+02
      vertex   -1.821905e+02 0.000000e+00 1.275238e+02
      vertex   -1.821905e+02 -2.500000e+00 1.275238e+02
    endloop
  endfacet
  facet normal -1.000000e+00 0.000000e+00 0.000000e+00
    outer loop
      vertex   -1.821905e+02 -2.500000e+00 1.275238e+02
      vertex   -1.821905e+02 -2.500000e+00 1.295238e+02
      vertex   -1.821905e+02 0.000000e+00 1.295238e+02
    endloop
  endfacet
  facet normal 0.000000e+00 1.000000e+00 0.000000e+00
    outer loop
      vertex   -1.706311e+02 -1.000000e+01 1.305512e+02
      vertex   -5.919048e+01 -1.000000e+01 1.575127e+02
      vertex   -5.919048e+01 -1.000000e+01 1.523684e+02
    endloop
  endfacet
  facet normal 0.000000e+00 1.000000e+00 0.000000e+00
    outer loop
      vertex   -5.919048e+01 -1.000000e+01 1.523684e+02
      vertex   -1.578959e+02 -1.000000e+01 1.284881e+02
      vertex   -1.706311e+02 -1.000000e+01 1.305512e+02
    endloop
  endfacet
  facet normal 0.000000e+00 1.000000e+00 -0.000000e+00
    outer loop
      vertex   -1.585651e+02 -1.000000e+01 1.074013e+02
      vertex   -1.596432e+02 -1.000000e+01 1.115291e+02
      vertex   -1.581905e+02 -1.000000e+01 1.255722e+02
    endloop
  endfacet
  facet normal -0.000000e+00 1.000000e+00 0.000000e+00
    outer loop
      vertex   -1.585651e+02 -1.000000e+01 1.074013e+02
      vertex   -1.581905e+02 -1.000000e+01 1.255722e+02
      vertex   -1.581905e+02 -1.000000e+01 1.031512e+02
    endloop
  endfacet
  facet normal 0.000000e+00 1.000000e+00 0.000000e+00
    outer loop
      vertex   -1.581905e+02 -1.000000e+01 1.031512e+02
      vertex   -1.581907e+02 -1.000000e+01 1.031514e+02
      vertex   -1.585651e+02 -1.000000e+01 1.074013e+02
    endloop
  endfacet
  facet normal 0.000000e+00 1.000000e+00 0.000000e+00
    outer loop
      vertex   -1.779672e+02 -1.000000e+01 1.278841e+02
      vertex   -1.821905e+02 -1.000000e+01 1.284881e+02
      vertex   -1.821905e+02 -1.000000e+01 1.305512e+02
    endloop
  endfacet
  facet normal -0.000000e+00 1.000000e+00 0.000000e+00
    outer loop
      vertex   -1.821905e+02 -1.000000e+01 1.305512e+02
      vertex   -1.706311e+02 -1.000000e+01 1.305512e+02
      vertex   -1.779672e+02 -1.000000e+01 1.278841e+02
    endloop
  endfacet
  facet normal 0.000000e+00 1.000000e+00 0.000000e+00
    outer loop
      vertex   -1.706311e+02 -1.000000e+01 1.305512e+02
      vertex   -1.739038e+02 -1.000000e+01 1.265840e+02
      vertex   -1.779672e+02 -1.000000e+01 1.278841e+02
    endloop
  endfacet
  facet normal 0.000000e+00 1.000000e+00 0.000000e+00
    outer loop
      vertex   -1.581905e+02 -1.000000e+01 1.255722e+02
      vertex   -1.596432e+02 -1.000000e+01 1.115291e+02
      vertex   -1.613948e+02 -1.000000e+01 1.154192e+02
    endloop
  endfacet
  facet normal 0.000000e+00 1.000000e+00 -0.000000e+00
    outer loop
      vertex   -1.613948e+02 -1.000000e+01 1.154192e+02
      vertex   -1.637709e+02 -1.000000e+01 1.189625e+02
      vertex   -1.581905e+02 -1.000000e+01 1.255722e+02
    endloop
  endfacet
  facet normal 0.000000e+00 1.000000e+00 0.000000e+00
    outer loop
      vertex   -1.578959e+02 -1.000000e+01 1.284881e+02
      vertex   -1.581905e+02 -1.000000e+01 1.255722e+02
      vertex   -1.637709e+02 -1.000000e+01 1.189625e+02
    endloop
  endfacet
  facet normal 0.000000e+00 1.000000e+00 -0.000000e+00
    outer loop
      vertex   -1.637709e+02 -1.000000e+01 1.189625e+02
      vertex   -1.667048e+02 -1.000000e+01 1.220599e+02
      vertex   -1.578959e+02 -1.000000e+01 1.284881e+02
    endloop
  endfacet
  facet normal 0.000000e+00 1.000000e+00 0.000000e+00
    outer loop
      vertex   -1.706311e+02 -1.000000e+01 1.305512e+02
      vertex   -1.578959e+02 -1.000000e+01 1.284881e+02
      vertex   -1.667048e+02 -1.000000e+01 1.220599e+02
    endloop
  endfacet
  facet normal 0.000000e+00 1.000000e+00 0.000000e+00
    outer loop
      vertex   -1.667048e+02 -1.000000e+01 1.220599e+02
      vertex   -1.701143e+02 -1.000000e+01 1.246243e+02
      vertex   -1.706311e+02 -1.000000e+01 1.305512e+02
    endloop
  endfacet
  facet normal 0.000000e+00 1.000000e+00 0.000000e+00
    outer loop
      vertex   -1.701143e+02 -1.000000e+01 1.246243e+02
      vertex   -1.739038e+02 -1.000000e+01 1.265840e+02
      vertex   -1.706311e+02 -1.000000e+01 1.305512e+02
    endloop
  endfacet
  facet normal -7.071068e-01 3.925141e-15 -7.071068e-01
    outer loop
      vertex   -1.581905e+02 -2.500000e+00 1.031512e+02
      vertex   -1.591934e+02 -2.500000e+00 1.041542e+02
      vertex   -1.591934e+02 0.000000e+00 1.041542e+02
    endloop
  endfacet
  facet normal -7.071068e-01 -5.903667e-15 -7.071068e-01
    outer loop
      vertex   -1.591934e+02 0.000000e+00 1.041542e+02
      vertex   -1.571905e+02 0.000000e+00 1.021512e+02
      vertex   -1.581905e+02 -2.500000e+00 1.031512e+02
    endloop
  endfacet
  facet normal -7.071068e-01 -2.616821e-15 -7.071068e-01
    outer loop
      vertex   -1.581905e+02 -1.000000e+01 1.031512e+02
      vertex   -1.581905e+02 -2.500000e+00 1.031512e+02
      vertex   -1.571905e+02 0.000000e+00 1.021512e+02
    endloop
  endfacet
  facet normal -7.071068e-01 -7.850462e-16 -7.071068e-01
    outer loop
      vertex   -1.571905e+02 0.000000e+00 1.021512e+02
      vertex   -1.571905e+02 -1.250000e+01 1.021512e+02
      vertex   -1.581905e+02 -1.000000e+01 1.031512e+02
    endloop
  endfacet
  facet normal -7.071068e-01 5.610993e-11 -7.071068e-01
    outer loop
      vertex   -1.581907e+02 -1.000000e+01 1.031514e+02
      vertex   -1.581905e+02 -1.000000e+01 1.031512e+02
      vertex   -1.571905e+02 -1.250000e+01 1.021512e+02
    endloop
  endfacet
  facet normal -7.071068e-01 3.922513e-15 -7.071068e-01
    outer loop
      vertex   -1.571905e+02 -1.250000e+01 1.021512e+02
      vertex   -1.581907e+02 -1.250000e+01 1.031514e+02
      vertex   -1.581907e+02 -1.000000e+01 1.031514e+02
    endloop
  endfacet
  facet normal -1.415670e-01 1.592054e-15 -9.899287e-01
    outer loop
      vertex   -1.779672e+02 -1.250000e+01 1.278841e+02
      vertex   -1.821905e+02 -1.250000e+01 1.284881e+02
      vertex   -1.821905e+02 -1.000000e+01 1.284881e+02
    endloop
  endfacet
  facet normal -1.415670e-01 0.000000e+00 -9.899287e-01
    outer loop
      vertex   -1.821905e+02 -1.000000e+01 1.284881e+02
      vertex   -1.779672e+02 -1.000000e+01 1.278841e+02
      vertex   -1.779672e+02 -1.250000e+01 1.278841e+02
    endloop
  endfacet
  facet normal -3.047302e-01 0.000000e+00 -9.524387e-01
    outer loop
      vertex   -1.739038e+02 -1.250000e+01 1.265840e+02
      vertex   -1.779672e+02 -1.250000e+01 1.278841e+02
      vertex   -1.779672e+02 -1.000000e+01 1.278841e+02
    endloop
  endfacet
  facet normal -3.047302e-01 0.000000e+00 -9.524387e-01
    outer loop
      vertex   -1.779672e+02 -1.000000e+01 1.278841e+02
      vertex   -1.739038e+02 -1.000000e+01 1.265840e+02
      vertex   -1.739038e+02 -1.250000e+01 1.265840e+02
    endloop
  endfacet
  facet normal -4.593525e-01 0.000000e+00 -8.882540e-01
    outer loop
      vertex   -1.701143e+02 -1.250000e+01 1.246243e+02
      vertex   -1.739038e+02 -1.250000e+01 1.265840e+02
      vertex   -1.739038e+02 -1.000000e+01 1.265840e+02
    endloop
  endfacet
  facet normal -4.593525e-01 0.000000e+00 -8.882540e-01
    outer loop
      vertex   -1.739038e+02 -1.000000e+01 1.265840e+02
      vertex   -1.701143e+02 -1.000000e+01 1.246243e+02
      vertex   -1.701143e+02 -1.250000e+01 1.246243e+02
    endloop
  endfacet
  facet normal -6.011002e-01 0.000000e+00 -7.991736e-01
    outer loop
      vertex   -1.667048e+02 -1.250000e+01 1.220599e+02
      vertex   -1.701143e+02 -1.250000e+01 1.246243e+02
      vertex   -1.701143e+02 -1.000000e+01 1.246243e+02
    endloop
  endfacet
  facet normal -6.011002e-01 0.000000e+00 -7.991736e-01
    outer loop
      vertex   -1.701143e+02 -1.000000e+01 1.246243e+02
      vertex   -1.667048e+02 -1.000000e+01 1.220599e+02
      vertex   -1.667048e+02 -1.250000e+01 1.220599e+02
    endloop
  endfacet
  facet normal -7.260005e-01 0.000000e+00 -6.876942e-01
    outer loop
      vertex   -1.637709e+02 -1.250000e+01 1.189625e+02
      vertex   -1.667048e+02 -1.250000e+01 1.220599e+02
      vertex   -1.667048e+02 -1.000000e+01 1.220599e+02
    endloop
  endfacet
  facet normal -7.260005e-01 0.000000e+00 -6.876942e-01
    outer loop
      vertex   -1.667048e+02 -1.000000e+01 1.220599e+02
      vertex   -1.637709e+02 -1.000000e+01 1.189625e+02
      vertex   -1.637709e+02 -1.250000e+01 1.189625e+02
    endloop
  endfacet
  facet normal -8.305525e-01 0.000000e+00 -5.569403e-01
    outer loop
      vertex   -1.613948e+02 -1.250000e+01 1.154192e+02
      vertex   -1.637709e+02 -1.250000e+01 1.189625e+02
      vertex   -1.637709e+02 -1.000000e+01 1.189625e+02
    endloop
  endfacet
  facet normal -8.305525e-01 0.000000e+00 -5.569403e-01
    outer loop
      vertex   -1.637709e+02 -1.000000e+01 1.189625e+02
      vertex   -1.613948e+02 -1.000000e+01 1.154192e+02
      vertex   -1.613948e+02 -1.250000e+01 1.154192e+02
    endloop
  endfacet
  facet normal -9.118261e-01 -1.097968e-16 -4.105766e-01
    outer loop
      vertex   -1.596432e+02 -1.250000e+01 1.115291e+02
      vertex   -1.613948e+02 -1.250000e+01 1.154192e+02
      vertex   -1.613948e+02 -1.000000e+01 1.154192e+02
    endloop
  endfacet
  facet normal -9.118261e-01 -1.097968e-16 -4.105766e-01
    outer loop
      vertex   -1.613948e+02 -1.000000e+01 1.154192e+02
      vertex   -1.596432e+02 -1.000000e+01 1.115291e+02
      vertex   -1.596432e+02 -1.250000e+01 1.115291e+02
    endloop
  endfacet
  facet normal -9.675433e-01 -5.489840e-17 -2.527053e-01
    outer loop
      vertex   -1.585651e+02 -1.250000e+01 1.074013e+02
      vertex   -1.596432e+02 -1.250000e+01 1.115291e+02
      vertex   -1.596432e+02 -1.000000e+01 1.115291e+02
    endloop
  endfacet
  facet normal -9.675433e-01 -5.489840e-17 -2.527053e-01
    outer loop
      vertex   -1.596432e+02 -1.000000e+01 1.115291e+02
      vertex   -1.585651e+02 -1.000000e+01 1.074013e+02
      vertex   -1.585651e+02 -1.250000e+01 1.074013e+02
    endloop
  endfacet
  facet normal -9.961424e-01 -2.744920e-17 -8.775136e-02
    outer loop
      vertex   -1.581907e+02 -1.250000e+01 1.031514e+02
      vertex   -1.585651e+02 -1.250000e+01 1.074013e+02
      vertex   -1.585651e+02 -1.000000e+01 1.074013e+02
    endloop
  endfacet
  facet normal -9.961424e-01 4.666364e-16 -8.775136e-02
    outer loop
      vertex   -1.585651e+02 -1.000000e+01 1.074013e+02
      vertex   -1.581907e+02 -1.000000e+01 1.031514e+02
      vertex   -1.581907e+02 -1.250000e+01 1.031514e+02
    endloop
  endfacet
  facet normal 1.000000e+00 4.043826e-14 1.665335e-15
    outer loop
      vertex   -1.571905e+02 -1.250000e+01 1.021512e+02
      vertex   -1.571905e+02 -1.500000e+01 1.295238e+02
      vertex   -1.571905e+02 -1.500000e+01 7.952381e+01
    endloop
  endfacet
  facet normal 1.000000e+00 -0.000000e+00 6.133174e-15
    outer loop
      vertex   -1.571905e+02 -1.500000e+01 7.952381e+01
      vertex   -1.571905e+02 -1.250000e+01 7.952381e+01
      vertex   -1.571905e+02 -1.250000e+01 1.021512e+02
    endloop
  endfacet
  facet normal 1.000000e+00 0.000000e+00 -1.404772e-14
    outer loop
      vertex   -1.571905e+02 -1.250000e+01 1.255722e+02
      vertex   -1.571905e+02 -1.250000e+01 1.295238e+02
      vertex   -1.571905e+02 -1.500000e+01 1.295238e+02
    endloop
  endfacet
  facet normal 1.000000e+00 2.220446e-14 2.164524e-30
    outer loop
      vertex   -1.571905e+02 -1.500000e+01 1.295238e+02
      vertex   -1.571905e+02 -1.250000e+01 1.021512e+02
      vertex   -1.571905e+02 -1.250000e+01 1.255722e+02
    endloop
  endfacet
  facet normal 1.000000e+00 -4.440892e-15 -4.470911e-31
    outer loop
      vertex   -1.571905e+02 0.000000e+00 1.255722e+02
      vertex   -1.571905e+02 -1.250000e+01 1.255722e+02
      vertex   -1.571905e+02 -1.250000e+01 1.021512e+02
    endloop
  endfacet
  facet normal 1.000000e+00 -4.440892e-15 -4.470911e-31
    outer loop
      vertex   -1.571905e+02 -1.250000e+01 1.021512e+02
      vertex   -1.571905e+02 0.000000e+00 1.021512e+02
      vertex   -1.571905e+02 0.000000e+00 1.255722e+02
    endloop
  endfacet
  facet normal -1.000000e+00 0.000000e+00 -1.463573e-15
    outer loop
      vertex   -1.821905e+02 -1.250000e+01 1.284881e+02
      vertex   -1.821905e+02 -1.250000e+01 1.095238e+02
      vertex   -1.821905e+02 -1.500000e+01 1.095238e+02
    endloop
  endfacet
  facet normal -1.000000e+00 -1.110223e-14 0.000000e+00
    outer loop
      vertex   -1.821905e+02 -1.500000e+01 1.095238e+02
      vertex   -1.821905e+02 -1.500000e+01 1.295238e+02
      vertex   -1.821905e+02 -1.250000e+01 1.284881e+02
    endloop
  endfacet
  facet normal -1.000000e+00 1.110223e-14 5.359582e-14
    outer loop
      vertex   -1.821905e+02 -1.000000e+01 1.284881e+02
      vertex   -1.821905e+02 -1.250000e+01 1.284881e+02
      vertex   -1.821905e+02 -1.500000e+01 1.295238e+02
    endloop
  endfacet
  facet normal -1.000000e+00 0.000000e+00 0.000000e+00
    outer loop
      vertex   -1.821905e+02 -1.500000e+01 1.295238e+02
      vertex   -1.821905e+02 -1.250000e+01 1.295238e+02
      vertex   -1.821905e+02 -1.000000e+01 1.284881e+02
    endloop
  endfacet
  facet normal -1.000000e+00 0.000000e+00 -0.000000e+00
    outer loop
      vertex   -1.821905e+02 -1.000000e+01 1.305512e+02
      vertex   -1.821905e+02 -1.000000e+01 1.284881e+02
      vertex   -1.821905e+02 -1.250000e+01 1.295238e+02
    endloop
  endfacet
  facet normal -1.000000e+00 0.000000e+00 0.000000e+00
    outer loop
      vertex   -1.821905e+02 -1.250000e+01 1.295238e+02
      vertex   -1.821905e+02 -1.250000e+01 1.305512e+02
      vertex   -1.821905e+02 -1.000000e+01 1.305512e+02
    endloop
  endfacet
  facet normal 0.000000e+00 1.000000e+00 0.000000e+00
    outer loop
      vertex   -1.571905e+02 -1.250000e+01 1.021512e+02
      vertex   -1.571905e+02 -1.250000e+01 7.952381e+01
      vertex   -1.821905e+02 -1.250000e+01 7.952381e+01
    endloop
  endfacet
  facet normal 0.000000e+00 1.000000e+00 0.000000e+00
    outer loop
      vertex   -1.821905e+02 -1.250000e+01 7.952381e+01
      vertex   -1.821905e+02 -1.250000e+01 9.952381e+01
      vertex   -1.571905e+02 -1.250000e+01 1.021512e+02
    endloop
  endfacet
  facet normal -1.649407e-16 1.000000e+00 1.569419e-15
    outer loop
      vertex   -1.821905e+02 -1.250000e+01 9.952381e+01
      vertex   -1.581907e+02 -1.250000e+01 1.031514e+02
      vertex   -1.571905e+02 -1.250000e+01 1.021512e+02
    endloop
  endfacet
  facet normal 3.010378e-16 1.000000e+00 -1.513419e-15
    outer loop
      vertex   -1.581907e+02 -1.250000e+01 1.031514e+02
      vertex   -1.821905e+02 -1.250000e+01 9.952381e+01
      vertex   -1.802771e+02 -1.250000e+01 9.990441e+01
    endloop
  endfacet
  facet normal 1.006988e-16 1.000000e+00 -1.507064e-16
    outer loop
      vertex   -1.802771e+02 -1.250000e+01 9.990441e+01
      vertex   -1.786549e+02 -1.250000e+01 1.009883e+02
      vertex   -1.581907e+02 -1.250000e+01 1.031514e+02
    endloop
  endfacet
  facet normal 9.121061e-17 1.000000e+00 -6.094498e-17
    outer loop
      vertex   -1.581907e+02 -1.250000e+01 1.031514e+02
      vertex   -1.786549e+02 -1.250000e+01 1.009883e+02
      vertex   -1.775711e+02 -1.250000e+01 1.026104e+02
    endloop
  endfacet
  facet normal 9.000903e-17 1.000000e+00 -1.790391e-17
    outer loop
      vertex   -1.775711e+02 -1.250000e+01 1.026104e+02
      vertex   -1.771905e+02 -1.250000e+01 1.045238e+02
      vertex   -1.581907e+02 -1.250000e+01 1.031514e+02
    endloop
  endfacet
  facet normal 9.188691e-17 1.000000e+00 8.094426e-18
    outer loop
      vertex   -1.585651e+02 -1.250000e+01 1.074013e+02
      vertex   -1.581907e+02 -1.250000e+01 1.031514e+02
      vertex   -1.771905e+02 -1.250000e+01 1.045238e+02
    endloop
  endfacet
  facet normal 8.952507e-17 1.000000e+00 2.338238e-17
    outer loop
      vertex   -1.596432e+02 -1.250000e+01 1.115291e+02
      vertex   -1.585651e+02 -1.250000e+01 1.074013e+02
      vertex   -1.771905e+02 -1.250000e+01 1.045238e+02
    endloop
  endfacet
  facet normal 9.158689e-17 1.000000e+00 1.821777e-17
    outer loop
      vertex   -1.596432e+02 -1.250000e+01 1.115291e+02
      vertex   -1.771905e+02 -1.250000e+01 1.045238e+02
      vertex   -1.775711e+02 -1.250000e+01 1.064372e+02
    endloop
  endfacet
  facet normal 8.578966e-17 1.000000e+00 3.862932e-17
    outer loop
      vertex   -1.775711e+02 -1.250000e+01 1.064372e+02
      vertex   -1.613948e+02 -1.250000e+01 1.154192e+02
      vertex   -1.596432e+02 -1.250000e+01 1.115291e+02
    endloop
  endfacet
  facet normal 7.814330e-17 1.000000e+00 5.240024e-17
    outer loop
      vertex   -1.637709e+02 -1.250000e+01 1.189625e+02
      vertex   -1.613948e+02 -1.250000e+01 1.154192e+02
      vertex   -1.775711e+02 -1.250000e+01 1.064372e+02
    endloop
  endfacet
  facet normal 7.824870e-17 1.000000e+00 5.228411e-17
    outer loop
      vertex   -1.775711e+02 -1.250000e+01 1.064372e+02
      vertex   -1.786549e+02 -1.250000e+01 1.080593e+02
      vertex   -1.637709e+02 -1.250000e+01 1.189625e+02
    endloop
  endfacet
  facet normal 6.880552e-17 1.000000e+00 6.517511e-17
    outer loop
      vertex   -1.786549e+02 -1.250000e+01 1.080593e+02
      vertex   -1.667048e+02 -1.250000e+01 1.220599e+02
      vertex   -1.637709e+02 -1.250000e+01 1.189625e+02
    endloop
  endfacet
  facet normal 5.675686e-17 1.000000e+00 7.545927e-17
    outer loop
      vertex   -1.701143e+02 -1.250000e+01 1.246243e+02
      vertex   -1.667048e+02 -1.250000e+01 1.220599e+02
      vertex   -1.786549e+02 -1.250000e+01 1.080593e+02
    endloop
  endfacet
  facet normal 5.204391e-17 1.000000e+00 7.788921e-17
    outer loop
      vertex   -1.786549e+02 -1.250000e+01 1.080593e+02
      vertex   -1.802771e+02 -1.250000e+01 1.091432e+02
      vertex   -1.701143e+02 -1.250000e+01 1.246243e+02
    endloop
  endfacet
  facet normal 4.326127e-17 1.000000e+00 8.365470e-17
    outer loop
      vertex   -1.802771e+02 -1.250000e+01 1.091432e+02
      vertex   -1.739038e+02 -1.250000e+01 1.265840e+02
      vertex   -1.701143e+02 -1.250000e+01 1.246243e+02
    endloop
  endfacet
  facet normal 2.849187e-17 1.000000e+00 8.905176e-17
    outer loop
      vertex   -1.779672e+02 -1.250000e+01 1.278841e+02
      vertex   -1.739038e+02 -1.250000e+01 1.265840e+02
      vertex   -1.802771e+02 -1.250000e+01 1.091432e+02
    endloop
  endfacet
  facet normal 1.797142e-17 1.000000e+00 9.034845e-17
    outer loop
      vertex   -1.802771e+02 -1.250000e+01 1.091432e+02
      vertex   -1.821905e+02 -1.250000e+01 1.095238e+02
      vertex   -1.779672e+02 -1.250000e+01 1.278841e+02
    endloop
  endfacet
  facet normal 1.308135e-17 1.000000e+00 9.147329e-17
    outer loop
      vertex   -1.821905e+02 -1.250000e+01 1.095238e+02
      vertex   -1.821905e+02 -1.250000e+01 1.284881e+02
      vertex   -1.779672e+02 -1.250000e+01 1.278841e+02
    endloop
  endfacet
  facet normal -0.000000e+00 -1.000000e+00 0.000000e+00
    outer loop
      vertex   -1.571905e+02 -1.500000e+01 1.295238e+02
      vertex   -1.821905e+02 -1.500000e+01 1.295238e+02
      vertex   -1.821905e+02 -1.500000e+01 1.095238e+02
    endloop
  endfacet
  facet normal 0.000000e+00 -1.000000e+00 0.000000e+00
    outer loop
      vertex   -1.821905e+02 -1.500000e+01 1.095238e+02
      vertex   -1.802771e+02 -1.500000e+01 1.091432e+02
      vertex   -1.571905e+02 -1.500000e+01 1.295238e+02
    endloop
  endfacet
  facet normal 0.000000e+00 -1.000000e+00 0.000000e+00
    outer loop
      vertex   -1.802771e+02 -1.500000e+01 1.091432e+02
      vertex   -1.786549e+02 -1.500000e+01 1.080593e+02
      vertex   -1.571905e+02 -1.500000e+01 1.295238e+02
    endloop
  endfacet
  facet normal 0.000000e+00 -1.000000e+00 0.000000e+00
    outer loop
      vertex   -1.571905e+02 -1.500000e+01 1.295238e+02
      vertex   -1.786549e+02 -1.500000e+01 1.080593e+02
      vertex   -1.775711e+02 -1.500000e+01 1.064372e+02
    endloop
  endfacet
  facet normal 0.000000e+00 -1.000000e+00 0.000000e+00
    outer loop
      vertex   -1.571905e+02 -1.500000e+01 7.952381e+01
      vertex   -1.571905e+02 -1.500000e+01 1.295238e+02
      vertex   -1.775711e+02 -1.500000e+01 1.064372e+02
    endloop
  endfacet
  facet normal 0.000000e+00 -1.000000e+00 0.000000e+00
    outer loop
      vertex   -1.775711e+02 -1.500000e+01 1.064372e+02
      vertex   -1.771905e+02 -1.500000e+01 1.045238e+02
      vertex   -1.571905e+02 -1.500000e+01 7.952381e+01
    endloop
  endfacet
  facet normal 0.000000e+00 -1.000000e+00 0.000000e+00
    outer loop
      vertex   -1.571905e+02 -1.500000e+01 7.952381e+01
      vertex   -1.771905e+02 -1.500000e+01 1.045238e+02
      vertex   -1.775711e+02 -1.500000e+01 1.026104e+02
    endloop
  endfacet
  facet normal 0.000000e+00 -1.000000e+00 0.000000e+00
    outer loop
      vertex   -1.802771e+02 -1.500000e+01 9.990441e+01
      vertex   -1.821905e+02 -1.500000e+01 9.952381e+01
      vertex   -1.821905e+02 -1.500000e+01 7.952381e+01
    endloop
  endfacet
  facet normal 0.000000e+00 -1.000000e+00 0.000000e+00
    outer loop
      vertex   -1.821905e+02 -1.500000e+01 7.952381e+01
      vertex   -1.571905e+02 -1.500000e+01 7.952381e+01
      vertex   -1.802771e+02 -1.500000e+01 9.990441e+01
    endloop
  endfacet
  facet normal 0.000000e+00 -1.000000e+00 0.000000e+00
    outer loop
      vertex   -1.571905e+02 -1.500000e+01 7.952381e+01
      vertex   -1.786549e+02 -1.500000e+01 1.009883e+02
      vertex   -1.802771e+02 -1.500000e+01 9.990441e+01
    endloop
  endfacet
  facet normal 0.000000e+00 -1.000000e+00 -0.000000e+00
    outer loop
      vertex   -1.775711e+02 -1.500000e+01 1.026104e+02
      vertex   -1.786549e+02 -1.500000e+01 1.009883e+02
      vertex   -1.571905e+02 -1.500000e+01 7.952381e+01
    endloop
  endfacet
  facet normal 2.775558e-15 -1.110223e-14 -1.000000e+00
    outer loop
      vertex   -1.821905e+02 -1.500000e+01 7.952381e+01
      vertex   -1.821905e+02 -1.250000e+01 7.952381e+01
      vertex   -1.571905e+02 -1.250000e+01 7.952381e+01
    endloop
  endfacet
  facet normal 1.665335e-15 0.000000e+00 -1.000000e+00
    outer loop
      vertex   -1.571905e+02 -1.250000e+01 7.952381e+01
      vertex   -1.571905e+02 -1.500000e+01 7.952381e+01
      vertex   -1.821905e+02 -1.500000e+01 7.952381e+01
    endloop
  endfacet
  facet normal -1.950903e-01 1.760327e-17 -9.807853e-01
    outer loop
      vertex   -1.802771e+02 -1.500000e+01 1.091432e+02
      vertex   -1.821905e+02 -1.500000e+01 1.095238e+02
      vertex   -1.821905e+02 -1.250000e+01 1.095238e+02
    endloop
  endfacet
  facet normal -1.950903e-01 1.760327e-17 -9.807853e-01
    outer loop
      vertex   -1.821905e+02 -1.250000e+01 1.095238e+02
      vertex   -1.802771e+02 -1.250000e+01 1.091432e+02
      vertex   -1.802771e+02 -1.500000e+01 1.091432e+02
    endloop
  endfacet
  facet normal -5.555702e-01 7.041308e-17 -8.314696e-01
    outer loop
      vertex   -1.786549e+02 -1.500000e+01 1.080593e+02
      vertex   -1.802771e+02 -1.500000e+01 1.091432e+02
      vertex   -1.802771e+02 -1.250000e+01 1.091432e+02
    endloop
  endfacet
  facet normal -5.555702e-01 7.041308e-17 -8.314696e-01
    outer loop
      vertex   -1.802771e+02 -1.250000e+01 1.091432e+02
      vertex   -1.786549e+02 -1.250000e+01 1.080593e+02
      vertex   -1.786549e+02 -1.500000e+01 1.080593e+02
    endloop
  endfacet
  facet normal -8.314696e-01 7.041308e-17 -5.555702e-01
    outer loop
      vertex   -1.775711e+02 -1.500000e+01 1.064372e+02
      vertex   -1.786549e+02 -1.500000e+01 1.080593e+02
      vertex   -1.786549e+02 -1.250000e+01 1.080593e+02
    endloop
  endfacet
  facet normal -8.314696e-01 7.041308e-17 -5.555702e-01
    outer loop
      vertex   -1.786549e+02 -1.250000e+01 1.080593e+02
      vertex   -1.775711e+02 -1.250000e+01 1.064372e+02
      vertex   -1.775711e+02 -1.500000e+01 1.064372e+02
    endloop
  endfacet
  facet normal -9.807853e-01 -1.760327e-17 -1.950903e-01
    outer loop
      vertex   -1.771905e+02 -1.500000e+01 1.045238e+02
      vertex   -1.775711e+02 -1.500000e+01 1.064372e+02
      vertex   -1.775711e+02 -1.250000e+01 1.064372e+02
    endloop
  endfacet
  facet normal -9.807853e-01 -1.760327e-17 -1.950903e-01
    outer loop
      vertex   -1.775711e+02 -1.250000e+01 1.064372e+02
      vertex   -1.771905e+02 -1.250000e+01 1.045238e+02
      vertex   -1.771905e+02 -1.500000e+01 1.045238e+02
    endloop
  endfacet
  facet normal -9.807853e-01 1.760327e-17 1.950903e-01
    outer loop
      vertex   -1.775711e+02 -1.500000e+01 1.026104e+02
      vertex   -1.771905e+02 -1.500000e+01 1.045238e+02
      vertex   -1.771905e+02 -1.250000e+01 1.045238e+02
    endloop
  endfacet
  facet normal -9.807853e-01 1.760327e-17 1.950903e-01
    outer loop
      vertex   -1.771905e+02 -1.250000e+01 1.045238e+02
      vertex   -1.775711e+02 -1.250000e+01 1.026104e+02
      vertex   -1.775711e+02 -1.500000e+01 1.026104e+02
    endloop
  endfacet
  facet normal -8.314696e-01 -7.041308e-17 5.555702e-01
    outer loop
      vertex   -1.786549e+02 -1.500000e+01 1.009883e+02
      vertex   -1.775711e+02 -1.500000e+01 1.026104e+02
      vertex   -1.775711e+02 -1.250000e+01 1.026104e+02
    endloop
  endfacet
  facet normal -8.314696e-01 -7.041308e-17 5.555702e-01
    outer loop
      vertex   -1.775711e+02 -1.250000e+01 1.026104e+02
      vertex   -1.786549e+02 -1.250000e+01 1.009883e+02
      vertex   -1.786549e+02 -1.500000e+01 1.009883e+02
    endloop
  endfacet
  facet normal -5.555702e-01 -7.041308e-17 8.314696e-01
    outer loop
      vertex   -1.802771e+02 -1.500000e+01 9.990441e+01
      vertex   -1.786549e+02 -1.500000e+01 1.009883e+02
      vertex   -1.786549e+02 -1.250000e+01 1.009883e+02
    endloop
  endfacet
  facet normal -5.555702e-01 -7.041308e-17 8.314696e-01
    outer loop
      vertex   -1.786549e+02 -1.250000e+01 1.009883e+02
      vertex   -1.802771e+02 -1.250000e+01 9.990441e+01
      vertex   -1.802771e+02 -1.500000e+01 9.990441e+01
    endloop
  endfacet
  facet normal -1.950903e-01 -1.760327e-17 9.807853e-01
    outer loop
      vertex   -1.821905e+02 -1.500000e+01 9.952381e+01
      vertex   -1.802771e+02 -1.500000e+01 9.990441e+01
      vertex   -1.802771e+02 -1.250000e+01 9.990441e+01
    endloop
  endfacet
  facet normal -1.950903e-01 -1.760327e-17 9.807853e-01
    outer loop
      vertex   -1.802771e+02 -1.250000e+01 9.990441e+01
      vertex   -1.821905e+02 -1.250000e+01 9.952381e+01
      vertex   -1.821905e+02 -1.500000e+01 9.952381e+01
    endloop
  endfacet
  facet normal -1.000000e+00 0.000000e+00 0.000000e+00
    outer loop
      vertex   -1.821905e+02 -1.500000e+01 9.952381e+01
      vertex   -1.821905e+02 -1.250000e+01 9.952381e+01
      vertex   -1.821905e+02 -1.250000e+01 7.952381e+01
    endloop
  endfacet
  facet normal -1.000000e+00 0.000000e+00 0.000000e+00
    outer loop
      vertex   -1.821905e+02 -1.250000e+01 7.952381e+01
      vertex   -1.821905e+02 -1.500000e+01 7.952381e+01
      vertex   -1.821905e+02 -1.500000e+01 9.952381e+01
    endloop
  endfacet
endsolid
