solid ascii
  facet normal 0.000000e+00 0.000000e+00 -1.000000e+00
    outer loop
      vertex   -9.088146e+00 -7.763527e+00 0.000000e+00
      vertex   -9.485714e+00 -3.600000e+00 0.000000e+00
      vertex   1.001429e+01 -3.600000e+00 0.000000e+00
    endloop
  endfacet
  facet normal 0.000000e+00 0.000000e+00 -1.000000e+00
    outer loop
      vertex   -9.088146e+00 -7.763527e+00 0.000000e+00
      vertex   1.001429e+01 -3.600000e+00 0.000000e+00
      vertex   1.030065e+01 -4.761808e+00 0.000000e+00
    endloop
  endfacet
  facet normal 0.000000e+00 0.000000e+00 -1.000000e+00
    outer loop
      vertex   1.030065e+01 -4.761808e+00 0.000000e+00
      vertex   -7.909809e+00 -1.177657e+01 0.000000e+00
      vertex   -9.088146e+00 -7.763527e+00 0.000000e+00
    endloop
  endfacet
  facet normal -0.000000e+00 0.000000e+00 -1.000000e+00
    outer loop
      vertex   1.564521e+01 -2.537607e+01 0.000000e+00
      vertex   1.146748e+01 -2.557508e+01 0.000000e+00
      vertex   1.221294e+01 -6.081772e+00 0.000000e+00
    endloop
  endfacet
  facet normal 0.000000e+00 0.000000e+00 -1.000000e+00
    outer loop
      vertex   1.221294e+01 -6.081772e+00 0.000000e+00
      vertex   1.340080e+01 -5.937541e+00 0.000000e+00
      vertex   1.564521e+01 -2.537607e+01 0.000000e+00
    endloop
  endfacet
  facet normal 0.000000e+00 0.000000e+00 -1.000000e+00
    outer loop
      vertex   1.340080e+01 -5.937541e+00 0.000000e+00
      vertex   1.970978e+01 -2.439002e+01 0.000000e+00
      vertex   1.564521e+01 -2.537607e+01 0.000000e+00
    endloop
  endfacet
  facet normal 0.000000e+00 -0.000000e+00 -1.000000e+00
    outer loop
      vertex   1.030065e+01 -4.761808e+00 0.000000e+00
      vertex   1.109412e+01 -5.657460e+00 0.000000e+00
      vertex   -3.407863e+00 -1.878174e+01 0.000000e+00
    endloop
  endfacet
  facet normal 0.000000e+00 0.000000e+00 -1.000000e+00
    outer loop
      vertex   -3.407863e+00 -1.878174e+01 0.000000e+00
      vertex   -5.993292e+00 -1.549410e+01 0.000000e+00
      vertex   1.030065e+01 -4.761808e+00 0.000000e+00
    endloop
  endfacet
  facet normal 0.000000e+00 0.000000e+00 -1.000000e+00
    outer loop
      vertex   1.030065e+01 -4.761808e+00 0.000000e+00
      vertex   -5.993292e+00 -1.549410e+01 0.000000e+00
      vertex   -7.909809e+00 -1.177657e+01 0.000000e+00
    endloop
  endfacet
  facet normal 0.000000e+00 0.000000e+00 -1.000000e+00
    outer loop
      vertex   1.221294e+01 -6.081772e+00 0.000000e+00
      vertex   1.146748e+01 -2.557508e+01 0.000000e+00
      vertex   7.327589e+00 -2.497985e+01 0.000000e+00
    endloop
  endfacet
  facet normal 0.000000e+00 0.000000e+00 -1.000000e+00
    outer loop
      vertex   1.221294e+01 -6.081772e+00 0.000000e+00
      vertex   7.327589e+00 -2.497985e+01 0.000000e+00
      vertex   3.375155e+00 -2.361190e+01 0.000000e+00
    endloop
  endfacet
  facet normal 0.000000e+00 0.000000e+00 -1.000000e+00
    outer loop
      vertex   3.375155e+00 -2.361190e+01 0.000000e+00
      vertex   1.109412e+01 -5.657460e+00 0.000000e+00
      vertex   1.221294e+01 -6.081772e+00 0.000000e+00
    endloop
  endfacet
  facet normal 0.000000e+00 0.000000e+00 -1.000000e+00
    outer loop
      vertex   3.375155e+00 -2.361190e+01 0.000000e+00
      vertex   -2.469663e-01 -2.152067e+01 0.000000e+00
      vertex   1.109412e+01 -5.657460e+00 0.000000e+00
    endloop
  endfacet
  facet normal 0.000000e+00 0.000000e+00 -1.000000e+00
    outer loop
      vertex   1.109412e+01 -5.657460e+00 0.000000e+00
      vertex   -2.469663e-01 -2.152067e+01 0.000000e+00
      vertex   -3.407863e+00 -1.878174e+01 0.000000e+00
    endloop
  endfacet
  facet normal -0.000000e+00 0.000000e+00 -1.000000e+00
    outer loop
      vertex   2.351429e+01 -2.265256e+01 0.000000e+00
      vertex   1.970978e+01 -2.439002e+01 0.000000e+00
      vertex   1.340080e+01 -5.937541e+00 0.000000e+00
    endloop
  endfacet
  facet normal 0.000000e+00 0.000000e+00 -1.000000e+00
    outer loop
      vertex   2.351429e+01 -2.265256e+01 0.000000e+00
      vertex   1.340080e+01 -5.937541e+00 0.000000e+00
      vertex   1.438556e+01 -5.257807e+00 0.000000e+00
    endloop
  endfacet
  facet normal 0.000000e+00 0.000000e+00 -1.000000e+00
    outer loop
      vertex   1.438556e+01 -5.257807e+00 0.000000e+00
      vertex   2.692122e+01 -2.022649e+01 0.000000e+00
      vertex   2.351429e+01 -2.265256e+01 0.000000e+00
    endloop
  endfacet
  facet normal 0.000000e+00 0.000000e+00 -1.000000e+00
    outer loop
      vertex   1.438556e+01 -1.942193e+00 0.000000e+00
      vertex   2.980745e+01 9.999498e+00 0.000000e+00
      vertex   3.206867e+01 6.480983e+00 0.000000e+00
    endloop
  endfacet
  facet normal 0.000000e+00 0.000000e+00 -1.000000e+00
    outer loop
      vertex   1.438556e+01 -5.257807e+00 0.000000e+00
      vertex   1.494164e+01 -4.198289e+00 0.000000e+00
      vertex   3.206867e+01 -1.368098e+01 0.000000e+00
    endloop
  endfacet
  facet normal -0.000000e+00 0.000000e+00 -1.000000e+00
    outer loop
      vertex   3.206867e+01 -1.368098e+01 0.000000e+00
      vertex   2.980745e+01 -1.719950e+01 0.000000e+00
      vertex   1.438556e+01 -5.257807e+00 0.000000e+00
    endloop
  endfacet
  facet normal 0.000000e+00 0.000000e+00 -1.000000e+00
    outer loop
      vertex   1.438556e+01 -5.257807e+00 0.000000e+00
      vertex   2.980745e+01 -1.719950e+01 0.000000e+00
      vertex   2.692122e+01 -2.022649e+01 0.000000e+00
    endloop
  endfacet
  facet normal 0.000000e+00 0.000000e+00 -1.000000e+00
    outer loop
      vertex   3.206867e+01 6.480983e+00 0.000000e+00
      vertex   1.494164e+01 -3.001711e+00 0.000000e+00
      vertex   1.438556e+01 -1.942193e+00 0.000000e+00
    endloop
  endfacet
  facet normal 0.000000e+00 -0.000000e+00 -1.000000e+00
    outer loop
      vertex   3.206867e+01 6.480983e+00 0.000000e+00
      vertex   3.362313e+01 2.598116e+00 0.000000e+00
      vertex   1.494164e+01 -3.001711e+00 0.000000e+00
    endloop
  endfacet
  facet normal 0.000000e+00 0.000000e+00 -1.000000e+00
    outer loop
      vertex   1.494164e+01 -3.001711e+00 0.000000e+00
      vertex   3.362313e+01 2.598116e+00 0.000000e+00
      vertex   3.441467e+01 -1.508767e+00 0.000000e+00
    endloop
  endfacet
  facet normal 0.000000e+00 0.000000e+00 -1.000000e+00
    outer loop
      vertex   1.564521e+01 1.817607e+01 0.000000e+00
      vertex   1.340080e+01 -1.262459e+00 0.000000e+00
      vertex   1.221294e+01 -1.118228e+00 0.000000e+00
    endloop
  endfacet
  facet normal 0.000000e+00 0.000000e+00 -1.000000e+00
    outer loop
      vertex   -3.407863e+00 1.158174e+01 0.000000e+00
      vertex   -2.469663e-01 1.432067e+01 0.000000e+00
      vertex   1.109412e+01 -1.542540e+00 0.000000e+00
    endloop
  endfacet
  facet normal 0.000000e+00 0.000000e+00 -1.000000e+00
    outer loop
      vertex   -3.407863e+00 1.158174e+01 0.000000e+00
      vertex   1.109412e+01 -1.542540e+00 0.000000e+00
      vertex   1.030065e+01 -2.438192e+00 0.000000e+00
    endloop
  endfacet
  facet normal 0.000000e+00 -0.000000e+00 -1.000000e+00
    outer loop
      vertex   3.441467e+01 -1.508767e+00 0.000000e+00
      vertex   3.451429e+01 -3.600000e+00 0.000000e+00
      vertex   1.494164e+01 -3.001711e+00 0.000000e+00
    endloop
  endfacet
  facet normal 0.000000e+00 0.000000e+00 -1.000000e+00
    outer loop
      vertex   1.494164e+01 -3.001711e+00 0.000000e+00
      vertex   3.451429e+01 -3.600000e+00 0.000000e+00
      vertex   3.441467e+01 -5.691233e+00 0.000000e+00
    endloop
  endfacet
  facet normal 0.000000e+00 0.000000e+00 -1.000000e+00
    outer loop
      vertex   1.494164e+01 -4.198289e+00 0.000000e+00
      vertex   1.494164e+01 -3.001711e+00 0.000000e+00
      vertex   3.441467e+01 -5.691233e+00 0.000000e+00
    endloop
  endfacet
  facet normal -0.000000e+00 0.000000e+00 -1.000000e+00
    outer loop
      vertex   3.441467e+01 -5.691233e+00 0.000000e+00
      vertex   3.362313e+01 -9.798116e+00 0.000000e+00
      vertex   1.494164e+01 -4.198289e+00 0.000000e+00
    endloop
  endfacet
  facet normal 0.000000e+00 0.000000e+00 -1.000000e+00
    outer loop
      vertex   1.494164e+01 -4.198289e+00 0.000000e+00
      vertex   3.362313e+01 -9.798116e+00 0.000000e+00
      vertex   3.206867e+01 -1.368098e+01 0.000000e+00
    endloop
  endfacet
  facet normal 0.000000e+00 -0.000000e+00 -1.000000e+00
    outer loop
      vertex   1.564521e+01 1.817607e+01 0.000000e+00
      vertex   1.970978e+01 1.719002e+01 0.000000e+00
      vertex   1.340080e+01 -1.262459e+00 0.000000e+00
    endloop
  endfacet
  facet normal 0.000000e+00 0.000000e+00 -1.000000e+00
    outer loop
      vertex   1.340080e+01 -1.262459e+00 0.000000e+00
      vertex   1.970978e+01 1.719002e+01 0.000000e+00
      vertex   2.351429e+01 1.545256e+01 0.000000e+00
    endloop
  endfacet
  facet normal 0.000000e+00 0.000000e+00 -1.000000e+00
    outer loop
      vertex   1.438556e+01 -1.942193e+00 0.000000e+00
      vertex   1.340080e+01 -1.262459e+00 0.000000e+00
      vertex   2.351429e+01 1.545256e+01 0.000000e+00
    endloop
  endfacet
  facet normal 0.000000e+00 -0.000000e+00 -1.000000e+00
    outer loop
      vertex   2.351429e+01 1.545256e+01 0.000000e+00
      vertex   2.692122e+01 1.302649e+01 0.000000e+00
      vertex   1.438556e+01 -1.942193e+00 0.000000e+00
    endloop
  endfacet
  facet normal 0.000000e+00 -0.000000e+00 -1.000000e+00
    outer loop
      vertex   2.692122e+01 1.302649e+01 0.000000e+00
      vertex   2.980745e+01 9.999498e+00 0.000000e+00
      vertex   1.438556e+01 -1.942193e+00 0.000000e+00
    endloop
  endfacet
  facet normal 0.000000e+00 0.000000e+00 -1.000000e+00
    outer loop
      vertex   1.109412e+01 -1.542540e+00 0.000000e+00
      vertex   -2.469663e-01 1.432067e+01 0.000000e+00
      vertex   3.375155e+00 1.641190e+01 0.000000e+00
    endloop
  endfacet
  facet normal 0.000000e+00 0.000000e+00 -1.000000e+00
    outer loop
      vertex   1.109412e+01 -1.542540e+00 0.000000e+00
      vertex   3.375155e+00 1.641190e+01 0.000000e+00
      vertex   7.327589e+00 1.777985e+01 0.000000e+00
    endloop
  endfacet
  facet normal 0.000000e+00 0.000000e+00 -1.000000e+00
    outer loop
      vertex   7.327589e+00 1.777985e+01 0.000000e+00
      vertex   1.221294e+01 -1.118228e+00 0.000000e+00
      vertex   1.109412e+01 -1.542540e+00 0.000000e+00
    endloop
  endfacet
  facet normal 0.000000e+00 0.000000e+00 -1.000000e+00
    outer loop
      vertex   7.327589e+00 1.777985e+01 0.000000e+00
      vertex   1.146748e+01 1.837508e+01 0.000000e+00
      vertex   1.221294e+01 -1.118228e+00 0.000000e+00
    endloop
  endfacet
  facet normal 0.000000e+00 0.000000e+00 -1.000000e+00
    outer loop
      vertex   1.221294e+01 -1.118228e+00 0.000000e+00
      vertex   1.146748e+01 1.837508e+01 0.000000e+00
      vertex   1.564521e+01 1.817607e+01 0.000000e+00
    endloop
  endfacet
  facet normal -0.000000e+00 0.000000e+00 -1.000000e+00
    outer loop
      vertex   1.001429e+01 -3.600000e+00 0.000000e+00
      vertex   -9.485714e+00 -3.600000e+00 0.000000e+00
      vertex   -9.088146e+00 5.635274e-01 0.000000e+00
    endloop
  endfacet
  facet normal 0.000000e+00 0.000000e+00 -1.000000e+00
    outer loop
      vertex   1.001429e+01 -3.600000e+00 0.000000e+00
      vertex   -9.088146e+00 5.635274e-01 0.000000e+00
      vertex   -7.909809e+00 4.576574e+00 0.000000e+00
    endloop
  endfacet
  facet normal 0.000000e+00 0.000000e+00 -1.000000e+00
    outer loop
      vertex   -7.909809e+00 4.576574e+00 0.000000e+00
      vertex   1.030065e+01 -2.438192e+00 0.000000e+00
      vertex   1.001429e+01 -3.600000e+00 0.000000e+00
    endloop
  endfacet
  facet normal 0.000000e+00 0.000000e+00 -1.000000e+00
    outer loop
      vertex   -7.909809e+00 4.576574e+00 0.000000e+00
      vertex   -5.993292e+00 8.294098e+00 0.000000e+00
      vertex   1.030065e+01 -2.438192e+00 0.000000e+00
    endloop
  endfacet
  facet normal 0.000000e+00 0.000000e+00 -1.000000e+00
    outer loop
      vertex   1.030065e+01 -2.438192e+00 0.000000e+00
      vertex   -5.993292e+00 8.294098e+00 0.000000e+00
      vertex   -3.407863e+00 1.158174e+01 0.000000e+00
    endloop
  endfacet
  facet normal 9.709418e-01 -2.393157e-01 4.851582e-17
    outer loop
      vertex   1.030065e+01 -2.438192e+00 2.000000e+00
      vertex   1.001429e+01 -3.600000e+00 2.000000e+00
      vertex   1.001429e+01 -3.600000e+00 0.000000e+00
    endloop
  endfacet
  facet normal 9.709418e-01 -2.393157e-01 0.000000e+00
    outer loop
      vertex   1.001429e+01 -3.600000e+00 0.000000e+00
      vertex   1.030065e+01 -2.438192e+00 0.000000e+00
      vertex   1.030065e+01 -2.438192e+00 2.000000e+00
    endloop
  endfacet
  facet normal 7.485107e-01 -6.631227e-01 0.000000e+00
    outer loop
      vertex   1.109412e+01 -1.542540e+00 2.000000e+00
      vertex   1.030065e+01 -2.438192e+00 2.000000e+00
      vertex   1.030065e+01 -2.438192e+00 0.000000e+00
    endloop
  endfacet
  facet normal 7.485107e-01 -6.631227e-01 0.000000e+00
    outer loop
      vertex   1.030065e+01 -2.438192e+00 0.000000e+00
      vertex   1.109412e+01 -1.542540e+00 0.000000e+00
      vertex   1.109412e+01 -1.542540e+00 2.000000e+00
    endloop
  endfacet
  facet normal 3.546049e-01 -9.350162e-01 3.234388e-17
    outer loop
      vertex   1.221294e+01 -1.118228e+00 2.000000e+00
      vertex   1.109412e+01 -1.542540e+00 2.000000e+00
      vertex   1.109412e+01 -1.542540e+00 0.000000e+00
    endloop
  endfacet
  facet normal 3.546049e-01 -9.350162e-01 3.234388e-17
    outer loop
      vertex   1.109412e+01 -1.542540e+00 0.000000e+00
      vertex   1.221294e+01 -1.118228e+00 0.000000e+00
      vertex   1.221294e+01 -1.118228e+00 2.000000e+00
    endloop
  endfacet
  facet normal -1.205367e-01 -9.927089e-01 -8.085970e-18
    outer loop
      vertex   1.340080e+01 -1.262459e+00 2.000000e+00
      vertex   1.221294e+01 -1.118228e+00 2.000000e+00
      vertex   1.221294e+01 -1.118228e+00 0.000000e+00
    endloop
  endfacet
  facet normal -1.205367e-01 -9.927089e-01 -8.085970e-18
    outer loop
      vertex   1.221294e+01 -1.118228e+00 0.000000e+00
      vertex   1.340080e+01 -1.262459e+00 0.000000e+00
      vertex   1.340080e+01 -1.262459e+00 2.000000e+00
    endloop
  endfacet
  facet normal -5.680647e-01 -8.229839e-01 3.234388e-17
    outer loop
      vertex   1.438556e+01 -1.942193e+00 2.000000e+00
      vertex   1.340080e+01 -1.262459e+00 2.000000e+00
      vertex   1.340080e+01 -1.262459e+00 0.000000e+00
    endloop
  endfacet
  facet normal -5.680647e-01 -8.229839e-01 3.234388e-17
    outer loop
      vertex   1.340080e+01 -1.262459e+00 0.000000e+00
      vertex   1.438556e+01 -1.942193e+00 0.000000e+00
      vertex   1.438556e+01 -1.942193e+00 2.000000e+00
    endloop
  endfacet
  facet normal -8.854560e-01 -4.647232e-01 -3.234388e-17
    outer loop
      vertex   1.494164e+01 -3.001711e+00 2.000000e+00
      vertex   1.438556e+01 -1.942193e+00 2.000000e+00
      vertex   1.438556e+01 -1.942193e+00 0.000000e+00
    endloop
  endfacet
  facet normal -8.854560e-01 -4.647232e-01 -3.234388e-17
    outer loop
      vertex   1.438556e+01 -1.942193e+00 0.000000e+00
      vertex   1.494164e+01 -3.001711e+00 0.000000e+00
      vertex   1.494164e+01 -3.001711e+00 2.000000e+00
    endloop
  endfacet
  facet normal -1.000000e+00 0.000000e+00 0.000000e+00
    outer loop
      vertex   1.494164e+01 -4.198289e+00 2.000000e+00
      vertex   1.494164e+01 -3.001711e+00 2.000000e+00
      vertex   1.494164e+01 -3.001711e+00 0.000000e+00
    endloop
  endfacet
  facet normal -1.000000e+00 0.000000e+00 0.000000e+00
    outer loop
      vertex   1.494164e+01 -3.001711e+00 0.000000e+00
      vertex   1.494164e+01 -4.198289e+00 0.000000e+00
      vertex   1.494164e+01 -4.198289e+00 2.000000e+00
    endloop
  endfacet
  facet normal -8.854560e-01 4.647232e-01 -3.234388e-17
    outer loop
      vertex   1.438556e+01 -5.257807e+00 2.000000e+00
      vertex   1.494164e+01 -4.198289e+00 2.000000e+00
      vertex   1.494164e+01 -4.198289e+00 0.000000e+00
    endloop
  endfacet
  facet normal -8.854560e-01 4.647232e-01 -3.234388e-17
    outer loop
      vertex   1.494164e+01 -4.198289e+00 0.000000e+00
      vertex   1.438556e+01 -5.257807e+00 0.000000e+00
      vertex   1.438556e+01 -5.257807e+00 2.000000e+00
    endloop
  endfacet
  facet normal -5.680647e-01 8.229839e-01 0.000000e+00
    outer loop
      vertex   1.340080e+01 -5.937541e+00 2.000000e+00
      vertex   1.438556e+01 -5.257807e+00 2.000000e+00
      vertex   1.438556e+01 -5.257807e+00 0.000000e+00
    endloop
  endfacet
  facet normal -5.680647e-01 8.229839e-01 0.000000e+00
    outer loop
      vertex   1.438556e+01 -5.257807e+00 0.000000e+00
      vertex   1.340080e+01 -5.937541e+00 0.000000e+00
      vertex   1.340080e+01 -5.937541e+00 2.000000e+00
    endloop
  endfacet
  facet normal -1.205367e-01 9.927089e-01 0.000000e+00
    outer loop
      vertex   1.221294e+01 -6.081772e+00 2.000000e+00
      vertex   1.340080e+01 -5.937541e+00 2.000000e+00
      vertex   1.340080e+01 -5.937541e+00 0.000000e+00
    endloop
  endfacet
  facet normal -1.205367e-01 9.927089e-01 0.000000e+00
    outer loop
      vertex   1.340080e+01 -5.937541e+00 0.000000e+00
      vertex   1.221294e+01 -6.081772e+00 0.000000e+00
      vertex   1.221294e+01 -6.081772e+00 2.000000e+00
    endloop
  endfacet
  facet normal 3.546049e-01 9.350162e-01 -3.234388e-17
    outer loop
      vertex   1.109412e+01 -5.657460e+00 2.000000e+00
      vertex   1.221294e+01 -6.081772e+00 2.000000e+00
      vertex   1.221294e+01 -6.081772e+00 0.000000e+00
    endloop
  endfacet
  facet normal 3.546049e-01 9.350162e-01 -3.234388e-17
    outer loop
      vertex   1.221294e+01 -6.081772e+00 0.000000e+00
      vertex   1.109412e+01 -5.657460e+00 0.000000e+00
      vertex   1.109412e+01 -5.657460e+00 2.000000e+00
    endloop
  endfacet
  facet normal 7.485107e-01 6.631227e-01 0.000000e+00
    outer loop
      vertex   1.030065e+01 -4.761808e+00 2.000000e+00
      vertex   1.109412e+01 -5.657460e+00 2.000000e+00
      vertex   1.109412e+01 -5.657460e+00 0.000000e+00
    endloop
  endfacet
  facet normal 7.485107e-01 6.631227e-01 0.000000e+00
    outer loop
      vertex   1.109412e+01 -5.657460e+00 0.000000e+00
      vertex   1.030065e+01 -4.761808e+00 0.000000e+00
      vertex   1.030065e+01 -4.761808e+00 2.000000e+00
    endloop
  endfacet
  facet normal 9.709418e-01 2.393157e-01 -1.617194e-17
    outer loop
      vertex   1.001429e+01 -3.600000e+00 2.000000e+00
      vertex   1.030065e+01 -4.761808e+00 2.000000e+00
      vertex   1.030065e+01 -4.761808e+00 0.000000e+00
    endloop
  endfacet
  facet normal 9.709418e-01 2.393157e-01 -6.468776e-17
    outer loop
      vertex   1.030065e+01 -4.761808e+00 0.000000e+00
      vertex   1.001429e+01 -3.600000e+00 0.000000e+00
      vertex   1.001429e+01 -3.600000e+00 2.000000e+00
    endloop
  endfacet
  facet normal 9.647152e-01 -2.632956e-01 0.000000e+00
    outer loop
      vertex   3.384512e+01 -8.984762e+00 2.000000e+00
      vertex   3.384512e+01 -8.984762e+00 1.000000e+01
      vertex   3.362313e+01 -9.798116e+00 1.000000e+01
    endloop
  endfacet
  facet normal -9.586586e-01 -2.814876e-01 -4.169503e-02
    outer loop
      vertex   -9.088146e+00 -7.763527e+00 0.000000e+00
      vertex   -7.909809e+00 -1.177657e+01 0.000000e+00
      vertex   -8.816545e+00 -8.984762e+00 2.000000e+00
    endloop
  endfacet
  facet normal 9.845846e-01 -1.702647e-01 -4.003889e-02
    outer loop
      vertex   3.441467e+01 -5.691233e+00 2.000000e+00
      vertex   3.384512e+01 -8.984762e+00 2.000000e+00
      vertex   3.362313e+01 -9.798116e+00 0.000000e+00
    endloop
  endfacet
  facet normal 9.819287e-01 -1.892512e-01 0.000000e+00
    outer loop
      vertex   3.362313e+01 -9.798116e+00 0.000000e+00
      vertex   3.441467e+01 -5.691233e+00 0.000000e+00
      vertex   3.441467e+01 -5.691233e+00 2.000000e+00
    endloop
  endfacet
  facet normal 9.988673e-01 -4.758192e-02 0.000000e+00
    outer loop
      vertex   3.441467e+01 -5.691233e+00 2.000000e+00
      vertex   3.441467e+01 -5.691233e+00 0.000000e+00
      vertex   3.451429e+01 -3.600000e+00 0.000000e+00
    endloop
  endfacet
  facet normal 9.987618e-01 0.000000e+00 4.974718e-02
    outer loop
      vertex   3.441467e+01 -1.508767e+00 2.000000e+00
      vertex   3.441467e+01 -5.691233e+00 2.000000e+00
      vertex   3.451429e+01 -3.600000e+00 0.000000e+00
    endloop
  endfacet
  facet normal -9.761506e-01 -2.170943e-01 1.636929e-17
    outer loop
      vertex   -8.816545e+00 -8.984762e+00 2.000000e+00
      vertex   -9.088146e+00 -7.763527e+00 2.000000e+00
      vertex   -9.088146e+00 -7.763527e+00 0.000000e+00
    endloop
  endfacet
  facet normal -9.954719e-01 -9.505604e-02 0.000000e+00
    outer loop
      vertex   -9.088146e+00 -7.763527e+00 0.000000e+00
      vertex   -9.088146e+00 -7.763527e+00 2.000000e+00
      vertex   -9.485714e+00 -3.600000e+00 2.000000e+00
    endloop
  endfacet
  facet normal -9.954719e-01 -9.505604e-02 -0.000000e+00
    outer loop
      vertex   -9.485714e+00 -3.600000e+00 2.000000e+00
      vertex   -9.485714e+00 -3.600000e+00 0.000000e+00
      vertex   -9.088146e+00 -7.763527e+00 0.000000e+00
    endloop
  endfacet
  facet normal -9.954719e-01 9.505604e-02 0.000000e+00
    outer loop
      vertex   -9.485714e+00 -3.600000e+00 0.000000e+00
      vertex   -9.485714e+00 -3.600000e+00 2.000000e+00
      vertex   -9.088146e+00 5.635274e-01 2.000000e+00
    endloop
  endfacet
  facet normal -9.954719e-01 9.505604e-02 0.000000e+00
    outer loop
      vertex   -9.088146e+00 5.635274e-01 2.000000e+00
      vertex   -9.088146e+00 5.635274e-01 0.000000e+00
      vertex   -9.485714e+00 -3.600000e+00 0.000000e+00
    endloop
  endfacet
  facet normal -9.594930e-01 2.817326e-01 0.000000e+00
    outer loop
      vertex   -9.088146e+00 5.635274e-01 0.000000e+00
      vertex   -9.088146e+00 5.635274e-01 2.000000e+00
      vertex   -7.909809e+00 4.576574e+00 2.000000e+00
    endloop
  endfacet
  facet normal -9.594930e-01 2.817326e-01 0.000000e+00
    outer loop
      vertex   -7.909809e+00 4.576574e+00 2.000000e+00
      vertex   -7.909809e+00 4.576574e+00 0.000000e+00
      vertex   -9.088146e+00 5.635274e-01 0.000000e+00
    endloop
  endfacet
  facet normal -8.888354e-01 4.582265e-01 0.000000e+00
    outer loop
      vertex   -7.909809e+00 4.576574e+00 0.000000e+00
      vertex   -7.909809e+00 4.576574e+00 2.000000e+00
      vertex   -5.993292e+00 8.294098e+00 2.000000e+00
    endloop
  endfacet
  facet normal -8.888354e-01 4.582265e-01 0.000000e+00
    outer loop
      vertex   -5.993292e+00 8.294098e+00 2.000000e+00
      vertex   -5.993292e+00 8.294098e+00 0.000000e+00
      vertex   -7.909809e+00 4.576574e+00 0.000000e+00
    endloop
  endfacet
  facet normal -7.860531e-01 6.181590e-01 0.000000e+00
    outer loop
      vertex   -5.993292e+00 8.294098e+00 0.000000e+00
      vertex   -5.993292e+00 8.294098e+00 2.000000e+00
      vertex   -3.407863e+00 1.158174e+01 2.000000e+00
    endloop
  endfacet
  facet normal -7.860531e-01 6.181590e-01 0.000000e+00
    outer loop
      vertex   -3.407863e+00 1.158174e+01 2.000000e+00
      vertex   -3.407863e+00 1.158174e+01 0.000000e+00
      vertex   -5.993292e+00 8.294098e+00 0.000000e+00
    endloop
  endfacet
  facet normal -6.548607e-01 7.557496e-01 0.000000e+00
    outer loop
      vertex   -3.407863e+00 1.158174e+01 0.000000e+00
      vertex   -3.407863e+00 1.158174e+01 2.000000e+00
      vertex   -2.469663e-01 1.432067e+01 2.000000e+00
    endloop
  endfacet
  facet normal -6.548607e-01 7.557496e-01 0.000000e+00
    outer loop
      vertex   -2.469663e-01 1.432067e+01 2.000000e+00
      vertex   -2.469663e-01 1.432067e+01 0.000000e+00
      vertex   -3.407863e+00 1.158174e+01 0.000000e+00
    endloop
  endfacet
  facet normal -5.000000e-01 8.660254e-01 0.000000e+00
    outer loop
      vertex   -2.469663e-01 1.432067e+01 0.000000e+00
      vertex   -2.469663e-01 1.432067e+01 2.000000e+00
      vertex   3.375155e+00 1.641190e+01 2.000000e+00
    endloop
  endfacet
  facet normal -5.000000e-01 8.660254e-01 0.000000e+00
    outer loop
      vertex   3.375155e+00 1.641190e+01 2.000000e+00
      vertex   3.375155e+00 1.641190e+01 0.000000e+00
      vertex   -2.469663e-01 1.432067e+01 0.000000e+00
    endloop
  endfacet
  facet normal -3.270680e-01 9.450008e-01 0.000000e+00
    outer loop
      vertex   3.375155e+00 1.641190e+01 0.000000e+00
      vertex   3.375155e+00 1.641190e+01 2.000000e+00
      vertex   7.327589e+00 1.777985e+01 2.000000e+00
    endloop
  endfacet
  facet normal -3.270680e-01 9.450008e-01 0.000000e+00
    outer loop
      vertex   7.327589e+00 1.777985e+01 2.000000e+00
      vertex   7.327589e+00 1.777985e+01 0.000000e+00
      vertex   3.375155e+00 1.641190e+01 0.000000e+00
    endloop
  endfacet
  facet normal -1.423148e-01 9.898214e-01 0.000000e+00
    outer loop
      vertex   7.327589e+00 1.777985e+01 0.000000e+00
      vertex   7.327589e+00 1.777985e+01 2.000000e+00
      vertex   1.146748e+01 1.837508e+01 2.000000e+00
    endloop
  endfacet
  facet normal -1.423148e-01 9.898214e-01 0.000000e+00
    outer loop
      vertex   1.146748e+01 1.837508e+01 2.000000e+00
      vertex   1.146748e+01 1.837508e+01 0.000000e+00
      vertex   7.327589e+00 1.777985e+01 0.000000e+00
    endloop
  endfacet
  facet normal 4.758192e-02 9.988673e-01 -0.000000e+00
    outer loop
      vertex   1.146748e+01 1.837508e+01 0.000000e+00
      vertex   1.146748e+01 1.837508e+01 2.000000e+00
      vertex   1.564521e+01 1.817607e+01 2.000000e+00
    endloop
  endfacet
  facet normal 4.758192e-02 9.988673e-01 0.000000e+00
    outer loop
      vertex   1.564521e+01 1.817607e+01 2.000000e+00
      vertex   1.564521e+01 1.817607e+01 0.000000e+00
      vertex   1.146748e+01 1.837508e+01 0.000000e+00
    endloop
  endfacet
  facet normal 2.357589e-01 9.718116e-01 -0.000000e+00
    outer loop
      vertex   1.564521e+01 1.817607e+01 0.000000e+00
      vertex   1.564521e+01 1.817607e+01 2.000000e+00
      vertex   1.970978e+01 1.719002e+01 2.000000e+00
    endloop
  endfacet
  facet normal 2.357589e-01 9.718116e-01 0.000000e+00
    outer loop
      vertex   1.970978e+01 1.719002e+01 2.000000e+00
      vertex   1.970978e+01 1.719002e+01 0.000000e+00
      vertex   1.564521e+01 1.817607e+01 0.000000e+00
    endloop
  endfacet
  facet normal 4.154150e-01 9.096320e-01 -0.000000e+00
    outer loop
      vertex   1.970978e+01 1.719002e+01 0.000000e+00
      vertex   1.970978e+01 1.719002e+01 2.000000e+00
      vertex   2.351429e+01 1.545256e+01 2.000000e+00
    endloop
  endfacet
  facet normal 4.154150e-01 9.096320e-01 0.000000e+00
    outer loop
      vertex   2.351429e+01 1.545256e+01 2.000000e+00
      vertex   2.351429e+01 1.545256e+01 0.000000e+00
      vertex   1.970978e+01 1.719002e+01 0.000000e+00
    endloop
  endfacet
  facet normal 5.800569e-01 8.145760e-01 -0.000000e+00
    outer loop
      vertex   2.351429e+01 1.545256e+01 0.000000e+00
      vertex   2.351429e+01 1.545256e+01 2.000000e+00
      vertex   2.692122e+01 1.302649e+01 2.000000e+00
    endloop
  endfacet
  facet normal 5.800569e-01 8.145760e-01 0.000000e+00
    outer loop
      vertex   2.692122e+01 1.302649e+01 2.000000e+00
      vertex   2.692122e+01 1.302649e+01 0.000000e+00
      vertex   2.351429e+01 1.545256e+01 0.000000e+00
    endloop
  endfacet
  facet normal 7.237340e-01 6.900790e-01 -0.000000e+00
    outer loop
      vertex   2.692122e+01 1.302649e+01 0.000000e+00
      vertex   2.692122e+01 1.302649e+01 2.000000e+00
      vertex   2.980745e+01 9.999498e+00 2.000000e+00
    endloop
  endfacet
  facet normal 7.237340e-01 6.900790e-01 0.000000e+00
    outer loop
      vertex   2.980745e+01 9.999498e+00 2.000000e+00
      vertex   2.980745e+01 9.999498e+00 0.000000e+00
      vertex   2.692122e+01 1.302649e+01 0.000000e+00
    endloop
  endfacet
  facet normal 8.412535e-01 5.406408e-01 -0.000000e+00
    outer loop
      vertex   2.980745e+01 9.999498e+00 0.000000e+00
      vertex   2.980745e+01 9.999498e+00 2.000000e+00
      vertex   3.206867e+01 6.480983e+00 2.000000e+00
    endloop
  endfacet
  facet normal 8.412535e-01 5.406408e-01 0.000000e+00
    outer loop
      vertex   3.206867e+01 6.480983e+00 2.000000e+00
      vertex   3.206867e+01 6.480983e+00 0.000000e+00
      vertex   2.980745e+01 9.999498e+00 0.000000e+00
    endloop
  endfacet
  facet normal 9.283679e-01 3.716625e-01 -0.000000e+00
    outer loop
      vertex   3.206867e+01 6.480983e+00 0.000000e+00
      vertex   3.206867e+01 6.480983e+00 2.000000e+00
      vertex   3.362313e+01 2.598116e+00 2.000000e+00
    endloop
  endfacet
  facet normal 9.283679e-01 3.716625e-01 0.000000e+00
    outer loop
      vertex   3.362313e+01 2.598116e+00 2.000000e+00
      vertex   3.362313e+01 2.598116e+00 0.000000e+00
      vertex   3.206867e+01 6.480983e+00 0.000000e+00
    endloop
  endfacet
  facet normal 9.819287e-01 1.892512e-01 -0.000000e+00
    outer loop
      vertex   3.362313e+01 2.598116e+00 0.000000e+00
      vertex   3.362313e+01 2.598116e+00 2.000000e+00
      vertex   3.441467e+01 -1.508767e+00 2.000000e+00
    endloop
  endfacet
  facet normal 9.819287e-01 1.892512e-01 0.000000e+00
    outer loop
      vertex   3.441467e+01 -1.508767e+00 2.000000e+00
      vertex   3.441467e+01 -1.508767e+00 0.000000e+00
      vertex   3.362313e+01 2.598116e+00 0.000000e+00
    endloop
  endfacet
  facet normal 9.988673e-01 4.758192e-02 1.004534e-17
    outer loop
      vertex   3.451429e+01 -3.600000e+00 0.000000e+00
      vertex   3.441467e+01 -1.508767e+00 0.000000e+00
      vertex   3.441467e+01 -1.508767e+00 2.000000e+00
    endloop
  endfacet
  facet normal 9.647152e-01 -2.632956e-01 0.000000e+00
    outer loop
      vertex   3.362313e+01 -9.798116e+00 1.000000e+01
      vertex   3.362313e+01 -9.798116e+00 0.000000e+00
      vertex   3.384512e+01 -8.984762e+00 2.000000e+00
    endloop
  endfacet
  facet normal 9.283679e-01 -3.716625e-01 0.000000e+00
    outer loop
      vertex   3.362313e+01 -9.798116e+00 0.000000e+00
      vertex   3.362313e+01 -9.798116e+00 1.000000e+01
      vertex   3.206867e+01 -1.368098e+01 1.000000e+01
    endloop
  endfacet
  facet normal 9.283679e-01 -3.716625e-01 0.000000e+00
    outer loop
      vertex   3.206867e+01 -1.368098e+01 1.000000e+01
      vertex   3.206867e+01 -1.368098e+01 0.000000e+00
      vertex   3.362313e+01 -9.798116e+00 0.000000e+00
    endloop
  endfacet
  facet normal 8.412535e-01 -5.406408e-01 0.000000e+00
    outer loop
      vertex   3.206867e+01 -1.368098e+01 0.000000e+00
      vertex   3.206867e+01 -1.368098e+01 1.000000e+01
      vertex   2.980745e+01 -1.719950e+01 1.000000e+01
    endloop
  endfacet
  facet normal 8.412535e-01 -5.406408e-01 0.000000e+00
    outer loop
      vertex   2.980745e+01 -1.719950e+01 1.000000e+01
      vertex   2.980745e+01 -1.719950e+01 0.000000e+00
      vertex   3.206867e+01 -1.368098e+01 0.000000e+00
    endloop
  endfacet
  facet normal 7.237340e-01 -6.900790e-01 0.000000e+00
    outer loop
      vertex   2.980745e+01 -1.719950e+01 0.000000e+00
      vertex   2.980745e+01 -1.719950e+01 1.000000e+01
      vertex   2.692122e+01 -2.022649e+01 1.000000e+01
    endloop
  endfacet
  facet normal 7.237340e-01 -6.900790e-01 0.000000e+00
    outer loop
      vertex   2.692122e+01 -2.022649e+01 1.000000e+01
      vertex   2.692122e+01 -2.022649e+01 0.000000e+00
      vertex   2.980745e+01 -1.719950e+01 0.000000e+00
    endloop
  endfacet
  facet normal 5.800569e-01 -8.145760e-01 0.000000e+00
    outer loop
      vertex   2.692122e+01 -2.022649e+01 0.000000e+00
      vertex   2.692122e+01 -2.022649e+01 1.000000e+01
      vertex   2.351429e+01 -2.265256e+01 1.000000e+01
    endloop
  endfacet
  facet normal 5.800569e-01 -8.145760e-01 0.000000e+00
    outer loop
      vertex   2.351429e+01 -2.265256e+01 1.000000e+01
      vertex   2.351429e+01 -2.265256e+01 0.000000e+00
      vertex   2.692122e+01 -2.022649e+01 0.000000e+00
    endloop
  endfacet
  facet normal 4.154150e-01 -9.096320e-01 0.000000e+00
    outer loop
      vertex   2.351429e+01 -2.265256e+01 0.000000e+00
      vertex   2.351429e+01 -2.265256e+01 1.000000e+01
      vertex   1.970978e+01 -2.439002e+01 1.000000e+01
    endloop
  endfacet
  facet normal 4.154150e-01 -9.096320e-01 0.000000e+00
    outer loop
      vertex   1.970978e+01 -2.439002e+01 1.000000e+01
      vertex   1.970978e+01 -2.439002e+01 0.000000e+00
      vertex   2.351429e+01 -2.265256e+01 0.000000e+00
    endloop
  endfacet
  facet normal 2.357589e-01 -9.718116e-01 0.000000e+00
    outer loop
      vertex   1.970978e+01 -2.439002e+01 0.000000e+00
      vertex   1.970978e+01 -2.439002e+01 1.000000e+01
      vertex   1.564521e+01 -2.537607e+01 1.000000e+01
    endloop
  endfacet
  facet normal 2.357589e-01 -9.718116e-01 0.000000e+00
    outer loop
      vertex   1.564521e+01 -2.537607e+01 1.000000e+01
      vertex   1.564521e+01 -2.537607e+01 0.000000e+00
      vertex   1.970978e+01 -2.439002e+01 0.000000e+00
    endloop
  endfacet
  facet normal 4.758192e-02 -9.988673e-01 0.000000e+00
    outer loop
      vertex   1.564521e+01 -2.537607e+01 0.000000e+00
      vertex   1.564521e+01 -2.537607e+01 1.000000e+01
      vertex   1.146748e+01 -2.557508e+01 1.000000e+01
    endloop
  endfacet
  facet normal 4.758192e-02 -9.988673e-01 0.000000e+00
    outer loop
      vertex   1.146748e+01 -2.557508e+01 1.000000e+01
      vertex   1.146748e+01 -2.557508e+01 0.000000e+00
      vertex   1.564521e+01 -2.537607e+01 0.000000e+00
    endloop
  endfacet
  facet normal -1.423148e-01 -9.898214e-01 0.000000e+00
    outer loop
      vertex   1.146748e+01 -2.557508e+01 0.000000e+00
      vertex   1.146748e+01 -2.557508e+01 1.000000e+01
      vertex   7.327589e+00 -2.497985e+01 1.000000e+01
    endloop
  endfacet
  facet normal -1.423148e-01 -9.898214e-01 -0.000000e+00
    outer loop
      vertex   7.327589e+00 -2.497985e+01 1.000000e+01
      vertex   7.327589e+00 -2.497985e+01 0.000000e+00
      vertex   1.146748e+01 -2.557508e+01 0.000000e+00
    endloop
  endfacet
  facet normal -3.270680e-01 -9.450008e-01 0.000000e+00
    outer loop
      vertex   7.327589e+00 -2.497985e+01 0.000000e+00
      vertex   7.327589e+00 -2.497985e+01 1.000000e+01
      vertex   3.375155e+00 -2.361190e+01 1.000000e+01
    endloop
  endfacet
  facet normal -3.270680e-01 -9.450008e-01 -0.000000e+00
    outer loop
      vertex   3.375155e+00 -2.361190e+01 1.000000e+01
      vertex   3.375155e+00 -2.361190e+01 0.000000e+00
      vertex   7.327589e+00 -2.497985e+01 0.000000e+00
    endloop
  endfacet
  facet normal -5.000000e-01 -8.660254e-01 0.000000e+00
    outer loop
      vertex   3.375155e+00 -2.361190e+01 0.000000e+00
      vertex   3.375155e+00 -2.361190e+01 1.000000e+01
      vertex   -2.469663e-01 -2.152067e+01 1.000000e+01
    endloop
  endfacet
  facet normal -5.000000e-01 -8.660254e-01 -0.000000e+00
    outer loop
      vertex   -2.469663e-01 -2.152067e+01 1.000000e+01
      vertex   -2.469663e-01 -2.152067e+01 0.000000e+00
      vertex   3.375155e+00 -2.361190e+01 0.000000e+00
    endloop
  endfacet
  facet normal -6.548607e-01 -7.557496e-01 0.000000e+00
    outer loop
      vertex   -2.469663e-01 -2.152067e+01 0.000000e+00
      vertex   -2.469663e-01 -2.152067e+01 1.000000e+01
      vertex   -3.407863e+00 -1.878174e+01 1.000000e+01
    endloop
  endfacet
  facet normal -6.548607e-01 -7.557496e-01 -0.000000e+00
    outer loop
      vertex   -3.407863e+00 -1.878174e+01 1.000000e+01
      vertex   -3.407863e+00 -1.878174e+01 0.000000e+00
      vertex   -2.469663e-01 -2.152067e+01 0.000000e+00
    endloop
  endfacet
  facet normal -7.860531e-01 -6.181590e-01 0.000000e+00
    outer loop
      vertex   -3.407863e+00 -1.878174e+01 0.000000e+00
      vertex   -3.407863e+00 -1.878174e+01 1.000000e+01
      vertex   -5.993292e+00 -1.549410e+01 1.000000e+01
    endloop
  endfacet
  facet normal -7.860531e-01 -6.181590e-01 -0.000000e+00
    outer loop
      vertex   -5.993292e+00 -1.549410e+01 1.000000e+01
      vertex   -5.993292e+00 -1.549410e+01 0.000000e+00
      vertex   -3.407863e+00 -1.878174e+01 0.000000e+00
    endloop
  endfacet
  facet normal -8.888354e-01 -4.582265e-01 0.000000e+00
    outer loop
      vertex   -5.993292e+00 -1.549410e+01 0.000000e+00
      vertex   -5.993292e+00 -1.549410e+01 1.000000e+01
      vertex   -7.909809e+00 -1.177657e+01 1.000000e+01
    endloop
  endfacet
  facet normal -8.888354e-01 -4.582265e-01 -0.000000e+00
    outer loop
      vertex   -7.909809e+00 -1.177657e+01 1.000000e+01
      vertex   -7.909809e+00 -1.177657e+01 0.000000e+00
      vertex   -5.993292e+00 -1.549410e+01 0.000000e+00
    endloop
  endfacet
  facet normal -9.510944e-01 -3.089003e-01 0.000000e+00
    outer loop
      vertex   -7.909809e+00 -1.177657e+01 0.000000e+00
      vertex   -7.909809e+00 -1.177657e+01 1.000000e+01
      vertex   -8.816545e+00 -8.984762e+00 1.000000e+01
    endloop
  endfacet
  facet normal -9.510944e-01 -3.089003e-01 -0.000000e+00
    outer loop
      vertex   -8.816545e+00 -8.984762e+00 1.000000e+01
      vertex   -8.816545e+00 -8.984762e+00 2.000000e+00
      vertex   -7.909809e+00 -1.177657e+01 0.000000e+00
    endloop
  endfacet
  facet normal 0.000000e+00 0.000000e+00 1.000000e+00
    outer loop
      vertex   -9.088146e+00 -7.763527e+00 2.000000e+00
      vertex   -8.816545e+00 -8.984762e+00 2.000000e+00
      vertex   -4.661405e+00 -8.984762e+00 2.000000e+00
    endloop
  endfacet
  facet normal -0.000000e+00 0.000000e+00 1.000000e+00
    outer loop
      vertex   1.494164e+01 -3.001711e+00 2.000000e+00
      vertex   3.441467e+01 -5.691233e+00 2.000000e+00
      vertex   3.441467e+01 -1.508767e+00 2.000000e+00
    endloop
  endfacet
  facet normal 0.000000e+00 0.000000e+00 1.000000e+00
    outer loop
      vertex   -4.661405e+00 -8.984762e+00 2.000000e+00
      vertex   1.146748e+01 1.837508e+01 2.000000e+00
      vertex   7.327589e+00 1.777985e+01 2.000000e+00
    endloop
  endfacet
  facet normal 0.000000e+00 0.000000e+00 1.000000e+00
    outer loop
      vertex   7.327589e+00 1.777985e+01 2.000000e+00
      vertex   3.375155e+00 1.641190e+01 2.000000e+00
      vertex   -4.661405e+00 -8.984762e+00 2.000000e+00
    endloop
  endfacet
  facet normal 0.000000e+00 0.000000e+00 1.000000e+00
    outer loop
      vertex   -4.661405e+00 -8.984762e+00 2.000000e+00
      vertex   3.375155e+00 1.641190e+01 2.000000e+00
      vertex   -2.469663e-01 1.432067e+01 2.000000e+00
    endloop
  endfacet
  facet normal 0.000000e+00 0.000000e+00 1.000000e+00
    outer loop
      vertex   -2.469663e-01 1.432067e+01 2.000000e+00
      vertex   -3.407863e+00 1.158174e+01 2.000000e+00
      vertex   -4.661405e+00 -8.984762e+00 2.000000e+00
    endloop
  endfacet
  facet normal 0.000000e+00 0.000000e+00 1.000000e+00
    outer loop
      vertex   -3.407863e+00 1.158174e+01 2.000000e+00
      vertex   -5.993292e+00 8.294098e+00 2.000000e+00
      vertex   -4.661405e+00 -8.984762e+00 2.000000e+00
    endloop
  endfacet
  facet normal 0.000000e+00 0.000000e+00 1.000000e+00
    outer loop
      vertex   -4.661405e+00 -8.984762e+00 2.000000e+00
      vertex   -5.993292e+00 8.294098e+00 2.000000e+00
      vertex   -7.909809e+00 4.576574e+00 2.000000e+00
    endloop
  endfacet
  facet normal 0.000000e+00 0.000000e+00 1.000000e+00
    outer loop
      vertex   -4.661405e+00 -8.984762e+00 2.000000e+00
      vertex   -7.909809e+00 4.576574e+00 2.000000e+00
      vertex   -9.088146e+00 5.635274e-01 2.000000e+00
    endloop
  endfacet
  facet normal 0.000000e+00 0.000000e+00 1.000000e+00
    outer loop
      vertex   -9.088146e+00 5.635274e-01 2.000000e+00
      vertex   -9.485714e+00 -3.600000e+00 2.000000e+00
      vertex   -4.661405e+00 -8.984762e+00 2.000000e+00
    endloop
  endfacet
  facet normal 0.000000e+00 0.000000e+00 1.000000e+00
    outer loop
      vertex   -9.485714e+00 -3.600000e+00 2.000000e+00
      vertex   -9.088146e+00 -7.763527e+00 2.000000e+00
      vertex   -4.661405e+00 -8.984762e+00 2.000000e+00
    endloop
  endfacet
  facet normal 0.000000e+00 -0.000000e+00 1.000000e+00
    outer loop
      vertex   1.426581e+01 -2.151458e+01 2.000000e+00
      vertex   1.770251e+01 -2.083608e+01 2.000000e+00
      vertex   1.340080e+01 -5.937541e+00 2.000000e+00
    endloop
  endfacet
  facet normal 0.000000e+00 0.000000e+00 1.000000e+00
    outer loop
      vertex   1.340080e+01 -5.937541e+00 2.000000e+00
      vertex   1.221294e+01 -6.081772e+00 2.000000e+00
      vertex   1.426581e+01 -2.151458e+01 2.000000e+00
    endloop
  endfacet
  facet normal 0.000000e+00 0.000000e+00 1.000000e+00
    outer loop
      vertex   1.221294e+01 -6.081772e+00 2.000000e+00
      vertex   1.076277e+01 -2.151458e+01 2.000000e+00
      vertex   1.426581e+01 -2.151458e+01 2.000000e+00
    endloop
  endfacet
  facet normal 0.000000e+00 0.000000e+00 1.000000e+00
    outer loop
      vertex   1.030065e+01 -4.761808e+00 2.000000e+00
      vertex   1.001429e+01 -3.600000e+00 2.000000e+00
      vertex   -4.661405e+00 -8.984762e+00 2.000000e+00
    endloop
  endfacet
  facet normal 0.000000e+00 0.000000e+00 1.000000e+00
    outer loop
      vertex   -4.661405e+00 -8.984762e+00 2.000000e+00
      vertex   1.001429e+01 -3.600000e+00 2.000000e+00
      vertex   1.030065e+01 -2.438192e+00 2.000000e+00
    endloop
  endfacet
  facet normal 0.000000e+00 0.000000e+00 1.000000e+00
    outer loop
      vertex   1.146748e+01 1.837508e+01 2.000000e+00
      vertex   -4.661405e+00 -8.984762e+00 2.000000e+00
      vertex   1.030065e+01 -2.438192e+00 2.000000e+00
    endloop
  endfacet
  facet normal 0.000000e+00 0.000000e+00 1.000000e+00
    outer loop
      vertex   1.494164e+01 -4.198289e+00 2.000000e+00
      vertex   1.438556e+01 -5.257807e+00 2.000000e+00
      vertex   2.832174e+01 -1.220954e+01 2.000000e+00
    endloop
  endfacet
  facet normal 0.000000e+00 -0.000000e+00 1.000000e+00
    outer loop
      vertex   2.832174e+01 -1.220954e+01 2.000000e+00
      vertex   2.968998e+01 -8.984762e+00 2.000000e+00
      vertex   1.494164e+01 -4.198289e+00 2.000000e+00
    endloop
  endfacet
  facet normal 0.000000e+00 0.000000e+00 1.000000e+00
    outer loop
      vertex   2.968998e+01 -8.984762e+00 2.000000e+00
      vertex   1.494164e+01 -3.001711e+00 2.000000e+00
      vertex   1.494164e+01 -4.198289e+00 2.000000e+00
    endloop
  endfacet
  facet normal 0.000000e+00 0.000000e+00 1.000000e+00
    outer loop
      vertex   1.494164e+01 -3.001711e+00 2.000000e+00
      vertex   2.968998e+01 -8.984762e+00 2.000000e+00
      vertex   3.384512e+01 -8.984762e+00 2.000000e+00
    endloop
  endfacet
  facet normal 0.000000e+00 -0.000000e+00 1.000000e+00
    outer loop
      vertex   3.384512e+01 -8.984762e+00 2.000000e+00
      vertex   3.441467e+01 -5.691233e+00 2.000000e+00
      vertex   1.494164e+01 -3.001711e+00 2.000000e+00
    endloop
  endfacet
  facet normal 0.000000e+00 0.000000e+00 1.000000e+00
    outer loop
      vertex   1.340080e+01 -5.937541e+00 2.000000e+00
      vertex   1.770251e+01 -2.083608e+01 2.000000e+00
      vertex   2.094271e+01 -1.950477e+01 2.000000e+00
    endloop
  endfacet
  facet normal 0.000000e+00 0.000000e+00 1.000000e+00
    outer loop
      vertex   1.340080e+01 -5.937541e+00 2.000000e+00
      vertex   2.094271e+01 -1.950477e+01 2.000000e+00
      vertex   2.386369e+01 -1.757108e+01 2.000000e+00
    endloop
  endfacet
  facet normal 0.000000e+00 0.000000e+00 1.000000e+00
    outer loop
      vertex   2.386369e+01 -1.757108e+01 2.000000e+00
      vertex   1.438556e+01 -5.257807e+00 2.000000e+00
      vertex   1.340080e+01 -5.937541e+00 2.000000e+00
    endloop
  endfacet
  facet normal 0.000000e+00 -0.000000e+00 1.000000e+00
    outer loop
      vertex   2.386369e+01 -1.757108e+01 2.000000e+00
      vertex   2.635482e+01 -1.510825e+01 2.000000e+00
      vertex   1.438556e+01 -5.257807e+00 2.000000e+00
    endloop
  endfacet
  facet normal 0.000000e+00 0.000000e+00 1.000000e+00
    outer loop
      vertex   1.438556e+01 -5.257807e+00 2.000000e+00
      vertex   2.635482e+01 -1.510825e+01 2.000000e+00
      vertex   2.832174e+01 -1.220954e+01 2.000000e+00
    endloop
  endfacet
  facet normal -0.000000e+00 0.000000e+00 1.000000e+00
    outer loop
      vertex   -4.661405e+00 -8.984762e+00 2.000000e+00
      vertex   -3.293173e+00 -1.220954e+01 2.000000e+00
      vertex   1.030065e+01 -4.761808e+00 2.000000e+00
    endloop
  endfacet
  facet normal 0.000000e+00 0.000000e+00 1.000000e+00
    outer loop
      vertex   1.030065e+01 -4.761808e+00 2.000000e+00
      vertex   -3.293173e+00 -1.220954e+01 2.000000e+00
      vertex   -1.326245e+00 -1.510825e+01 2.000000e+00
    endloop
  endfacet
  facet normal 0.000000e+00 0.000000e+00 1.000000e+00
    outer loop
      vertex   1.109412e+01 -5.657460e+00 2.000000e+00
      vertex   1.030065e+01 -4.761808e+00 2.000000e+00
      vertex   -1.326245e+00 -1.510825e+01 2.000000e+00
    endloop
  endfacet
  facet normal -0.000000e+00 0.000000e+00 1.000000e+00
    outer loop
      vertex   -1.326245e+00 -1.510825e+01 2.000000e+00
      vertex   1.164884e+00 -1.757108e+01 2.000000e+00
      vertex   1.109412e+01 -5.657460e+00 2.000000e+00
    endloop
  endfacet
  facet normal 0.000000e+00 0.000000e+00 1.000000e+00
    outer loop
      vertex   1.109412e+01 -5.657460e+00 2.000000e+00
      vertex   1.164884e+00 -1.757108e+01 2.000000e+00
      vertex   4.085864e+00 -1.950477e+01 2.000000e+00
    endloop
  endfacet
  facet normal 0.000000e+00 0.000000e+00 1.000000e+00
    outer loop
      vertex   1.221294e+01 -6.081772e+00 2.000000e+00
      vertex   1.109412e+01 -5.657460e+00 2.000000e+00
      vertex   4.085864e+00 -1.950477e+01 2.000000e+00
    endloop
  endfacet
  facet normal -0.000000e+00 0.000000e+00 1.000000e+00
    outer loop
      vertex   4.085864e+00 -1.950477e+01 2.000000e+00
      vertex   7.326065e+00 -2.083608e+01 2.000000e+00
      vertex   1.221294e+01 -6.081772e+00 2.000000e+00
    endloop
  endfacet
  facet normal -0.000000e+00 0.000000e+00 1.000000e+00
    outer loop
      vertex   7.326065e+00 -2.083608e+01 2.000000e+00
      vertex   1.076277e+01 -2.151458e+01 2.000000e+00
      vertex   1.221294e+01 -6.081772e+00 2.000000e+00
    endloop
  endfacet
  facet normal 0.000000e+00 0.000000e+00 1.000000e+00
    outer loop
      vertex   1.030065e+01 -2.438192e+00 2.000000e+00
      vertex   1.109412e+01 -1.542540e+00 2.000000e+00
      vertex   1.146748e+01 1.837508e+01 2.000000e+00
    endloop
  endfacet
  facet normal 0.000000e+00 0.000000e+00 1.000000e+00
    outer loop
      vertex   1.146748e+01 1.837508e+01 2.000000e+00
      vertex   1.109412e+01 -1.542540e+00 2.000000e+00
      vertex   1.221294e+01 -1.118228e+00 2.000000e+00
    endloop
  endfacet
  facet normal 0.000000e+00 0.000000e+00 1.000000e+00
    outer loop
      vertex   1.564521e+01 1.817607e+01 2.000000e+00
      vertex   1.146748e+01 1.837508e+01 2.000000e+00
      vertex   1.221294e+01 -1.118228e+00 2.000000e+00
    endloop
  endfacet
  facet normal -0.000000e+00 0.000000e+00 1.000000e+00
    outer loop
      vertex   1.221294e+01 -1.118228e+00 2.000000e+00
      vertex   1.340080e+01 -1.262459e+00 2.000000e+00
      vertex   1.564521e+01 1.817607e+01 2.000000e+00
    endloop
  endfacet
  facet normal 0.000000e+00 0.000000e+00 1.000000e+00
    outer loop
      vertex   1.340080e+01 -1.262459e+00 2.000000e+00
      vertex   1.970978e+01 1.719002e+01 2.000000e+00
      vertex   1.564521e+01 1.817607e+01 2.000000e+00
    endloop
  endfacet
  facet normal 0.000000e+00 0.000000e+00 1.000000e+00
    outer loop
      vertex   2.351429e+01 1.545256e+01 2.000000e+00
      vertex   1.970978e+01 1.719002e+01 2.000000e+00
      vertex   1.340080e+01 -1.262459e+00 2.000000e+00
    endloop
  endfacet
  facet normal 0.000000e+00 0.000000e+00 1.000000e+00
    outer loop
      vertex   2.351429e+01 1.545256e+01 2.000000e+00
      vertex   1.340080e+01 -1.262459e+00 2.000000e+00
      vertex   1.438556e+01 -1.942193e+00 2.000000e+00
    endloop
  endfacet
  facet normal 0.000000e+00 0.000000e+00 1.000000e+00
    outer loop
      vertex   1.438556e+01 -1.942193e+00 2.000000e+00
      vertex   2.692122e+01 1.302649e+01 2.000000e+00
      vertex   2.351429e+01 1.545256e+01 2.000000e+00
    endloop
  endfacet
  facet normal 0.000000e+00 0.000000e+00 1.000000e+00
    outer loop
      vertex   3.441467e+01 -1.508767e+00 2.000000e+00
      vertex   3.362313e+01 2.598116e+00 2.000000e+00
      vertex   1.494164e+01 -3.001711e+00 2.000000e+00
    endloop
  endfacet
  facet normal 0.000000e+00 0.000000e+00 1.000000e+00
    outer loop
      vertex   1.494164e+01 -3.001711e+00 2.000000e+00
      vertex   3.362313e+01 2.598116e+00 2.000000e+00
      vertex   3.206867e+01 6.480983e+00 2.000000e+00
    endloop
  endfacet
  facet normal -0.000000e+00 0.000000e+00 1.000000e+00
    outer loop
      vertex   1.438556e+01 -1.942193e+00 2.000000e+00
      vertex   1.494164e+01 -3.001711e+00 2.000000e+00
      vertex   3.206867e+01 6.480983e+00 2.000000e+00
    endloop
  endfacet
  facet normal 0.000000e+00 0.000000e+00 1.000000e+00
    outer loop
      vertex   3.206867e+01 6.480983e+00 2.000000e+00
      vertex   2.980745e+01 9.999498e+00 2.000000e+00
      vertex   1.438556e+01 -1.942193e+00 2.000000e+00
    endloop
  endfacet
  facet normal 0.000000e+00 0.000000e+00 1.000000e+00
    outer loop
      vertex   1.438556e+01 -1.942193e+00 2.000000e+00
      vertex   2.980745e+01 9.999498e+00 2.000000e+00
      vertex   2.692122e+01 1.302649e+01 2.000000e+00
    endloop
  endfacet
  facet normal 0.000000e+00 0.000000e+00 1.000000e+00
    outer loop
      vertex   -4.661405e+00 -8.984762e+00 1.000000e+01
      vertex   -8.816545e+00 -8.984762e+00 1.000000e+01
      vertex   -7.909809e+00 -1.177657e+01 1.000000e+01
    endloop
  endfacet
  facet normal 0.000000e+00 -0.000000e+00 1.000000e+00
    outer loop
      vertex   3.362313e+01 -9.798116e+00 1.000000e+01
      vertex   3.384512e+01 -8.984762e+00 1.000000e+01
      vertex   2.968998e+01 -8.984762e+00 1.000000e+01
    endloop
  endfacet
  facet normal 0.000000e+00 0.000000e+00 1.000000e+00
    outer loop
      vertex   3.362313e+01 -9.798116e+00 1.000000e+01
      vertex   2.968998e+01 -8.984762e+00 1.000000e+01
      vertex   2.832174e+01 -1.220954e+01 1.000000e+01
    endloop
  endfacet
  facet normal 0.000000e+00 0.000000e+00 1.000000e+00
    outer loop
      vertex   -3.293173e+00 -1.220954e+01 1.000000e+01
      vertex   -4.661405e+00 -8.984762e+00 1.000000e+01
      vertex   -7.909809e+00 -1.177657e+01 1.000000e+01
    endloop
  endfacet
  facet normal 0.000000e+00 0.000000e+00 1.000000e+00
    outer loop
      vertex   -7.909809e+00 -1.177657e+01 1.000000e+01
      vertex   -5.993292e+00 -1.549410e+01 1.000000e+01
      vertex   -3.293173e+00 -1.220954e+01 1.000000e+01
    endloop
  endfacet
  facet normal 0.000000e+00 0.000000e+00 1.000000e+00
    outer loop
      vertex   -1.326245e+00 -1.510825e+01 1.000000e+01
      vertex   -3.293173e+00 -1.220954e+01 1.000000e+01
      vertex   -5.993292e+00 -1.549410e+01 1.000000e+01
    endloop
  endfacet
  facet normal -0.000000e+00 0.000000e+00 1.000000e+00
    outer loop
      vertex   -5.993292e+00 -1.549410e+01 1.000000e+01
      vertex   -3.407863e+00 -1.878174e+01 1.000000e+01
      vertex   -1.326245e+00 -1.510825e+01 1.000000e+01
    endloop
  endfacet
  facet normal 0.000000e+00 0.000000e+00 1.000000e+00
    outer loop
      vertex   1.164884e+00 -1.757108e+01 1.000000e+01
      vertex   -1.326245e+00 -1.510825e+01 1.000000e+01
      vertex   -3.407863e+00 -1.878174e+01 1.000000e+01
    endloop
  endfacet
  facet normal -0.000000e+00 0.000000e+00 1.000000e+00
    outer loop
      vertex   -3.407863e+00 -1.878174e+01 1.000000e+01
      vertex   -2.469663e-01 -2.152067e+01 1.000000e+01
      vertex   1.164884e+00 -1.757108e+01 1.000000e+01
    endloop
  endfacet
  facet normal 0.000000e+00 0.000000e+00 1.000000e+00
    outer loop
      vertex   4.085864e+00 -1.950477e+01 1.000000e+01
      vertex   1.164884e+00 -1.757108e+01 1.000000e+01
      vertex   -2.469663e-01 -2.152067e+01 1.000000e+01
    endloop
  endfacet
  facet normal -0.000000e+00 0.000000e+00 1.000000e+00
    outer loop
      vertex   -2.469663e-01 -2.152067e+01 1.000000e+01
      vertex   3.375155e+00 -2.361190e+01 1.000000e+01
      vertex   4.085864e+00 -1.950477e+01 1.000000e+01
    endloop
  endfacet
  facet normal 0.000000e+00 0.000000e+00 1.000000e+00
    outer loop
      vertex   7.326065e+00 -2.083608e+01 1.000000e+01
      vertex   4.085864e+00 -1.950477e+01 1.000000e+01
      vertex   3.375155e+00 -2.361190e+01 1.000000e+01
    endloop
  endfacet
  facet normal -0.000000e+00 0.000000e+00 1.000000e+00
    outer loop
      vertex   3.375155e+00 -2.361190e+01 1.000000e+01
      vertex   7.327589e+00 -2.497985e+01 1.000000e+01
      vertex   7.326065e+00 -2.083608e+01 1.000000e+01
    endloop
  endfacet
  facet normal 0.000000e+00 0.000000e+00 1.000000e+00
    outer loop
      vertex   1.076277e+01 -2.151458e+01 1.000000e+01
      vertex   7.326065e+00 -2.083608e+01 1.000000e+01
      vertex   7.327589e+00 -2.497985e+01 1.000000e+01
    endloop
  endfacet
  facet normal -0.000000e+00 0.000000e+00 1.000000e+00
    outer loop
      vertex   7.327589e+00 -2.497985e+01 1.000000e+01
      vertex   1.146748e+01 -2.557508e+01 1.000000e+01
      vertex   1.076277e+01 -2.151458e+01 1.000000e+01
    endloop
  endfacet
  facet normal 0.000000e+00 0.000000e+00 1.000000e+00
    outer loop
      vertex   1.426581e+01 -2.151458e+01 1.000000e+01
      vertex   1.076277e+01 -2.151458e+01 1.000000e+01
      vertex   1.146748e+01 -2.557508e+01 1.000000e+01
    endloop
  endfacet
  facet normal 0.000000e+00 0.000000e+00 1.000000e+00
    outer loop
      vertex   1.146748e+01 -2.557508e+01 1.000000e+01
      vertex   1.564521e+01 -2.537607e+01 1.000000e+01
      vertex   1.426581e+01 -2.151458e+01 1.000000e+01
    endloop
  endfacet
  facet normal 0.000000e+00 0.000000e+00 1.000000e+00
    outer loop
      vertex   1.770251e+01 -2.083608e+01 1.000000e+01
      vertex   1.426581e+01 -2.151458e+01 1.000000e+01
      vertex   1.564521e+01 -2.537607e+01 1.000000e+01
    endloop
  endfacet
  facet normal 0.000000e+00 0.000000e+00 1.000000e+00
    outer loop
      vertex   1.564521e+01 -2.537607e+01 1.000000e+01
      vertex   1.970978e+01 -2.439002e+01 1.000000e+01
      vertex   1.770251e+01 -2.083608e+01 1.000000e+01
    endloop
  endfacet
  facet normal 0.000000e+00 0.000000e+00 1.000000e+00
    outer loop
      vertex   2.094271e+01 -1.950477e+01 1.000000e+01
      vertex   1.770251e+01 -2.083608e+01 1.000000e+01
      vertex   1.970978e+01 -2.439002e+01 1.000000e+01
    endloop
  endfacet
  facet normal 0.000000e+00 0.000000e+00 1.000000e+00
    outer loop
      vertex   1.970978e+01 -2.439002e+01 1.000000e+01
      vertex   2.351429e+01 -2.265256e+01 1.000000e+01
      vertex   2.094271e+01 -1.950477e+01 1.000000e+01
    endloop
  endfacet
  facet normal 0.000000e+00 0.000000e+00 1.000000e+00
    outer loop
      vertex   2.386369e+01 -1.757108e+01 1.000000e+01
      vertex   2.094271e+01 -1.950477e+01 1.000000e+01
      vertex   2.351429e+01 -2.265256e+01 1.000000e+01
    endloop
  endfacet
  facet normal 0.000000e+00 0.000000e+00 1.000000e+00
    outer loop
      vertex   2.351429e+01 -2.265256e+01 1.000000e+01
      vertex   2.692122e+01 -2.022649e+01 1.000000e+01
      vertex   2.386369e+01 -1.757108e+01 1.000000e+01
    endloop
  endfacet
  facet normal 0.000000e+00 0.000000e+00 1.000000e+00
    outer loop
      vertex   2.635482e+01 -1.510825e+01 1.000000e+01
      vertex   2.386369e+01 -1.757108e+01 1.000000e+01
      vertex   2.692122e+01 -2.022649e+01 1.000000e+01
    endloop
  endfacet
  facet normal 0.000000e+00 -0.000000e+00 1.000000e+00
    outer loop
      vertex   2.692122e+01 -2.022649e+01 1.000000e+01
      vertex   2.980745e+01 -1.719950e+01 1.000000e+01
      vertex   2.635482e+01 -1.510825e+01 1.000000e+01
    endloop
  endfacet
  facet normal 0.000000e+00 0.000000e+00 1.000000e+00
    outer loop
      vertex   2.832174e+01 -1.220954e+01 1.000000e+01
      vertex   2.635482e+01 -1.510825e+01 1.000000e+01
      vertex   2.980745e+01 -1.719950e+01 1.000000e+01
    endloop
  endfacet
  facet normal 0.000000e+00 -0.000000e+00 1.000000e+00
    outer loop
      vertex   2.980745e+01 -1.719950e+01 1.000000e+01
      vertex   3.206867e+01 -1.368098e+01 1.000000e+01
      vertex   2.832174e+01 -1.220954e+01 1.000000e+01
    endloop
  endfacet
  facet normal -0.000000e+00 0.000000e+00 1.000000e+00
    outer loop
      vertex   2.832174e+01 -1.220954e+01 1.000000e+01
      vertex   3.206867e+01 -1.368098e+01 1.000000e+01
      vertex   3.362313e+01 -9.798116e+00 1.000000e+01
    endloop
  endfacet
  facet normal -9.205672e-01 3.905843e-01 -9.089961e-17
    outer loop
      vertex   2.832174e+01 -1.220954e+01 1.000000e+01
      vertex   2.968998e+01 -8.984762e+00 1.000000e+01
      vertex   2.968998e+01 -8.984762e+00 2.000000e+00
    endloop
  endfacet
  facet normal -9.205672e-01 3.905843e-01 3.029987e-17
    outer loop
      vertex   2.968998e+01 -8.984762e+00 2.000000e+00
      vertex   2.832174e+01 -1.220954e+01 2.000000e+00
      vertex   2.832174e+01 -1.220954e+01 1.000000e+01
    endloop
  endfacet
  facet normal -8.274821e-01 5.614921e-01 -3.029987e-17
    outer loop
      vertex   2.635482e+01 -1.510825e+01 1.000000e+01
      vertex   2.832174e+01 -1.220954e+01 1.000000e+01
      vertex   2.832174e+01 -1.220954e+01 2.000000e+00
    endloop
  endfacet
  facet normal -8.274821e-01 5.614921e-01 -3.029987e-17
    outer loop
      vertex   2.832174e+01 -1.220954e+01 2.000000e+00
      vertex   2.635482e+01 -1.510825e+01 2.000000e+00
      vertex   2.635482e+01 -1.510825e+01 1.000000e+01
    endloop
  endfacet
  facet normal -7.030567e-01 7.111338e-01 3.029987e-17
    outer loop
      vertex   2.386369e+01 -1.757108e+01 1.000000e+01
      vertex   2.635482e+01 -1.510825e+01 1.000000e+01
      vertex   2.635482e+01 -1.510825e+01 2.000000e+00
    endloop
  endfacet
  facet normal -7.030567e-01 7.111338e-01 3.029987e-17
    outer loop
      vertex   2.635482e+01 -1.510825e+01 2.000000e+00
      vertex   2.386369e+01 -1.757108e+01 2.000000e+00
      vertex   2.386369e+01 -1.757108e+01 1.000000e+01
    endloop
  endfacet
  facet normal -5.520035e-01 8.338418e-01 0.000000e+00
    outer loop
      vertex   2.094271e+01 -1.950477e+01 1.000000e+01
      vertex   2.386369e+01 -1.757108e+01 1.000000e+01
      vertex   2.386369e+01 -1.757108e+01 2.000000e+00
    endloop
  endfacet
  facet normal -5.520035e-01 8.338418e-01 0.000000e+00
    outer loop
      vertex   2.386369e+01 -1.757108e+01 2.000000e+00
      vertex   2.094271e+01 -1.950477e+01 2.000000e+00
      vertex   2.094271e+01 -1.950477e+01 1.000000e+01
    endloop
  endfacet
  facet normal -3.800436e-01 9.249686e-01 0.000000e+00
    outer loop
      vertex   1.770251e+01 -2.083608e+01 1.000000e+01
      vertex   2.094271e+01 -1.950477e+01 1.000000e+01
      vertex   2.094271e+01 -1.950477e+01 2.000000e+00
    endloop
  endfacet
  facet normal -3.800436e-01 9.249686e-01 0.000000e+00
    outer loop
      vertex   2.094271e+01 -1.950477e+01 2.000000e+00
      vertex   1.770251e+01 -2.083608e+01 2.000000e+00
      vertex   1.770251e+01 -2.083608e+01 1.000000e+01
    endloop
  endfacet
  facet normal -1.936897e-01 9.810628e-01 1.514994e-17
    outer loop
      vertex   1.426581e+01 -2.151458e+01 1.000000e+01
      vertex   1.770251e+01 -2.083608e+01 1.000000e+01
      vertex   1.770251e+01 -2.083608e+01 2.000000e+00
    endloop
  endfacet
  facet normal -1.936897e-01 9.810628e-01 1.514994e-17
    outer loop
      vertex   1.770251e+01 -2.083608e+01 2.000000e+00
      vertex   1.426581e+01 -2.151458e+01 2.000000e+00
      vertex   1.426581e+01 -2.151458e+01 1.000000e+01
    endloop
  endfacet
  facet normal -9.904107e-16 1.000000e+00 0.000000e+00
    outer loop
      vertex   1.076277e+01 -2.151458e+01 1.000000e+01
      vertex   1.426581e+01 -2.151458e+01 1.000000e+01
      vertex   1.426581e+01 -2.151458e+01 2.000000e+00
    endloop
  endfacet
  facet normal -9.904107e-16 1.000000e+00 0.000000e+00
    outer loop
      vertex   1.426581e+01 -2.151458e+01 2.000000e+00
      vertex   1.076277e+01 -2.151458e+01 2.000000e+00
      vertex   1.076277e+01 -2.151458e+01 1.000000e+01
    endloop
  endfacet
  facet normal 1.936897e-01 9.810628e-01 -1.514994e-17
    outer loop
      vertex   7.326065e+00 -2.083608e+01 1.000000e+01
      vertex   1.076277e+01 -2.151458e+01 1.000000e+01
      vertex   1.076277e+01 -2.151458e+01 2.000000e+00
    endloop
  endfacet
  facet normal 1.936897e-01 9.810628e-01 -1.514994e-17
    outer loop
      vertex   1.076277e+01 -2.151458e+01 2.000000e+00
      vertex   7.326065e+00 -2.083608e+01 2.000000e+00
      vertex   7.326065e+00 -2.083608e+01 1.000000e+01
    endloop
  endfacet
  facet normal 3.800436e-01 9.249686e-01 -3.029987e-17
    outer loop
      vertex   4.085864e+00 -1.950477e+01 1.000000e+01
      vertex   7.326065e+00 -2.083608e+01 1.000000e+01
      vertex   7.326065e+00 -2.083608e+01 2.000000e+00
    endloop
  endfacet
  facet normal 3.800436e-01 9.249686e-01 -3.029987e-17
    outer loop
      vertex   7.326065e+00 -2.083608e+01 2.000000e+00
      vertex   4.085864e+00 -1.950477e+01 2.000000e+00
      vertex   4.085864e+00 -1.950477e+01 1.000000e+01
    endloop
  endfacet
  facet normal 5.520035e-01 8.338418e-01 0.000000e+00
    outer loop
      vertex   1.164884e+00 -1.757108e+01 1.000000e+01
      vertex   4.085864e+00 -1.950477e+01 1.000000e+01
      vertex   4.085864e+00 -1.950477e+01 2.000000e+00
    endloop
  endfacet
  facet normal 5.520035e-01 8.338418e-01 0.000000e+00
    outer loop
      vertex   4.085864e+00 -1.950477e+01 2.000000e+00
      vertex   1.164884e+00 -1.757108e+01 2.000000e+00
      vertex   1.164884e+00 -1.757108e+01 1.000000e+01
    endloop
  endfacet
  facet normal 7.030567e-01 7.111338e-01 0.000000e+00
    outer loop
      vertex   -1.326245e+00 -1.510825e+01 1.000000e+01
      vertex   1.164884e+00 -1.757108e+01 1.000000e+01
      vertex   1.164884e+00 -1.757108e+01 2.000000e+00
    endloop
  endfacet
  facet normal 7.030567e-01 7.111338e-01 0.000000e+00
    outer loop
      vertex   1.164884e+00 -1.757108e+01 2.000000e+00
      vertex   -1.326245e+00 -1.510825e+01 2.000000e+00
      vertex   -1.326245e+00 -1.510825e+01 1.000000e+01
    endloop
  endfacet
  facet normal 8.274821e-01 5.614921e-01 0.000000e+00
    outer loop
      vertex   -3.293173e+00 -1.220954e+01 1.000000e+01
      vertex   -1.326245e+00 -1.510825e+01 1.000000e+01
      vertex   -1.326245e+00 -1.510825e+01 2.000000e+00
    endloop
  endfacet
  facet normal 8.274821e-01 5.614921e-01 0.000000e+00
    outer loop
      vertex   -1.326245e+00 -1.510825e+01 2.000000e+00
      vertex   -3.293173e+00 -1.220954e+01 2.000000e+00
      vertex   -3.293173e+00 -1.220954e+01 1.000000e+01
    endloop
  endfacet
  facet normal 9.205672e-01 3.905843e-01 0.000000e+00
    outer loop
      vertex   -4.661405e+00 -8.984762e+00 1.000000e+01
      vertex   -3.293173e+00 -1.220954e+01 1.000000e+01
      vertex   -3.293173e+00 -1.220954e+01 2.000000e+00
    endloop
  endfacet
  facet normal 9.205672e-01 3.905843e-01 -6.059974e-16
    outer loop
      vertex   -3.293173e+00 -1.220954e+01 2.000000e+00
      vertex   -4.661405e+00 -8.984762e+00 2.000000e+00
      vertex   -4.661405e+00 -8.984762e+00 1.000000e+01
    endloop
  endfacet
  facet normal -3.339909e-15 1.000000e+00 2.172682e-30
    outer loop
      vertex   -4.661405e+00 -8.984762e+00 1.000000e+01
      vertex   -4.661405e+00 -8.984762e+00 2.000000e+00
      vertex   -8.816545e+00 -8.984762e+00 2.000000e+00
    endloop
  endfacet
  facet normal -3.339909e-15 1.000000e+00 0.000000e+00
    outer loop
      vertex   -8.816545e+00 -8.984762e+00 2.000000e+00
      vertex   -8.816545e+00 -8.984762e+00 1.000000e+01
      vertex   -4.661405e+00 -8.984762e+00 1.000000e+01
    endloop
  endfacet
  facet normal -2.504931e-15 1.000000e+00 0.000000e+00
    outer loop
      vertex   3.384512e+01 -8.984762e+00 1.000000e+01
      vertex   3.384512e+01 -8.984762e+00 2.000000e+00
      vertex   2.968998e+01 -8.984762e+00 2.000000e+00
    endloop
  endfacet
  facet normal -2.087443e-15 1.000000e+00 -2.168404e-16
    outer loop
      vertex   2.968998e+01 -8.984762e+00 2.000000e+00
      vertex   2.968998e+01 -8.984762e+00 1.000000e+01
      vertex   3.384512e+01 -8.984762e+00 1.000000e+01
    endloop
  endfacet
endsolid
