solid ascii
  facet normal -9.898214e-01 -2.704881e-17 1.423148e-01
    outer loop
      vertex   3.761128e+01 0.000000e+00 -7.955268e+00
      vertex   3.820651e+01 0.000000e+00 -3.815374e+00
      vertex   3.820651e+01 2.500000e+00 -3.815374e+00
    endloop
  endfacet
  facet normal -9.997168e-01 0.000000e+00 2.379770e-02
    outer loop
      vertex   3.820651e+01 2.500000e+00 -3.815374e+00
      vertex   3.820651e+01 0.000000e+00 -3.815374e+00
      vertex   3.823143e+01 0.000000e+00 -2.768571e+00
    endloop
  endfacet
  facet normal -9.984217e-01 -2.986634e-02 -4.756069e-02
    outer loop
      vertex   3.800750e+01 2.500000e+00 3.623550e-01
      vertex   3.820651e+01 2.500000e+00 -3.815374e+00
      vertex   3.823143e+01 0.000000e+00 -2.768571e+00
    endloop
  endfacet
  facet normal -9.974521e-01 1.113785e-17 -7.133918e-02
    outer loop
      vertex   3.823143e+01 0.000000e+00 -2.768571e+00
      vertex   3.800750e+01 0.000000e+00 3.623550e-01
      vertex   3.800750e+01 2.500000e+00 3.623550e-01
    endloop
  endfacet
  facet normal -9.718116e-01 0.000000e+00 -2.357589e-01
    outer loop
      vertex   3.702145e+01 2.500000e+00 4.426924e+00
      vertex   3.800750e+01 2.500000e+00 3.623550e-01
      vertex   3.800750e+01 0.000000e+00 3.623550e-01
    endloop
  endfacet
  facet normal -9.718116e-01 0.000000e+00 -2.357589e-01
    outer loop
      vertex   3.800750e+01 0.000000e+00 3.623550e-01
      vertex   3.702145e+01 0.000000e+00 4.426924e+00
      vertex   3.702145e+01 2.500000e+00 4.426924e+00
    endloop
  endfacet
  facet normal -9.096320e-01 0.000000e+00 -4.154150e-01
    outer loop
      vertex   3.528399e+01 2.500000e+00 8.231429e+00
      vertex   3.702145e+01 2.500000e+00 4.426924e+00
      vertex   3.702145e+01 0.000000e+00 4.426924e+00
    endloop
  endfacet
  facet normal -9.096320e-01 0.000000e+00 -4.154150e-01
    outer loop
      vertex   3.702145e+01 0.000000e+00 4.426924e+00
      vertex   3.528399e+01 0.000000e+00 8.231429e+00
      vertex   3.528399e+01 2.500000e+00 8.231429e+00
    endloop
  endfacet
  facet normal -8.145760e-01 -2.163905e-16 -5.800569e-01
    outer loop
      vertex   3.285792e+01 2.500000e+00 1.163836e+01
      vertex   3.528399e+01 2.500000e+00 8.231429e+00
      vertex   3.528399e+01 0.000000e+00 8.231429e+00
    endloop
  endfacet
  facet normal -8.145760e-01 -2.163905e-16 -5.800569e-01
    outer loop
      vertex   3.528399e+01 0.000000e+00 8.231429e+00
      vertex   3.285792e+01 0.000000e+00 1.163836e+01
      vertex   3.285792e+01 2.500000e+00 1.163836e+01
    endloop
  endfacet
  facet normal -6.900790e-01 0.000000e+00 -7.237340e-01
    outer loop
      vertex   2.983093e+01 2.500000e+00 1.452460e+01
      vertex   3.285792e+01 2.500000e+00 1.163836e+01
      vertex   3.285792e+01 0.000000e+00 1.163836e+01
    endloop
  endfacet
  facet normal -6.900790e-01 0.000000e+00 -7.237340e-01
    outer loop
      vertex   3.285792e+01 0.000000e+00 1.163836e+01
      vertex   2.983093e+01 0.000000e+00 1.452460e+01
      vertex   2.983093e+01 2.500000e+00 1.452460e+01
    endloop
  endfacet
  facet normal -5.406408e-01 -1.081953e-16 -8.412535e-01
    outer loop
      vertex   2.631241e+01 2.500000e+00 1.678581e+01
      vertex   2.983093e+01 2.500000e+00 1.452460e+01
      vertex   2.983093e+01 0.000000e+00 1.452460e+01
    endloop
  endfacet
  facet normal -5.406408e-01 -1.081953e-16 -8.412535e-01
    outer loop
      vertex   2.983093e+01 0.000000e+00 1.452460e+01
      vertex   2.631241e+01 0.000000e+00 1.678581e+01
      vertex   2.631241e+01 2.500000e+00 1.678581e+01
    endloop
  endfacet
  facet normal -3.716625e-01 0.000000e+00 -9.283679e-01
    outer loop
      vertex   2.242954e+01 2.500000e+00 1.834027e+01
      vertex   2.631241e+01 2.500000e+00 1.678581e+01
      vertex   2.631241e+01 0.000000e+00 1.678581e+01
    endloop
  endfacet
  facet normal -3.716625e-01 0.000000e+00 -9.283679e-01
    outer loop
      vertex   2.631241e+01 0.000000e+00 1.678581e+01
      vertex   2.242954e+01 0.000000e+00 1.834027e+01
      vertex   2.242954e+01 2.500000e+00 1.834027e+01
    endloop
  endfacet
  facet normal -1.892512e-01 0.000000e+00 -9.819287e-01
    outer loop
      vertex   1.832266e+01 2.500000e+00 1.913181e+01
      vertex   2.242954e+01 2.500000e+00 1.834027e+01
      vertex   2.242954e+01 0.000000e+00 1.834027e+01
    endloop
  endfacet
  facet normal -1.892512e-01 0.000000e+00 -9.819287e-01
    outer loop
      vertex   2.242954e+01 0.000000e+00 1.834027e+01
      vertex   1.832266e+01 0.000000e+00 1.913181e+01
      vertex   1.832266e+01 2.500000e+00 1.913181e+01
    endloop
  endfacet
  facet normal 0.000000e+00 0.000000e+00 -1.000000e+00
    outer loop
      vertex   1.414020e+01 2.500000e+00 1.913181e+01
      vertex   1.832266e+01 2.500000e+00 1.913181e+01
      vertex   1.832266e+01 0.000000e+00 1.913181e+01
    endloop
  endfacet
  facet normal 0.000000e+00 0.000000e+00 -1.000000e+00
    outer loop
      vertex   1.832266e+01 0.000000e+00 1.913181e+01
      vertex   1.414020e+01 0.000000e+00 1.913181e+01
      vertex   1.414020e+01 2.500000e+00 1.913181e+01
    endloop
  endfacet
  facet normal 1.892512e-01 0.000000e+00 -9.819287e-01
    outer loop
      vertex   1.003331e+01 2.500000e+00 1.834027e+01
      vertex   1.414020e+01 2.500000e+00 1.913181e+01
      vertex   1.414020e+01 0.000000e+00 1.913181e+01
    endloop
  endfacet
  facet normal 1.892512e-01 0.000000e+00 -9.819287e-01
    outer loop
      vertex   1.414020e+01 0.000000e+00 1.913181e+01
      vertex   1.003331e+01 0.000000e+00 1.834027e+01
      vertex   1.003331e+01 2.500000e+00 1.834027e+01
    endloop
  endfacet
  facet normal 3.716625e-01 -1.081953e-16 -9.283679e-01
    outer loop
      vertex   6.150445e+00 2.500000e+00 1.678581e+01
      vertex   1.003331e+01 2.500000e+00 1.834027e+01
      vertex   1.003331e+01 0.000000e+00 1.834027e+01
    endloop
  endfacet
  facet normal 3.716625e-01 -1.081953e-16 -9.283679e-01
    outer loop
      vertex   1.003331e+01 0.000000e+00 1.834027e+01
      vertex   6.150445e+00 0.000000e+00 1.678581e+01
      vertex   6.150445e+00 2.500000e+00 1.678581e+01
    endloop
  endfacet
  facet normal 5.406408e-01 0.000000e+00 -8.412535e-01
    outer loop
      vertex   2.631931e+00 2.500000e+00 1.452460e+01
      vertex   6.150445e+00 2.500000e+00 1.678581e+01
      vertex   6.150445e+00 0.000000e+00 1.678581e+01
    endloop
  endfacet
  facet normal 5.406408e-01 0.000000e+00 -8.412535e-01
    outer loop
      vertex   6.150445e+00 0.000000e+00 1.678581e+01
      vertex   2.631931e+00 0.000000e+00 1.452460e+01
      vertex   2.631931e+00 2.500000e+00 1.452460e+01
    endloop
  endfacet
  facet normal 6.900790e-01 -1.081953e-16 -7.237340e-01
    outer loop
      vertex   -3.950622e-01 2.500000e+00 1.163836e+01
      vertex   2.631931e+00 2.500000e+00 1.452460e+01
      vertex   2.631931e+00 0.000000e+00 1.452460e+01
    endloop
  endfacet
  facet normal 6.900790e-01 -1.081953e-16 -7.237340e-01
    outer loop
      vertex   2.631931e+00 0.000000e+00 1.452460e+01
      vertex   -3.950622e-01 0.000000e+00 1.163836e+01
      vertex   -3.950622e-01 2.500000e+00 1.163836e+01
    endloop
  endfacet
  facet normal 8.145760e-01 -1.081953e-16 -5.800569e-01
    outer loop
      vertex   -2.821130e+00 2.500000e+00 8.231429e+00
      vertex   -3.950622e-01 2.500000e+00 1.163836e+01
      vertex   -3.950622e-01 0.000000e+00 1.163836e+01
    endloop
  endfacet
  facet normal 8.145760e-01 -1.081953e-16 -5.800569e-01
    outer loop
      vertex   -3.950622e-01 0.000000e+00 1.163836e+01
      vertex   -2.821130e+00 0.000000e+00 8.231429e+00
      vertex   -2.821130e+00 2.500000e+00 8.231429e+00
    endloop
  endfacet
  facet normal 9.096320e-01 0.000000e+00 -4.154150e-01
    outer loop
      vertex   -4.558590e+00 2.500000e+00 4.426924e+00
      vertex   -2.821130e+00 2.500000e+00 8.231429e+00
      vertex   -2.821130e+00 0.000000e+00 8.231429e+00
    endloop
  endfacet
  facet normal 9.096320e-01 0.000000e+00 -4.154150e-01
    outer loop
      vertex   -2.821130e+00 0.000000e+00 8.231429e+00
      vertex   -4.558590e+00 0.000000e+00 4.426924e+00
      vertex   -4.558590e+00 2.500000e+00 4.426924e+00
    endloop
  endfacet
  facet normal 9.718116e-01 -5.409763e-17 -2.357589e-01
    outer loop
      vertex   -5.544643e+00 2.500000e+00 3.623550e-01
      vertex   -4.558590e+00 2.500000e+00 4.426924e+00
      vertex   -4.558590e+00 0.000000e+00 4.426924e+00
    endloop
  endfacet
  facet normal 9.718116e-01 -5.409763e-17 -2.357589e-01
    outer loop
      vertex   -4.558590e+00 0.000000e+00 4.426924e+00
      vertex   -5.544643e+00 0.000000e+00 3.623550e-01
      vertex   -5.544643e+00 2.500000e+00 3.623550e-01
    endloop
  endfacet
  facet normal 9.988673e-01 0.000000e+00 -4.758192e-02
    outer loop
      vertex   -5.743653e+00 2.500000e+00 -3.815374e+00
      vertex   -5.544643e+00 2.500000e+00 3.623550e-01
      vertex   -5.544643e+00 0.000000e+00 3.623550e-01
    endloop
  endfacet
  facet normal 9.988673e-01 0.000000e+00 -4.758192e-02
    outer loop
      vertex   -5.544643e+00 0.000000e+00 3.623550e-01
      vertex   -5.743653e+00 0.000000e+00 -3.815374e+00
      vertex   -5.743653e+00 2.500000e+00 -3.815374e+00
    endloop
  endfacet
  facet normal 9.898214e-01 0.000000e+00 1.423148e-01
    outer loop
      vertex   -5.148426e+00 2.500000e+00 -7.955268e+00
      vertex   -5.743653e+00 2.500000e+00 -3.815374e+00
      vertex   -5.743653e+00 0.000000e+00 -3.815374e+00
    endloop
  endfacet
  facet normal 9.898214e-01 0.000000e+00 1.423148e-01
    outer loop
      vertex   -5.743653e+00 0.000000e+00 -3.815374e+00
      vertex   -5.148426e+00 0.000000e+00 -7.955268e+00
      vertex   -5.148426e+00 2.500000e+00 -7.955268e+00
    endloop
  endfacet
  facet normal 9.450008e-01 1.081953e-16 3.270680e-01
    outer loop
      vertex   -3.780475e+00 2.500000e+00 -1.190770e+01
      vertex   -5.148426e+00 2.500000e+00 -7.955268e+00
      vertex   -5.148426e+00 0.000000e+00 -7.955268e+00
    endloop
  endfacet
  facet normal 9.450008e-01 1.081953e-16 3.270680e-01
    outer loop
      vertex   -5.148426e+00 0.000000e+00 -7.955268e+00
      vertex   -3.780475e+00 0.000000e+00 -1.190770e+01
      vertex   -3.780475e+00 2.500000e+00 -1.190770e+01
    endloop
  endfacet
  facet normal 8.660254e-01 0.000000e+00 5.000000e-01
    outer loop
      vertex   -1.689242e+00 2.500000e+00 -1.552982e+01
      vertex   -3.780475e+00 2.500000e+00 -1.190770e+01
      vertex   -3.780475e+00 0.000000e+00 -1.190770e+01
    endloop
  endfacet
  facet normal 8.660254e-01 0.000000e+00 5.000000e-01
    outer loop
      vertex   -3.780475e+00 0.000000e+00 -1.190770e+01
      vertex   -1.689242e+00 0.000000e+00 -1.552982e+01
      vertex   -1.689242e+00 2.500000e+00 -1.552982e+01
    endloop
  endfacet
  facet normal 7.557496e-01 0.000000e+00 6.548607e-01
    outer loop
      vertex   1.049690e+00 2.500000e+00 -1.869072e+01
      vertex   -1.689242e+00 2.500000e+00 -1.552982e+01
      vertex   -1.689242e+00 0.000000e+00 -1.552982e+01
    endloop
  endfacet
  facet normal 7.557496e-01 0.000000e+00 6.548607e-01
    outer loop
      vertex   -1.689242e+00 0.000000e+00 -1.552982e+01
      vertex   1.049690e+00 0.000000e+00 -1.869072e+01
      vertex   1.049690e+00 2.500000e+00 -1.869072e+01
    endloop
  endfacet
  facet normal 6.181590e-01 2.163905e-16 7.860531e-01
    outer loop
      vertex   4.337331e+00 2.500000e+00 -2.127615e+01
      vertex   1.049690e+00 2.500000e+00 -1.869072e+01
      vertex   1.049690e+00 0.000000e+00 -1.869072e+01
    endloop
  endfacet
  facet normal 6.181590e-01 2.163905e-16 7.860531e-01
    outer loop
      vertex   1.049690e+00 0.000000e+00 -1.869072e+01
      vertex   4.337331e+00 0.000000e+00 -2.127615e+01
      vertex   4.337331e+00 2.500000e+00 -2.127615e+01
    endloop
  endfacet
  facet normal 4.582265e-01 0.000000e+00 8.888354e-01
    outer loop
      vertex   8.054854e+00 2.500000e+00 -2.319267e+01
      vertex   4.337331e+00 2.500000e+00 -2.127615e+01
      vertex   4.337331e+00 0.000000e+00 -2.127615e+01
    endloop
  endfacet
  facet normal 4.582265e-01 0.000000e+00 8.888354e-01
    outer loop
      vertex   4.337331e+00 0.000000e+00 -2.127615e+01
      vertex   8.054854e+00 0.000000e+00 -2.319267e+01
      vertex   8.054854e+00 2.500000e+00 -2.319267e+01
    endloop
  endfacet
  facet normal 2.817326e-01 -5.409763e-17 9.594930e-01
    outer loop
      vertex   1.206790e+01 2.500000e+00 -2.437100e+01
      vertex   8.054854e+00 2.500000e+00 -2.319267e+01
      vertex   8.054854e+00 0.000000e+00 -2.319267e+01
    endloop
  endfacet
  facet normal 2.817326e-01 -5.409763e-17 9.594930e-01
    outer loop
      vertex   8.054854e+00 0.000000e+00 -2.319267e+01
      vertex   1.206790e+01 0.000000e+00 -2.437100e+01
      vertex   1.206790e+01 2.500000e+00 -2.437100e+01
    endloop
  endfacet
  facet normal 9.505604e-02 0.000000e+00 9.954719e-01
    outer loop
      vertex   1.623143e+01 2.500000e+00 -2.476857e+01
      vertex   1.206790e+01 2.500000e+00 -2.437100e+01
      vertex   1.206790e+01 0.000000e+00 -2.437100e+01
    endloop
  endfacet
  facet normal 9.505604e-02 0.000000e+00 9.954719e-01
    outer loop
      vertex   1.206790e+01 0.000000e+00 -2.437100e+01
      vertex   1.623143e+01 0.000000e+00 -2.476857e+01
      vertex   1.623143e+01 2.500000e+00 -2.476857e+01
    endloop
  endfacet
  facet normal -9.505604e-02 0.000000e+00 9.954719e-01
    outer loop
      vertex   2.039496e+01 2.500000e+00 -2.437100e+01
      vertex   1.623143e+01 2.500000e+00 -2.476857e+01
      vertex   1.623143e+01 0.000000e+00 -2.476857e+01
    endloop
  endfacet
  facet normal -9.505604e-02 0.000000e+00 9.954719e-01
    outer loop
      vertex   1.623143e+01 0.000000e+00 -2.476857e+01
      vertex   2.039496e+01 0.000000e+00 -2.437100e+01
      vertex   2.039496e+01 2.500000e+00 -2.437100e+01
    endloop
  endfacet
  facet normal -2.817326e-01 -5.409763e-17 9.594930e-01
    outer loop
      vertex   2.440800e+01 2.500000e+00 -2.319267e+01
      vertex   2.039496e+01 2.500000e+00 -2.437100e+01
      vertex   2.039496e+01 0.000000e+00 -2.437100e+01
    endloop
  endfacet
  facet normal -2.817326e-01 -5.409763e-17 9.594930e-01
    outer loop
      vertex   2.039496e+01 0.000000e+00 -2.437100e+01
      vertex   2.440800e+01 0.000000e+00 -2.319267e+01
      vertex   2.440800e+01 2.500000e+00 -2.319267e+01
    endloop
  endfacet
  facet normal -4.582265e-01 -1.081953e-16 8.888354e-01
    outer loop
      vertex   2.812553e+01 2.500000e+00 -2.127615e+01
      vertex   2.440800e+01 2.500000e+00 -2.319267e+01
      vertex   2.440800e+01 0.000000e+00 -2.319267e+01
    endloop
  endfacet
  facet normal -4.582265e-01 -1.081953e-16 8.888354e-01
    outer loop
      vertex   2.440800e+01 0.000000e+00 -2.319267e+01
      vertex   2.812553e+01 0.000000e+00 -2.127615e+01
      vertex   2.812553e+01 2.500000e+00 -2.127615e+01
    endloop
  endfacet
  facet normal -6.181590e-01 -1.081953e-16 7.860531e-01
    outer loop
      vertex   3.141317e+01 2.500000e+00 -1.869072e+01
      vertex   2.812553e+01 2.500000e+00 -2.127615e+01
      vertex   2.812553e+01 0.000000e+00 -2.127615e+01
    endloop
  endfacet
  facet normal -6.181590e-01 -1.081953e-16 7.860531e-01
    outer loop
      vertex   2.812553e+01 0.000000e+00 -2.127615e+01
      vertex   3.141317e+01 0.000000e+00 -1.869072e+01
      vertex   3.141317e+01 2.500000e+00 -1.869072e+01
    endloop
  endfacet
  facet normal -7.557496e-01 -1.081953e-16 6.548607e-01
    outer loop
      vertex   3.415210e+01 2.500000e+00 -1.552982e+01
      vertex   3.141317e+01 2.500000e+00 -1.869072e+01
      vertex   3.141317e+01 0.000000e+00 -1.869072e+01
    endloop
  endfacet
  facet normal -7.557496e-01 -1.081953e-16 6.548607e-01
    outer loop
      vertex   3.141317e+01 0.000000e+00 -1.869072e+01
      vertex   3.415210e+01 0.000000e+00 -1.552982e+01
      vertex   3.415210e+01 2.500000e+00 -1.552982e+01
    endloop
  endfacet
  facet normal -8.660254e-01 0.000000e+00 5.000000e-01
    outer loop
      vertex   3.624333e+01 2.500000e+00 -1.190770e+01
      vertex   3.415210e+01 2.500000e+00 -1.552982e+01
      vertex   3.415210e+01 0.000000e+00 -1.552982e+01
    endloop
  endfacet
  facet normal -8.660254e-01 0.000000e+00 5.000000e-01
    outer loop
      vertex   3.415210e+01 0.000000e+00 -1.552982e+01
      vertex   3.624333e+01 0.000000e+00 -1.190770e+01
      vertex   3.624333e+01 2.500000e+00 -1.190770e+01
    endloop
  endfacet
  facet normal -9.450008e-01 -1.081953e-16 3.270680e-01
    outer loop
      vertex   3.761128e+01 2.500000e+00 -7.955268e+00
      vertex   3.624333e+01 2.500000e+00 -1.190770e+01
      vertex   3.624333e+01 0.000000e+00 -1.190770e+01
    endloop
  endfacet
  facet normal -9.450008e-01 -1.081953e-16 3.270680e-01
    outer loop
      vertex   3.624333e+01 0.000000e+00 -1.190770e+01
      vertex   3.761128e+01 0.000000e+00 -7.955268e+00
      vertex   3.761128e+01 2.500000e+00 -7.955268e+00
    endloop
  endfacet
  facet normal -9.898214e-01 -2.704881e-17 1.423148e-01
    outer loop
      vertex   3.820651e+01 2.500000e+00 -3.815374e+00
      vertex   3.761128e+01 2.500000e+00 -7.955268e+00
      vertex   3.761128e+01 0.000000e+00 -7.955268e+00
    endloop
  endfacet
  facet normal 2.485488e-17 1.000000e+00 -6.208448e-17
    outer loop
      vertex   -4.263919e+01 2.500000e+00 2.519472e+01
      vertex   1.003331e+01 2.500000e+00 1.834027e+01
      vertex   6.150445e+00 2.500000e+00 1.678581e+01
    endloop
  endfacet
  facet normal 3.612803e-17 1.000000e+00 2.085853e-17
    outer loop
      vertex   -3.780475e+00 2.500000e+00 -1.190770e+01
      vertex   -1.689242e+00 2.500000e+00 -1.552982e+01
      vertex   -4.263919e+01 2.500000e+00 -2.776857e+01
    endloop
  endfacet
  facet normal 3.911597e-17 1.000000e+00 1.353817e-17
    outer loop
      vertex   -4.263919e+01 2.500000e+00 -2.776857e+01
      vertex   -5.148426e+00 2.500000e+00 -7.955268e+00
      vertex   -3.780475e+00 2.500000e+00 -1.190770e+01
    endloop
  endfacet
  facet normal 3.364809e-17 1.000000e+00 2.915624e-17
    outer loop
      vertex   -4.263919e+01 2.500000e+00 -2.776857e+01
      vertex   -1.689242e+00 2.500000e+00 -1.552982e+01
      vertex   1.049690e+00 2.500000e+00 -1.869072e+01
    endloop
  endfacet
  facet normal 3.140777e-17 1.000000e+00 3.993822e-17
    outer loop
      vertex   1.049690e+00 2.500000e+00 -1.869072e+01
      vertex   4.337331e+00 2.500000e+00 -2.127615e+01
      vertex   -4.263919e+01 2.500000e+00 -2.776857e+01
    endloop
  endfacet
  facet normal 2.912073e-17 1.000000e+00 5.648633e-17
    outer loop
      vertex   -4.263919e+01 2.500000e+00 -2.776857e+01
      vertex   4.337331e+00 2.500000e+00 -2.127615e+01
      vertex   8.054854e+00 2.500000e+00 -2.319267e+01
    endloop
  endfacet
  facet normal -2.912073e-17 1.000000e+00 5.648633e-17
    outer loop
      vertex   7.510205e+01 2.500000e+00 -2.776857e+01
      vertex   2.440800e+01 2.500000e+00 -2.319267e+01
      vertex   2.812553e+01 2.500000e+00 -2.127615e+01
    endloop
  endfacet
  facet normal -2.485488e-17 1.000000e+00 -6.208448e-17
    outer loop
      vertex   7.510205e+01 2.500000e+00 2.519472e+01
      vertex   2.631241e+01 2.500000e+00 1.678581e+01
      vertex   2.242954e+01 2.500000e+00 1.834027e+01
    endloop
  endfacet
  facet normal -1.965987e-17 1.000000e+00 -1.020051e-16
    outer loop
      vertex   2.242954e+01 2.500000e+00 1.834027e+01
      vertex   1.832266e+01 2.500000e+00 1.913181e+01
      vertex   7.510205e+01 2.500000e+00 2.519472e+01
    endloop
  endfacet
  facet normal 5.058617e-32 1.000000e+00 -2.861205e-16
    outer loop
      vertex   -4.263919e+01 2.500000e+00 2.519472e+01
      vertex   7.510205e+01 2.500000e+00 2.519472e+01
      vertex   1.832266e+01 2.500000e+00 1.913181e+01
    endloop
  endfacet
  facet normal 0.000000e+00 1.000000e+00 -2.861205e-16
    outer loop
      vertex   1.832266e+01 2.500000e+00 1.913181e+01
      vertex   1.414020e+01 2.500000e+00 1.913181e+01
      vertex   -4.263919e+01 2.500000e+00 2.519472e+01
    endloop
  endfacet
  facet normal 1.965987e-17 1.000000e+00 -1.020051e-16
    outer loop
      vertex   1.414020e+01 2.500000e+00 1.913181e+01
      vertex   1.003331e+01 2.500000e+00 1.834027e+01
      vertex   -4.263919e+01 2.500000e+00 2.519472e+01
    endloop
  endfacet
  facet normal 2.803631e-17 1.000000e+00 -4.362536e-17
    outer loop
      vertex   -4.263919e+01 2.500000e+00 2.519472e+01
      vertex   6.150445e+00 2.500000e+00 1.678581e+01
      vertex   2.631931e+00 2.500000e+00 1.452460e+01
    endloop
  endfacet
  facet normal 3.072394e-17 1.000000e+00 -3.222234e-17
    outer loop
      vertex   2.631931e+00 2.500000e+00 1.452460e+01
      vertex   -3.950622e-01 2.500000e+00 1.163836e+01
      vertex   -4.263919e+01 2.500000e+00 2.519472e+01
    endloop
  endfacet
  facet normal 3.342591e-17 1.000000e+00 -2.380248e-17
    outer loop
      vertex   -4.263919e+01 2.500000e+00 2.519472e+01
      vertex   -3.950622e-01 2.500000e+00 1.163836e+01
      vertex   -2.821130e+00 2.500000e+00 8.231429e+00
    endloop
  endfacet
  facet normal 3.647063e-17 1.000000e+00 -1.665558e-17
    outer loop
      vertex   -2.821130e+00 2.500000e+00 8.231429e+00
      vertex   -4.558590e+00 2.500000e+00 4.426924e+00
      vertex   -4.263919e+01 2.500000e+00 2.519472e+01
    endloop
  endfacet
  facet normal 4.023124e-17 1.000000e+00 -9.759994e-18
    outer loop
      vertex   -4.558590e+00 2.500000e+00 4.426924e+00
      vertex   -5.544643e+00 2.500000e+00 3.623550e-01
      vertex   -4.263919e+01 2.500000e+00 2.519472e+01
    endloop
  endfacet
  facet normal 4.676492e-17 1.000000e+00 -0.000000e+00
    outer loop
      vertex   -4.263919e+01 2.500000e+00 -2.776857e+01
      vertex   -4.263919e+01 2.500000e+00 2.519472e+01
      vertex   -5.544643e+00 2.500000e+00 3.623550e-01
    endloop
  endfacet
  facet normal 4.851762e-17 1.000000e+00 -2.311179e-18
    outer loop
      vertex   -5.544643e+00 2.500000e+00 3.623550e-01
      vertex   -5.743653e+00 2.500000e+00 -3.815374e+00
      vertex   -4.263919e+01 2.500000e+00 -2.776857e+01
    endloop
  endfacet
  facet normal 4.300311e-17 1.000000e+00 6.182914e-18
    outer loop
      vertex   -5.743653e+00 2.500000e+00 -3.815374e+00
      vertex   -5.148426e+00 2.500000e+00 -7.955268e+00
      vertex   -4.263919e+01 2.500000e+00 -2.776857e+01
    endloop
  endfacet
  facet normal 2.617338e-17 1.000000e+00 8.913836e-17
    outer loop
      vertex   -4.263919e+01 2.500000e+00 -2.776857e+01
      vertex   8.054854e+00 2.500000e+00 -2.319267e+01
      vertex   1.206790e+01 2.500000e+00 -2.437100e+01
    endloop
  endfacet
  facet normal 1.921321e-17 1.000000e+00 2.012099e-16
    outer loop
      vertex   1.206790e+01 2.500000e+00 -2.437100e+01
      vertex   1.623143e+01 2.500000e+00 -2.476857e+01
      vertex   -4.263919e+01 2.500000e+00 -2.776857e+01
    endloop
  endfacet
  facet normal 0.000000e+00 1.000000e+00 5.782412e-16
    outer loop
      vertex   7.510205e+01 2.500000e+00 -2.776857e+01
      vertex   -4.263919e+01 2.500000e+00 -2.776857e+01
      vertex   1.623143e+01 2.500000e+00 -2.476857e+01
    endloop
  endfacet
  facet normal -1.921321e-17 1.000000e+00 2.012099e-16
    outer loop
      vertex   1.623143e+01 2.500000e+00 -2.476857e+01
      vertex   2.039496e+01 2.500000e+00 -2.437100e+01
      vertex   7.510205e+01 2.500000e+00 -2.776857e+01
    endloop
  endfacet
  facet normal -2.617338e-17 1.000000e+00 8.913836e-17
    outer loop
      vertex   2.039496e+01 2.500000e+00 -2.437100e+01
      vertex   2.440800e+01 2.500000e+00 -2.319267e+01
      vertex   7.510205e+01 2.500000e+00 -2.776857e+01
    endloop
  endfacet
  facet normal -3.140777e-17 1.000000e+00 3.993822e-17
    outer loop
      vertex   2.812553e+01 2.500000e+00 -2.127615e+01
      vertex   3.141317e+01 2.500000e+00 -1.869072e+01
      vertex   7.510205e+01 2.500000e+00 -2.776857e+01
    endloop
  endfacet
  facet normal -3.364809e-17 1.000000e+00 2.915624e-17
    outer loop
      vertex   7.510205e+01 2.500000e+00 -2.776857e+01
      vertex   3.141317e+01 2.500000e+00 -1.869072e+01
      vertex   3.415210e+01 2.500000e+00 -1.552982e+01
    endloop
  endfacet
  facet normal -3.612803e-17 1.000000e+00 2.085853e-17
    outer loop
      vertex   3.415210e+01 2.500000e+00 -1.552982e+01
      vertex   3.624333e+01 2.500000e+00 -1.190770e+01
      vertex   7.510205e+01 2.500000e+00 -2.776857e+01
    endloop
  endfacet
  facet normal -3.647063e-17 1.000000e+00 -1.665558e-17
    outer loop
      vertex   7.510205e+01 2.500000e+00 2.519472e+01
      vertex   3.702145e+01 2.500000e+00 4.426924e+00
      vertex   3.528399e+01 2.500000e+00 8.231429e+00
    endloop
  endfacet
  facet normal -3.911597e-17 1.000000e+00 1.353817e-17
    outer loop
      vertex   7.510205e+01 2.500000e+00 -2.776857e+01
      vertex   3.624333e+01 2.500000e+00 -1.190770e+01
      vertex   3.761128e+01 2.500000e+00 -7.955268e+00
    endloop
  endfacet
  facet normal -4.300311e-17 1.000000e+00 6.182914e-18
    outer loop
      vertex   3.761128e+01 2.500000e+00 -7.955268e+00
      vertex   3.820651e+01 2.500000e+00 -3.815374e+00
      vertex   7.510205e+01 2.500000e+00 -2.776857e+01
    endloop
  endfacet
  facet normal -4.701716e-17 1.000000e+00 0.000000e+00
    outer loop
      vertex   7.510205e+01 2.500000e+00 2.519472e+01
      vertex   7.510205e+01 2.500000e+00 -2.776857e+01
      vertex   3.820651e+01 2.500000e+00 -3.815374e+00
    endloop
  endfacet
  facet normal -4.531971e-17 1.000000e+00 -2.158844e-18
    outer loop
      vertex   3.820651e+01 2.500000e+00 -3.815374e+00
      vertex   3.800750e+01 2.500000e+00 3.623550e-01
      vertex   7.510205e+01 2.500000e+00 2.519472e+01
    endloop
  endfacet
  facet normal -4.023124e-17 1.000000e+00 -9.759994e-18
    outer loop
      vertex   3.800750e+01 2.500000e+00 3.623550e-01
      vertex   3.702145e+01 2.500000e+00 4.426924e+00
      vertex   7.510205e+01 2.500000e+00 2.519472e+01
    endloop
  endfacet
  facet normal -3.342591e-17 1.000000e+00 -2.380248e-17
    outer loop
      vertex   7.510205e+01 2.500000e+00 2.519472e+01
      vertex   3.528399e+01 2.500000e+00 8.231429e+00
      vertex   3.285792e+01 2.500000e+00 1.163836e+01
    endloop
  endfacet
  facet normal -3.072394e-17 1.000000e+00 -3.222234e-17
    outer loop
      vertex   3.285792e+01 2.500000e+00 1.163836e+01
      vertex   2.983093e+01 2.500000e+00 1.452460e+01
      vertex   7.510205e+01 2.500000e+00 2.519472e+01
    endloop
  endfacet
  facet normal -2.803631e-17 1.000000e+00 -4.362536e-17
    outer loop
      vertex   2.983093e+01 2.500000e+00 1.452460e+01
      vertex   2.631241e+01 2.500000e+00 1.678581e+01
      vertex   7.510205e+01 2.500000e+00 2.519472e+01
    endloop
  endfacet
  facet normal -1.000000e+00 0.000000e+00 0.000000e+00
    outer loop
      vertex   -4.263919e+01 0.000000e+00 -9.305276e+00
      vertex   -4.263919e+01 0.000000e+00 2.519472e+01
      vertex   -4.263919e+01 2.500000e+00 2.519472e+01
    endloop
  endfacet
  facet normal -1.000000e+00 0.000000e+00 -0.000000e+00
    outer loop
      vertex   -4.263919e+01 2.500000e+00 2.519472e+01
      vertex   -4.263919e+01 2.500000e+00 -2.776857e+01
      vertex   -4.263919e+01 0.000000e+00 -9.305276e+00
    endloop
  endfacet
  facet normal -1.000000e+00 0.000000e+00 0.000000e+00
    outer loop
      vertex   -4.263919e+01 -7.500000e+00 -9.305276e+00
      vertex   -4.263919e+01 0.000000e+00 -9.305276e+00
      vertex   -4.263919e+01 2.500000e+00 -2.776857e+01
    endloop
  endfacet
  facet normal -1.000000e+00 0.000000e+00 0.000000e+00
    outer loop
      vertex   -4.263919e+01 2.500000e+00 -2.776857e+01
      vertex   -4.263919e+01 -7.500000e+00 -2.776857e+01
      vertex   -4.263919e+01 -7.500000e+00 -9.305276e+00
    endloop
  endfacet
  facet normal -0.000000e+00 -1.000000e+00 0.000000e+00
    outer loop
      vertex   -4.768571e+00 -7.500000e+00 -1.526857e+01
      vertex   -4.263919e+01 -7.500000e+00 -9.305276e+00
      vertex   -4.263919e+01 -7.500000e+00 -2.776857e+01
    endloop
  endfacet
  facet normal 0.000000e+00 -1.000000e+00 0.000000e+00
    outer loop
      vertex   -4.263919e+01 -7.500000e+00 -2.776857e+01
      vertex   -7.685714e-01 -7.500000e+00 -2.776857e+01
      vertex   -4.768571e+00 -7.500000e+00 -1.526857e+01
    endloop
  endfacet
  facet normal 9.524241e-01 0.000000e+00 3.047757e-01
    outer loop
      vertex   -4.768571e+00 0.000000e+00 -1.526857e+01
      vertex   -4.768571e+00 -7.500000e+00 -1.526857e+01
      vertex   -7.685714e-01 -7.500000e+00 -2.776857e+01
    endloop
  endfacet
  facet normal 9.524241e-01 4.648168e-16 3.047757e-01
    outer loop
      vertex   -7.685714e-01 -7.500000e+00 -2.776857e+01
      vertex   -7.685714e-01 0.000000e+00 -2.776857e+01
      vertex   -4.768571e+00 0.000000e+00 -1.526857e+01
    endloop
  endfacet
  facet normal 1.555483e-01 0.000000e+00 9.878283e-01
    outer loop
      vertex   -4.263919e+01 0.000000e+00 -9.305276e+00
      vertex   -4.263919e+01 -7.500000e+00 -9.305276e+00
      vertex   -4.768571e+00 -7.500000e+00 -1.526857e+01
    endloop
  endfacet
  facet normal 1.555483e-01 -0.000000e+00 9.878283e-01
    outer loop
      vertex   -4.768571e+00 -7.500000e+00 -1.526857e+01
      vertex   -4.768571e+00 0.000000e+00 -1.526857e+01
      vertex   -4.263919e+01 0.000000e+00 -9.305276e+00
    endloop
  endfacet
  facet normal -8.286113e-17 4.625929e-16 -1.000000e+00
    outer loop
      vertex   -7.685714e-01 0.000000e+00 -2.776857e+01
      vertex   -7.685714e-01 -7.500000e+00 -2.776857e+01
      vertex   -4.263919e+01 -7.500000e+00 -2.776857e+01
    endloop
  endfacet
  facet normal 0.000000e+00 0.000000e+00 -1.000000e+00
    outer loop
      vertex   -4.263919e+01 -7.500000e+00 -2.776857e+01
      vertex   -4.263919e+01 2.500000e+00 -2.776857e+01
      vertex   -7.685714e-01 0.000000e+00 -2.776857e+01
    endloop
  endfacet
  facet normal 0.000000e+00 0.000000e+00 -1.000000e+00
    outer loop
      vertex   3.323143e+01 0.000000e+00 -2.776857e+01
      vertex   -7.685714e-01 0.000000e+00 -2.776857e+01
      vertex   -4.263919e+01 2.500000e+00 -2.776857e+01
    endloop
  endfacet
  facet normal 0.000000e+00 0.000000e+00 -1.000000e+00
    outer loop
      vertex   -4.263919e+01 2.500000e+00 -2.776857e+01
      vertex   7.510205e+01 2.500000e+00 -2.776857e+01
      vertex   3.323143e+01 0.000000e+00 -2.776857e+01
    endloop
  endfacet
  facet normal 0.000000e+00 0.000000e+00 -1.000000e+00
    outer loop
      vertex   3.323143e+01 -7.500000e+00 -2.776857e+01
      vertex   3.323143e+01 0.000000e+00 -2.776857e+01
      vertex   7.510205e+01 2.500000e+00 -2.776857e+01
    endloop
  endfacet
  facet normal 0.000000e+00 -0.000000e+00 -1.000000e+00
    outer loop
      vertex   7.510205e+01 2.500000e+00 -2.776857e+01
      vertex   7.510205e+01 -7.500000e+00 -2.776857e+01
      vertex   3.323143e+01 -7.500000e+00 -2.776857e+01
    endloop
  endfacet
  facet normal 1.000000e+00 0.000000e+00 -4.022547e-16
    outer loop
      vertex   7.510205e+01 2.500000e+00 2.519472e+01
      vertex   7.510205e+01 0.000000e+00 2.519472e+01
      vertex   7.510205e+01 0.000000e+00 -9.305276e+00
    endloop
  endfacet
  facet normal 1.000000e+00 -2.955486e-30 7.516420e-16
    outer loop
      vertex   7.510205e+01 0.000000e+00 -9.305276e+00
      vertex   7.510205e+01 -7.500000e+00 -9.305276e+00
      vertex   7.510205e+01 -7.500000e+00 -2.776857e+01
    endloop
  endfacet
  facet normal 1.000000e+00 -0.000000e+00 7.516420e-16
    outer loop
      vertex   7.510205e+01 -7.500000e+00 -2.776857e+01
      vertex   7.510205e+01 2.500000e+00 -2.776857e+01
      vertex   7.510205e+01 0.000000e+00 -9.305276e+00
    endloop
  endfacet
  facet normal 1.000000e+00 -5.551115e-15 0.000000e+00
    outer loop
      vertex   7.510205e+01 0.000000e+00 -9.305276e+00
      vertex   7.510205e+01 2.500000e+00 -2.776857e+01
      vertex   7.510205e+01 2.500000e+00 2.519472e+01
    endloop
  endfacet
  facet normal -9.524241e-01 0.000000e+00 3.047757e-01
    outer loop
      vertex   3.323143e+01 0.000000e+00 -2.776857e+01
      vertex   3.323143e+01 -7.500000e+00 -2.776857e+01
      vertex   3.723143e+01 -7.500000e+00 -1.526857e+01
    endloop
  endfacet
  facet normal -9.524241e-01 0.000000e+00 3.047757e-01
    outer loop
      vertex   3.723143e+01 -7.500000e+00 -1.526857e+01
      vertex   3.723143e+01 0.000000e+00 -1.526857e+01
      vertex   3.323143e+01 0.000000e+00 -2.776857e+01
    endloop
  endfacet
  facet normal 0.000000e+00 -1.000000e+00 0.000000e+00
    outer loop
      vertex   7.510205e+01 -7.500000e+00 -9.305276e+00
      vertex   3.723143e+01 -7.500000e+00 -1.526857e+01
      vertex   3.323143e+01 -7.500000e+00 -2.776857e+01
    endloop
  endfacet
  facet normal 0.000000e+00 -1.000000e+00 0.000000e+00
    outer loop
      vertex   3.323143e+01 -7.500000e+00 -2.776857e+01
      vertex   7.510205e+01 -7.500000e+00 -2.776857e+01
      vertex   7.510205e+01 -7.500000e+00 -9.305276e+00
    endloop
  endfacet
  facet normal -1.555483e-01 0.000000e+00 9.878283e-01
    outer loop
      vertex   3.723143e+01 0.000000e+00 -1.526857e+01
      vertex   3.723143e+01 -7.500000e+00 -1.526857e+01
      vertex   7.510205e+01 -7.500000e+00 -9.305276e+00
    endloop
  endfacet
  facet normal -1.555483e-01 -3.884180e-15 9.878283e-01
    outer loop
      vertex   7.510205e+01 -7.500000e+00 -9.305276e+00
      vertex   7.510205e+01 0.000000e+00 -9.305276e+00
      vertex   3.723143e+01 0.000000e+00 -1.526857e+01
    endloop
  endfacet
  facet normal -1.768003e-16 1.901119e-16 1.000000e+00
    outer loop
      vertex   -2.570388e+01 0.000000e+00 2.519472e+01
      vertex   7.510205e+01 2.500000e+00 2.519472e+01
      vertex   -4.263919e+01 2.500000e+00 2.519472e+01
    endloop
  endfacet
  facet normal -2.048647e-16 0.000000e+00 1.000000e+00
    outer loop
      vertex   -4.263919e+01 2.500000e+00 2.519472e+01
      vertex   -4.263919e+01 0.000000e+00 2.519472e+01
      vertex   -2.570388e+01 0.000000e+00 2.519472e+01
    endloop
  endfacet
  facet normal -2.048647e-16 0.000000e+00 1.000000e+00
    outer loop
      vertex   5.816674e+01 0.000000e+00 2.519472e+01
      vertex   7.510205e+01 0.000000e+00 2.519472e+01
      vertex   7.510205e+01 2.500000e+00 2.519472e+01
    endloop
  endfacet
  facet normal -1.654666e-16 -2.668874e-16 1.000000e+00
    outer loop
      vertex   7.510205e+01 2.500000e+00 2.519472e+01
      vertex   -2.570388e+01 0.000000e+00 2.519472e+01
      vertex   5.816674e+01 0.000000e+00 2.519472e+01
    endloop
  endfacet
  facet normal -1.654666e-16 4.625929e-16 1.000000e+00
    outer loop
      vertex   5.816674e+01 -7.500000e+00 2.519472e+01
      vertex   5.816674e+01 0.000000e+00 2.519472e+01
      vertex   -2.570388e+01 0.000000e+00 2.519472e+01
    endloop
  endfacet
  facet normal -1.654666e-16 4.625929e-16 1.000000e+00
    outer loop
      vertex   -2.570388e+01 0.000000e+00 2.519472e+01
      vertex   -2.570388e+01 -7.500000e+00 2.519472e+01
      vertex   5.816674e+01 -7.500000e+00 2.519472e+01
    endloop
  endfacet
  facet normal 1.592407e-01 0.000000e+00 -9.872398e-01
    outer loop
      vertex   4.123143e+01 -7.500000e+00 2.246308e+01
      vertex   4.123143e+01 0.000000e+00 2.246308e+01
      vertex   5.816674e+01 0.000000e+00 2.519472e+01
    endloop
  endfacet
  facet normal 1.592407e-01 -4.566901e-16 -9.872398e-01
    outer loop
      vertex   5.816674e+01 0.000000e+00 2.519472e+01
      vertex   5.816674e+01 -7.500000e+00 2.519472e+01
      vertex   4.123143e+01 -7.500000e+00 2.246308e+01
    endloop
  endfacet
  facet normal 2.134934e-01 0.000000e+00 -9.769445e-01
    outer loop
      vertex   2.873143e+01 -7.500000e+00 1.973143e+01
      vertex   2.873143e+01 0.000000e+00 1.973143e+01
      vertex   4.123143e+01 0.000000e+00 2.246308e+01
    endloop
  endfacet
  facet normal 2.134934e-01 0.000000e+00 -9.769445e-01
    outer loop
      vertex   4.123143e+01 0.000000e+00 2.246308e+01
      vertex   4.123143e+01 -7.500000e+00 2.246308e+01
      vertex   2.873143e+01 -7.500000e+00 1.973143e+01
    endloop
  endfacet
  facet normal -0.000000e+00 -1.000000e+00 0.000000e+00
    outer loop
      vertex   1.206790e+01 0.000000e+00 -2.437100e+01
      vertex   8.054854e+00 0.000000e+00 -2.319267e+01
      vertex   -7.685714e-01 0.000000e+00 -2.776857e+01
    endloop
  endfacet
  facet normal -0.000000e+00 -1.000000e+00 0.000000e+00
    outer loop
      vertex   -5.743653e+00 0.000000e+00 -3.815374e+00
      vertex   -5.544643e+00 0.000000e+00 3.623550e-01
      vertex   -4.263919e+01 0.000000e+00 -9.305276e+00
    endloop
  endfacet
  facet normal -0.000000e+00 -1.000000e+00 0.000000e+00
    outer loop
      vertex   8.054854e+00 0.000000e+00 -2.319267e+01
      vertex   4.337331e+00 0.000000e+00 -2.127615e+01
      vertex   -7.685714e-01 0.000000e+00 -2.776857e+01
    endloop
  endfacet
  facet normal 0.000000e+00 -1.000000e+00 0.000000e+00
    outer loop
      vertex   -7.685714e-01 0.000000e+00 -2.776857e+01
      vertex   4.337331e+00 0.000000e+00 -2.127615e+01
      vertex   1.049690e+00 0.000000e+00 -1.869072e+01
    endloop
  endfacet
  facet normal 0.000000e+00 -1.000000e+00 0.000000e+00
    outer loop
      vertex   -4.768571e+00 0.000000e+00 -1.526857e+01
      vertex   -7.685714e-01 0.000000e+00 -2.776857e+01
      vertex   1.049690e+00 0.000000e+00 -1.869072e+01
    endloop
  endfacet
  facet normal 0.000000e+00 -1.000000e+00 0.000000e+00
    outer loop
      vertex   -7.685714e-01 0.000000e+00 -2.776857e+01
      vertex   1.623143e+01 0.000000e+00 -2.476857e+01
      vertex   1.206790e+01 0.000000e+00 -2.437100e+01
    endloop
  endfacet
  facet normal 0.000000e+00 -1.000000e+00 -0.000000e+00
    outer loop
      vertex   1.623143e+01 0.000000e+00 -2.476857e+01
      vertex   -7.685714e-01 0.000000e+00 -2.776857e+01
      vertex   3.323143e+01 0.000000e+00 -2.776857e+01
    endloop
  endfacet
  facet normal 0.000000e+00 -1.000000e+00 0.000000e+00
    outer loop
      vertex   3.323143e+01 0.000000e+00 -2.776857e+01
      vertex   2.039496e+01 0.000000e+00 -2.437100e+01
      vertex   1.623143e+01 0.000000e+00 -2.476857e+01
    endloop
  endfacet
  facet normal 0.000000e+00 -1.000000e+00 0.000000e+00
    outer loop
      vertex   -4.263919e+01 0.000000e+00 2.519472e+01
      vertex   -4.263919e+01 0.000000e+00 -9.305276e+00
      vertex   -5.544643e+00 0.000000e+00 3.623550e-01
    endloop
  endfacet
  facet normal 0.000000e+00 -1.000000e+00 0.000000e+00
    outer loop
      vertex   3.323143e+01 0.000000e+00 -2.776857e+01
      vertex   3.141317e+01 0.000000e+00 -1.869072e+01
      vertex   2.812553e+01 0.000000e+00 -2.127615e+01
    endloop
  endfacet
  facet normal 0.000000e+00 -1.000000e+00 -0.000000e+00
    outer loop
      vertex   2.812553e+01 0.000000e+00 -2.127615e+01
      vertex   2.440800e+01 0.000000e+00 -2.319267e+01
      vertex   3.323143e+01 0.000000e+00 -2.776857e+01
    endloop
  endfacet
  facet normal 0.000000e+00 -1.000000e+00 0.000000e+00
    outer loop
      vertex   3.323143e+01 0.000000e+00 -2.776857e+01
      vertex   2.440800e+01 0.000000e+00 -2.319267e+01
      vertex   2.039496e+01 0.000000e+00 -2.437100e+01
    endloop
  endfacet
  facet normal 0.000000e+00 -1.000000e+00 0.000000e+00
    outer loop
      vertex   3.415210e+01 0.000000e+00 -1.552982e+01
      vertex   3.141317e+01 0.000000e+00 -1.869072e+01
      vertex   3.323143e+01 0.000000e+00 -2.776857e+01
    endloop
  endfacet
  facet normal 0.000000e+00 -1.000000e+00 0.000000e+00
    outer loop
      vertex   3.323143e+01 0.000000e+00 -2.776857e+01
      vertex   3.723143e+01 0.000000e+00 -1.526857e+01
      vertex   3.415210e+01 0.000000e+00 -1.552982e+01
    endloop
  endfacet
  facet normal -0.000000e+00 -1.000000e+00 0.000000e+00
    outer loop
      vertex   3.723143e+01 0.000000e+00 -1.526857e+01
      vertex   3.624333e+01 0.000000e+00 -1.190770e+01
      vertex   3.415210e+01 0.000000e+00 -1.552982e+01
    endloop
  endfacet
  facet normal 0.000000e+00 -1.000000e+00 0.000000e+00
    outer loop
      vertex   6.150445e+00 0.000000e+00 1.678581e+01
      vertex   1.003331e+01 0.000000e+00 1.834027e+01
      vertex   3.731429e+00 0.000000e+00 1.973143e+01
    endloop
  endfacet
  facet normal 0.000000e+00 -1.000000e+00 0.000000e+00
    outer loop
      vertex   1.049690e+00 0.000000e+00 -1.869072e+01
      vertex   -1.689242e+00 0.000000e+00 -1.552982e+01
      vertex   -4.768571e+00 0.000000e+00 -1.526857e+01
    endloop
  endfacet
  facet normal 0.000000e+00 -1.000000e+00 0.000000e+00
    outer loop
      vertex   -4.768571e+00 0.000000e+00 -1.526857e+01
      vertex   -1.689242e+00 0.000000e+00 -1.552982e+01
      vertex   -3.780475e+00 0.000000e+00 -1.190770e+01
    endloop
  endfacet
  facet normal -0.000000e+00 -1.000000e+00 0.000000e+00
    outer loop
      vertex   -3.780475e+00 0.000000e+00 -1.190770e+01
      vertex   -4.263919e+01 0.000000e+00 -9.305276e+00
      vertex   -4.768571e+00 0.000000e+00 -1.526857e+01
    endloop
  endfacet
  facet normal 0.000000e+00 -1.000000e+00 0.000000e+00
    outer loop
      vertex   -3.780475e+00 0.000000e+00 -1.190770e+01
      vertex   -5.148426e+00 0.000000e+00 -7.955268e+00
      vertex   -4.263919e+01 0.000000e+00 -9.305276e+00
    endloop
  endfacet
  facet normal 0.000000e+00 -1.000000e+00 0.000000e+00
    outer loop
      vertex   -4.263919e+01 0.000000e+00 -9.305276e+00
      vertex   -5.148426e+00 0.000000e+00 -7.955268e+00
      vertex   -5.743653e+00 0.000000e+00 -3.815374e+00
    endloop
  endfacet
  facet normal 0.000000e+00 -1.000000e+00 0.000000e+00
    outer loop
      vertex   3.702145e+01 0.000000e+00 4.426924e+00
      vertex   3.800750e+01 0.000000e+00 3.623550e-01
      vertex   7.510205e+01 0.000000e+00 -9.305276e+00
    endloop
  endfacet
  facet normal 0.000000e+00 -1.000000e+00 0.000000e+00
    outer loop
      vertex   7.510205e+01 0.000000e+00 -9.305276e+00
      vertex   7.510205e+01 0.000000e+00 2.519472e+01
      vertex   3.702145e+01 0.000000e+00 4.426924e+00
    endloop
  endfacet
  facet normal 0.000000e+00 -1.000000e+00 0.000000e+00
    outer loop
      vertex   3.528399e+01 0.000000e+00 8.231429e+00
      vertex   3.702145e+01 0.000000e+00 4.426924e+00
      vertex   7.510205e+01 0.000000e+00 2.519472e+01
    endloop
  endfacet
  facet normal 0.000000e+00 -1.000000e+00 0.000000e+00
    outer loop
      vertex   7.510205e+01 0.000000e+00 2.519472e+01
      vertex   5.816674e+01 0.000000e+00 2.519472e+01
      vertex   3.528399e+01 0.000000e+00 8.231429e+00
    endloop
  endfacet
  facet normal 0.000000e+00 -1.000000e+00 0.000000e+00
    outer loop
      vertex   3.285792e+01 0.000000e+00 1.163836e+01
      vertex   3.528399e+01 0.000000e+00 8.231429e+00
      vertex   5.816674e+01 0.000000e+00 2.519472e+01
    endloop
  endfacet
  facet normal 0.000000e+00 -1.000000e+00 0.000000e+00
    outer loop
      vertex   5.816674e+01 0.000000e+00 2.519472e+01
      vertex   4.123143e+01 0.000000e+00 2.246308e+01
      vertex   3.285792e+01 0.000000e+00 1.163836e+01
    endloop
  endfacet
  facet normal 0.000000e+00 -1.000000e+00 0.000000e+00
    outer loop
      vertex   2.983093e+01 0.000000e+00 1.452460e+01
      vertex   3.285792e+01 0.000000e+00 1.163836e+01
      vertex   4.123143e+01 0.000000e+00 2.246308e+01
    endloop
  endfacet
  facet normal 0.000000e+00 -1.000000e+00 0.000000e+00
    outer loop
      vertex   4.123143e+01 0.000000e+00 2.246308e+01
      vertex   2.873143e+01 0.000000e+00 1.973143e+01
      vertex   2.983093e+01 0.000000e+00 1.452460e+01
    endloop
  endfacet
  facet normal 0.000000e+00 -1.000000e+00 0.000000e+00
    outer loop
      vertex   2.631241e+01 0.000000e+00 1.678581e+01
      vertex   2.983093e+01 0.000000e+00 1.452460e+01
      vertex   2.873143e+01 0.000000e+00 1.973143e+01
    endloop
  endfacet
  facet normal 0.000000e+00 -1.000000e+00 0.000000e+00
    outer loop
      vertex   7.510205e+01 0.000000e+00 -9.305276e+00
      vertex   3.800750e+01 0.000000e+00 3.623550e-01
      vertex   3.823143e+01 0.000000e+00 -2.768571e+00
    endloop
  endfacet
  facet normal 0.000000e+00 -1.000000e+00 0.000000e+00
    outer loop
      vertex   7.510205e+01 0.000000e+00 -9.305276e+00
      vertex   3.823143e+01 0.000000e+00 -2.768571e+00
      vertex   3.820651e+01 0.000000e+00 -3.815374e+00
    endloop
  endfacet
  facet normal 0.000000e+00 -1.000000e+00 -0.000000e+00
    outer loop
      vertex   3.820651e+01 0.000000e+00 -3.815374e+00
      vertex   3.723143e+01 0.000000e+00 -1.526857e+01
      vertex   7.510205e+01 0.000000e+00 -9.305276e+00
    endloop
  endfacet
  facet normal 0.000000e+00 -1.000000e+00 0.000000e+00
    outer loop
      vertex   3.723143e+01 0.000000e+00 -1.526857e+01
      vertex   3.820651e+01 0.000000e+00 -3.815374e+00
      vertex   3.761128e+01 0.000000e+00 -7.955268e+00
    endloop
  endfacet
  facet normal 0.000000e+00 -1.000000e+00 0.000000e+00
    outer loop
      vertex   3.761128e+01 0.000000e+00 -7.955268e+00
      vertex   3.624333e+01 0.000000e+00 -1.190770e+01
      vertex   3.723143e+01 0.000000e+00 -1.526857e+01
    endloop
  endfacet
  facet normal 0.000000e+00 -1.000000e+00 0.000000e+00
    outer loop
      vertex   2.631931e+00 0.000000e+00 1.452460e+01
      vertex   6.150445e+00 0.000000e+00 1.678581e+01
      vertex   3.731429e+00 0.000000e+00 1.973143e+01
    endloop
  endfacet
  facet normal 0.000000e+00 -1.000000e+00 0.000000e+00
    outer loop
      vertex   -5.544643e+00 0.000000e+00 3.623550e-01
      vertex   -4.558590e+00 0.000000e+00 4.426924e+00
      vertex   -4.263919e+01 0.000000e+00 2.519472e+01
    endloop
  endfacet
  facet normal 0.000000e+00 -1.000000e+00 0.000000e+00
    outer loop
      vertex   -4.263919e+01 0.000000e+00 2.519472e+01
      vertex   -4.558590e+00 0.000000e+00 4.426924e+00
      vertex   -2.821130e+00 0.000000e+00 8.231429e+00
    endloop
  endfacet
  facet normal 0.000000e+00 -1.000000e+00 -0.000000e+00
    outer loop
      vertex   -2.570388e+01 0.000000e+00 2.519472e+01
      vertex   -4.263919e+01 0.000000e+00 2.519472e+01
      vertex   -2.821130e+00 0.000000e+00 8.231429e+00
    endloop
  endfacet
  facet normal 0.000000e+00 -1.000000e+00 0.000000e+00
    outer loop
      vertex   -2.821130e+00 0.000000e+00 8.231429e+00
      vertex   -8.768571e+00 0.000000e+00 2.246308e+01
      vertex   -2.570388e+01 0.000000e+00 2.519472e+01
    endloop
  endfacet
  facet normal 0.000000e+00 -1.000000e+00 0.000000e+00
    outer loop
      vertex   -2.821130e+00 0.000000e+00 8.231429e+00
      vertex   3.731429e+00 0.000000e+00 1.973143e+01
      vertex   -8.768571e+00 0.000000e+00 2.246308e+01
    endloop
  endfacet
  facet normal 0.000000e+00 -1.000000e+00 0.000000e+00
    outer loop
      vertex   3.731429e+00 0.000000e+00 1.973143e+01
      vertex   -2.821130e+00 0.000000e+00 8.231429e+00
      vertex   -3.950622e-01 0.000000e+00 1.163836e+01
    endloop
  endfacet
  facet normal 0.000000e+00 -1.000000e+00 0.000000e+00
    outer loop
      vertex   3.731429e+00 0.000000e+00 1.973143e+01
      vertex   -3.950622e-01 0.000000e+00 1.163836e+01
      vertex   2.631931e+00 0.000000e+00 1.452460e+01
    endloop
  endfacet
  facet normal 0.000000e+00 -1.000000e+00 0.000000e+00
    outer loop
      vertex   3.731429e+00 0.000000e+00 1.973143e+01
      vertex   1.003331e+01 0.000000e+00 1.834027e+01
      vertex   1.414020e+01 0.000000e+00 1.913181e+01
    endloop
  endfacet
  facet normal 0.000000e+00 -1.000000e+00 0.000000e+00
    outer loop
      vertex   3.731429e+00 0.000000e+00 1.973143e+01
      vertex   1.414020e+01 0.000000e+00 1.913181e+01
      vertex   1.832266e+01 0.000000e+00 1.913181e+01
    endloop
  endfacet
  facet normal 0.000000e+00 -1.000000e+00 0.000000e+00
    outer loop
      vertex   1.832266e+01 0.000000e+00 1.913181e+01
      vertex   2.873143e+01 0.000000e+00 1.973143e+01
      vertex   3.731429e+00 0.000000e+00 1.973143e+01
    endloop
  endfacet
  facet normal 0.000000e+00 -1.000000e+00 0.000000e+00
    outer loop
      vertex   2.873143e+01 0.000000e+00 1.973143e+01
      vertex   1.832266e+01 0.000000e+00 1.913181e+01
      vertex   2.242954e+01 0.000000e+00 1.834027e+01
    endloop
  endfacet
  facet normal 0.000000e+00 -1.000000e+00 0.000000e+00
    outer loop
      vertex   2.242954e+01 0.000000e+00 1.834027e+01
      vertex   2.631241e+01 0.000000e+00 1.678581e+01
      vertex   2.873143e+01 0.000000e+00 1.973143e+01
    endloop
  endfacet
  facet normal 0.000000e+00 -1.000000e+00 0.000000e+00
    outer loop
      vertex   5.816674e+01 -7.500000e+00 2.519472e+01
      vertex   -2.570388e+01 -7.500000e+00 2.519472e+01
      vertex   -8.768571e+00 -7.500000e+00 2.246308e+01
    endloop
  endfacet
  facet normal 0.000000e+00 -1.000000e+00 0.000000e+00
    outer loop
      vertex   -8.768571e+00 -7.500000e+00 2.246308e+01
      vertex   3.731429e+00 -7.500000e+00 1.973143e+01
      vertex   2.873143e+01 -7.500000e+00 1.973143e+01
    endloop
  endfacet
  facet normal 0.000000e+00 -1.000000e+00 0.000000e+00
    outer loop
      vertex   2.873143e+01 -7.500000e+00 1.973143e+01
      vertex   4.123143e+01 -7.500000e+00 2.246308e+01
      vertex   -8.768571e+00 -7.500000e+00 2.246308e+01
    endloop
  endfacet
  facet normal 0.000000e+00 -1.000000e+00 0.000000e+00
    outer loop
      vertex   4.123143e+01 -7.500000e+00 2.246308e+01
      vertex   5.816674e+01 -7.500000e+00 2.519472e+01
      vertex   -8.768571e+00 -7.500000e+00 2.246308e+01
    endloop
  endfacet
  facet normal 0.000000e+00 0.000000e+00 -1.000000e+00
    outer loop
      vertex   3.731429e+00 0.000000e+00 1.973143e+01
      vertex   2.873143e+01 0.000000e+00 1.973143e+01
      vertex   2.873143e+01 -7.500000e+00 1.973143e+01
    endloop
  endfacet
  facet normal 0.000000e+00 0.000000e+00 -1.000000e+00
    outer loop
      vertex   2.873143e+01 -7.500000e+00 1.973143e+01
      vertex   3.731429e+00 -7.500000e+00 1.973143e+01
      vertex   3.731429e+00 0.000000e+00 1.973143e+01
    endloop
  endfacet
  facet normal -1.592407e-01 -4.566901e-16 -9.872398e-01
    outer loop
      vertex   -2.570388e+01 -7.500000e+00 2.519472e+01
      vertex   -2.570388e+01 0.000000e+00 2.519472e+01
      vertex   -8.768571e+00 0.000000e+00 2.246308e+01
    endloop
  endfacet
  facet normal -1.592407e-01 -0.000000e+00 -9.872398e-01
    outer loop
      vertex   -8.768571e+00 0.000000e+00 2.246308e+01
      vertex   -8.768571e+00 -7.500000e+00 2.246308e+01
      vertex   -2.570388e+01 -7.500000e+00 2.519472e+01
    endloop
  endfacet
  facet normal -2.134934e-01 0.000000e+00 -9.769445e-01
    outer loop
      vertex   -8.768571e+00 -7.500000e+00 2.246308e+01
      vertex   -8.768571e+00 0.000000e+00 2.246308e+01
      vertex   3.731429e+00 0.000000e+00 1.973143e+01
    endloop
  endfacet
  facet normal -2.134934e-01 -0.000000e+00 -9.769445e-01
    outer loop
      vertex   3.731429e+00 0.000000e+00 1.973143e+01
      vertex   3.731429e+00 -7.500000e+00 1.973143e+01
      vertex   -8.768571e+00 -7.500000e+00 2.246308e+01
    endloop
  endfacet
endsolid
